<svg id="Layer_1" data-name="Layer 1" xmlns="http://www.w3.org/2000/svg" viewBox="0 0 196 29"><defs><style>.cls-1{fill:#505050;}</style></defs><title>gulbenkian</title><path class="cls-1" d="M186.7,27.81h1.19V20l7.68,8.25V17.41h-1.19v7.9L186.7,17Zm-6-8.07,1.68,3.82H179Zm0-2.74-4.75,10.81h1.35l1.36-3.19h4.1l1.36,3.19h1.35Zm-7.22,10.81h1.25V17.41h-1.25Zm-8.62,0h1.23v-5.6l4.73,5.6h1.62l-5-5.72,4.5-4.68h-1.49L166.08,22V17.41h-1.23Zm-11,0H155V20l7.69,8.25V17.41h-1.2v7.9L153.81,17Zm-7.57,0h5.53V26.66h-4.28v-4h4.28V21.52h-4.28v-3h4.28V17.42h-5.53Zm-8.18,0h2.19c1.5,0,2.52,0,3.29-.78a3.11,3.11,0,0,0,.86-2.18,2.37,2.37,0,0,0-2-2.55A2.09,2.09,0,0,0,144,20.14a2.68,2.68,0,0,0-1.06-2.21,4.34,4.34,0,0,0-2.64-.52h-2.19Zm1.22-4.88h1.34a3.16,3.16,0,0,1,1.6.28,1.77,1.77,0,0,1,.86,1.64,1.85,1.85,0,0,1-.69,1.53,3.85,3.85,0,0,1-2.14.36h-1Zm0-4.48h1c1.68,0,2.42.31,2.42,1.81,0,1.26-.73,1.68-2.42,1.68h-1Zm-8,9.36h5.23V26.63h-4V17.41h-1.25ZM121,17.41v6.47c0,2.8,1.34,4.21,4.07,4.21s4.06-1.4,4.06-4.21V17.41h-1.26v6.47c0,2.08-.85,3.06-2.8,3.06s-2.8-1-2.8-3.06V17.41Zm-6,5v1.12h3A3.61,3.61,0,0,1,114.18,27a4,4,0,0,1-4.11-4.25c0-2.63,1.68-4.42,4.11-4.42a3.71,3.71,0,0,1,3.36,1.89l1-.84a5,5,0,0,0-4.48-2.19,5.24,5.24,0,0,0-3.73,1.36,5.45,5.45,0,0,0-1.68,4.19,5.19,5.19,0,0,0,2.7,4.76,5.79,5.79,0,0,0,2.65.61c3.19,0,5.24-2,5.24-5.3v-.35ZM98.73,27.82h5.53V26.66H100v-4h4.29V21.52H100v-3h4.29V17.42H98.73Zm-6,0H94V18.58h3V17.41H89.71v1.17h3ZM87,22l-1.5-.65c-1-.41-1.41-.93-1.41-1.68a1.5,1.5,0,0,1,1.47-1.52h.13a2,2,0,0,1,1.78,1.2l1-.66a2.81,2.81,0,0,0-2.72-1.57,2.69,2.69,0,0,0-3,2.56,2.85,2.85,0,0,0,2.07,2.75l1.28.56a2.23,2.23,0,0,1,1.64,2.07A1.92,1.92,0,0,1,85.88,27h-.19c-1.06,0-1.78-.66-2.09-1.93l-1.12.56a3.35,3.35,0,0,0,6.57-.77A3,3,0,0,0,87,22M72.42,17.41v6.47c0,2.8,1.33,4.21,4.07,4.21s4-1.4,4-4.21V17.41H79.25v6.47c0,2.08-.85,3.06-2.8,3.06s-2.8-1-2.8-3.06V17.41Zm-7.31,9.52A4.28,4.28,0,0,1,62,25.66a4.31,4.31,0,0,1,0-6.09,4.3,4.3,0,0,1,7.34,3.06,4.17,4.17,0,0,1-1.26,3,4.27,4.27,0,0,1-3,1.26m5.6-4.29A5.32,5.32,0,0,0,69,18.76a5.76,5.76,0,0,0-8,0,5.27,5.27,0,0,0-1.64,3.87,5.18,5.18,0,0,0,1.64,3.85,5.72,5.72,0,0,0,8,0,5.28,5.28,0,0,0,1.63-3.85M53.84,27.81h5.21V26.63h-4V17.41H53.84Zm-6.16-8.07,1.68,3.82H46Zm0-2.74L42.93,27.81h1.35l1.37-3.19h4.09l1.37,3.19h1.35ZM42,19.89V18.28a5.85,5.85,0,0,0-3.45-1.12,5.48,5.48,0,0,0-3.92,1.52,5.28,5.28,0,0,0-1.64,4,5.26,5.26,0,0,0,2.36,4.48,5.5,5.5,0,0,0,3.14.95A6.15,6.15,0,0,0,42.05,27V25.31A4.38,4.38,0,0,1,38.61,27a4.22,4.22,0,0,1-3.53-1.85,4.14,4.14,0,0,1-.73-2.46,4.21,4.21,0,0,1,4.1-4.33h.06A4.5,4.5,0,0,1,42,19.89"/><polygon class="cls-1" points="59.68 10.63 51.95 2.26 51.95 13.15 53.15 13.15 53.15 5.28 60.88 13.56 60.88 2.67 59.68 2.67 59.68 10.63"/><path class="cls-1" d="M48.47,9.19c0,2.1-.86,3.08-2.8,3.08s-2.8-1-2.8-3.08V2.67H41.55V9.19c0,2.83,1.35,4.24,4.1,4.24S49.74,12,49.74,9.19V2.67H48.47Z"/><polygon class="cls-1" points="33.51 13.15 34.76 13.15 34.76 7.98 39.08 7.98 39.08 6.82 34.76 6.82 34.76 3.81 39.08 3.81 39.08 2.67 33.51 2.67 33.51 13.15"/><path class="cls-1" d="M92,13.15h1.36l1.38-3.21h4.12l1.37,3.21h1.37L96.75,2.26ZM95.07,8.9,96.75,5,98.43,8.9Z"/><path class="cls-1" d="M83.73,4a5.27,5.27,0,0,0-1.68,4,5.29,5.29,0,0,0,2.38,4.48,5.47,5.47,0,0,0,2.38.94v.92h.46c.52,0,.78.16.78.5s-.24.48-.71.48a7,7,0,0,1-1.43-.23v.56a5.51,5.51,0,0,0,1.5.27c1,0,1.46-.39,1.46-1.09s-.44-1-1.3-1H87.4v-.32h.17a6.1,6.1,0,0,0,3.57-1.12V10.62a4.41,4.41,0,0,1-3.46,1.68,4.3,4.3,0,0,1-3.57-1.86A4.12,4.12,0,0,1,83.39,8,4.24,4.24,0,0,1,87.51,3.6h.1a4.54,4.54,0,0,1,3.54,1.58V3.55a6,6,0,0,0-3.48-1.12A5.5,5.5,0,0,0,83.75,4"/><path class="cls-1" d="M70,3.65c-1.29-1-2.8-1-4.79-1h-2V13.15h2.48c1.72,0,3.11,0,4.33-1a5,5,0,0,0,1.85-4.25A5.06,5.06,0,0,0,70,3.65m-.8,7.58c-.88.73-2.14.75-3.92.75h-.8V3.86h.8c1.82,0,3.08,0,3.92.76a4,4,0,0,1,1.33,3.31,4.1,4.1,0,0,1-1.33,3.33"/><path class="cls-1" d="M110.92,4.21a5.75,5.75,0,0,0-7.94,0,5.23,5.23,0,0,0-1.65,3.87A5.22,5.22,0,0,0,103,11.93a5.73,5.73,0,0,0,7.94,0,5.28,5.28,0,0,0,1.63-3.85,5.3,5.3,0,0,0-1.63-3.87M110,11.1a4.28,4.28,0,0,1-6,0l0,0a4.2,4.2,0,0,1-1.27-3,4.31,4.31,0,1,1,8.61,0,4.17,4.17,0,0,1-1.26,3"/><path class="cls-1" d="M72.16,13.15h1.37l1.38-3.21H79l1.37,3.21h1.36L77,2.26ZM75.27,8.9,77,5,78.63,8.9Z"/><path class="cls-1" d="M98.46.5H98a.56.56,0,0,1-.53.41,1.06,1.06,0,0,1-.31-.05L96.56.7a1,1,0,0,0-.33,0c-.56,0-1,.4-1.12,1.15h.52a.56.56,0,0,1,.51-.38,1.35,1.35,0,0,1,.28,0l.56.15a1.15,1.15,0,0,0,.37.06c.56,0,1-.4,1.12-1.17"/><path class="cls-1" d="M14.06,28.5C6.41,28.5.43,22.79.43,15.5.43,7.67,6.16,2,14.06,2c4.92,0,8.69,2,11.2,5.8l-1.12.71C21.85,5,18.56,3.3,14.06,3.3A11.85,11.85,0,0,0,1.77,15.5c0,6.54,5.4,11.68,12.32,11.68,5.83,0,10.42-3.58,11.2-8.61H21.37V17.24h5.38l-.06.72c-.5,6.1-5.8,10.54-12.63,10.54"/><path class="cls-1" d="M14.21,9.71c0-.07-.21-.12-.18,0h.18"/><path class="cls-1" d="M2.67,16.24h0a.43.43,0,0,1-.26.13c-.12,0-.18-.12-.29-.11.06.26.56.3.56,0"/><path class="cls-1" d="M2.27,13.23h0c.14-.15.29-.29.43-.45a5.19,5.19,0,0,0,.36-.46c.16-.29-.22-.14-.12-.15a.13.13,0,0,1,0,.12.55.55,0,0,1-.18.29l-.56.56s-.05.14,0,.11"/><path class="cls-1" d="M2.25,13.63h0c.18-.24.36-.45.53-.65l.56-.66c0-.05.1-.13.07-.21-.1.07-.12.18-.18.26a2.37,2.37,0,0,1-.32.39c-.22.23-.47.45-.68.69,0,.06-.09.33,0,.19"/><path class="cls-1" d="M24.89,14.37l-.15-.23a1.85,1.85,0,0,0-.48-.35l-.33,0a1.91,1.91,0,0,1-.33-.06,2.92,2.92,0,0,0-.56-.21c-.39,0-.52.37-.9.38a2.77,2.77,0,0,0-.12-.41c-.05-.12-.17-.23-.18-.35a.54.54,0,0,1,0-.22.54.54,0,0,0,0-.18,2.8,2.8,0,0,0-.1-1.08,2.94,2.94,0,0,0-.23-.51h0A.21.21,0,0,1,21.5,11c0-.07.17-.13.25-.17s.36-.18.56-.31.18-.17.27-.16.1.05.16.09h0l.1.06c.07,0,.24.06.26,0s-.31-.11-.29-.27.3-.05.4-.06c.14-.37-.17-.52-.39-.66s-.23-.15-.35-.22a6.86,6.86,0,0,0-.76-.4.46.46,0,0,0-.43-.3c-.09-.08-.06-.24-.16-.3s-.18,0-.27,0a1.52,1.52,0,0,0-.47.2c-.07,0-.16.13-.13.18s.11,0,.16-.06l.18-.09c.1,0,.3-.12.36-.05s-.14.15-.22.18-.12,0-.15.07,0,.22-.08.25a.15.15,0,0,1-.13,0c-.15,0-.26-.22-.43-.26a.42.42,0,0,1-.12.27c-.07.09-.1.12-.14.13A.42.42,0,0,1,19.44,9c-.06-.06-.18-.15-.21-.24s.1-.25.08-.34-.17-.09-.28-.11l-.36,0a1.13,1.13,0,0,0-.51.1c-.07,0-.2.07-.18.13s.16,0,.24,0a1.4,1.4,0,0,1,.76,0,.24.24,0,0,1-.18.13h-.14c-.16,0-.35,0-.35.12s.11.15.22.14.08,0,.13,0,.08,0,.13,0,.1,0,.14,0l.15.08.14.09c.07,0,.22.15.2.24s-.4,0-.48,0-.23.1-.28,0,0-.11,0-.16-.07,0-.13,0S18.38,9,18.25,9A.66.66,0,0,1,18,8.8c-.06-.07-.07-.17-.15-.17a.35.35,0,0,0-.14.06,1.2,1.2,0,0,0-.46.56c-.05.1-.1.24-.2.24s-.22-.16-.26-.27,0-.12,0-.16-.15-.09-.2-.16a.66.66,0,0,1-.09-.19c0-.09.13-.16.11-.25s-.16-.11-.24-.15a1.32,1.32,0,0,0-.3-.1,1.5,1.5,0,0,0-.47,0c-.13,0-.34.07-.3.15s.13,0,.2,0A1.2,1.2,0,0,1,16,8.27c.09,0,.44.16.38.28s-.2-.06-.25-.09a1.16,1.16,0,0,0-.35,0c-.13,0-.29,0-.3.09a.15.15,0,0,0,.13.18.74.74,0,0,0,.21,0c.06,0,0,.15,0,.16s.09-.12.18-.13a.39.39,0,0,1,.27.08.87.87,0,0,1,.07.17s.16.09.16.18-.09.14-.18.15-.25-.07-.28-.05,0,.07.06.1a.65.65,0,0,1,0,.93.66.66,0,0,1-.42.07,1,1,0,0,1-.25-.25s0-.1-.08-.1,0,.13,0,.13a1.59,1.59,0,0,0,.15.29c0,.08.14.12.19.19A2.22,2.22,0,0,1,16,11a.09.09,0,0,1,0,.07c0,.05-.18.06-.28.07l-1.36.11c-.24,0-.43,0-.56-.08a.27.27,0,0,1-.07-.08h0a.35.35,0,0,1-.1-.21c0-.09.24-.13.34-.17a1.06,1.06,0,0,1,.64-.18c.1,0,.33.19.38,0s-.27-.05-.27-.17.08-.13.15-.14.27.06.37,0,0-.18,0-.27,0-.13,0-.19-.2-.27-.35-.34-.25-.08-.26-.17A.3.3,0,0,1,14.81,9H15c.11,0,.23-.14.32-.14s.16.19.25.13-.06-.08-.09-.13a.14.14,0,0,0,0-.09c-.2-.08-.22-.36-.43-.45a2.59,2.59,0,0,0-.64.55c0,.07-.14.25-.24.26S13.87,9,13.81,9a2,2,0,0,0-.32-.33c-.1-.05-.43-.09-.44-.19h0l.82-.26C14.62,8,17.79,7.06,18.06,7l1-.29s.13-.12,0-.15l-.56.17L14.1,8l-1,.28s0-.06-.14-.1h0l-.21-.06h-.06a1.76,1.76,0,0,0-.75.14c-.06,0-.17.1-.16.15s.09,0,.13,0a1.3,1.3,0,0,1,.43-.15c.16,0,.6-.06.56.11s-.22.08-.34.08a1.1,1.1,0,0,0-.51.12c0,.05.15.17.24.17s.08,0,.12,0,.09.07.14.08.08-.05.14,0,.07.09.11.12.15-.18.31-.17a.92.92,0,0,1,.23.09c.13,0,.3.18.25.27s-.18.05-.3.08-.2.11-.3.1-.12-.12-.2-.12V9.2c.27.11.56.2.56.56-.13.16-.27.45-.56.38a.45.45,0,0,1-.28-.38s0-.18-.08-.17a.73.73,0,0,0,0,.36.66.66,0,0,0,.32.36.34.34,0,0,1,.19,0,.36.36,0,0,1,.12.35c-.07.12-.24.13-.4.19a9.82,9.82,0,0,1-1.06.3.74.74,0,0,1-.08-.39v-.42a2.49,2.49,0,0,1,.09-.81c0-.06.09-.15.14-.23a.94.94,0,0,1,.16-.23A.34.34,0,0,1,12.15,9c.08,0,.21.19.23.17s0-.12,0-.18.11-.09.08-.14-.11.08-.21.08a.52.52,0,0,1-.26-.1.74.74,0,0,1-.19-.16c-.11-.14-.28-.43-.32-.39s0,.08,0,.13v.1a.15.15,0,0,1,0,.11l-.12.14h-.1l-.61.14-.09-.06h-.11l-.37,0a.81.81,0,0,0-.31,0,5.45,5.45,0,0,1-1.06.25,4.83,4.83,0,0,0-.92.18H7.6A2.62,2.62,0,0,0,7,9.3c-.32,0-.38-.08-.52-.09H6.35a.21.21,0,0,0,0-.06s0-.08,0-.12-.15-.25-.06-.4-.09-.1-.1-.17,0-.06,0-.1a.39.39,0,0,0-.11-.27A1.24,1.24,0,0,0,5.24,8a1.4,1.4,0,0,0-.52.18,1.18,1.18,0,0,0-.37.88v.08a.12.12,0,0,0,.07,0,.65.65,0,0,0,.24,0h0s0,0,0,0a.13.13,0,0,1-.06.14H4.5l-.34.09a1.35,1.35,0,0,0-.56.25,2.5,2.5,0,0,0-.35.56c-.08.11-.37.31-.45.56a2.55,2.55,0,0,1-.24.5.92.92,0,0,0-.09.23v.16c0,.06,0,.11.15.13l.45.06c.16,0,.67,0,.78.06a.39.39,0,0,1,.26.15.61.61,0,0,0,.19.2.39.39,0,0,1,.09.26v.1a.21.21,0,0,0-.07.14.54.54,0,0,0,0,.18v.08c-.15.43-.43.67-.67.65l-.24-.05-.18,0c-.15,0-.09-.24,0-.3a1.84,1.84,0,0,0,.45-.68A1.08,1.08,0,0,1,4,12.26l0,0s0-.1-.06,0a2.12,2.12,0,0,0-.28.36A4,4,0,0,1,2.48,13.8l-.06,0h0a.78.78,0,0,0-.36.6,1,1,0,0,0,0,.24,2,2,0,0,0,0,.6c0,.05.07-.3.19-.28a1,1,0,0,0,.26.16c.12,0,.15.12.13.19h0v.06c0,.18,0,.6-.11.69s-.33-.05-.4-.1h0c-.07,0-.06.05,0,.1a.59.59,0,0,0,.28.15.25.25,0,0,0,.28-.19,3.43,3.43,0,0,0,0-.56,1.39,1.39,0,0,1,.1-.26L2.93,15a1,1,0,0,1,.49-.33,1.15,1.15,0,0,1,.37-.06.85.85,0,0,1,.56.36.75.75,0,0,0,.61.32c.06,0,0-.12,0-.17a.78.78,0,0,1,0-.14l.22-.34.19-.16a4.54,4.54,0,0,1,.38-.38,3.08,3.08,0,0,1,.92-.59,5.06,5.06,0,0,1,1.34-.15,9.75,9.75,0,0,0,1.08,0,2.9,2.9,0,0,0,.59-.09c.06,0,.13-.08.21-.08s.07.05.12.05.1-.1.16-.16a5.19,5.19,0,0,1,.43-.49,1.18,1.18,0,0,1,.93-.42c.08,0,.22.07.23,0s-.09-.09-.13-.14a.43.43,0,0,1-.16-.24.56.56,0,0,1,0-.34.53.53,0,0,1,.3-.09l.63-.15a3.62,3.62,0,0,0,.47-.13.37.37,0,0,1,.25-.07c.1,0,.21.24.26.33a2.43,2.43,0,0,1,.35.85,1.51,1.51,0,0,1,0,.6.36.36,0,0,1-.19.21c-.22,0-.31-.15-.49-.12a.19.19,0,0,0,.11.16l.17.11c.25.1.56.1.56.41a.52.52,0,0,1-.06.3,1.32,1.32,0,0,1-.25.16c-.07,0-.15.16-.27.13s-.07-.15-.13-.19-.19.16-.26.27l-.1.18c0,.07-.08.16,0,.2s.17-.15.26-.2a.92.92,0,0,1,.23-.09,2,2,0,0,0,.64-.36c.24-.17.45-.44.83-.45a2.94,2.94,0,0,1,.82.18c.25.07.52.14.78.19a.71.71,0,0,1,.22.32c.05.12.13.2.06.36s.22.18.2.31-.2.06-.32,0-.18,0-.2-.12.14,0,.19,0a.14.14,0,0,0,0-.15c0-.09-.15-.1-.25-.14a.88.88,0,0,1-.23-.14,1.51,1.51,0,0,1-.11-.22c-.09-.14-.28-.13-.45-.22s-.2-.15-.39-.09l-.14.11a1.31,1.31,0,0,1-.37.15,2.42,2.42,0,0,0-.47.06.62.62,0,0,0-.32.23v.19a.6.6,0,0,1-.22.28,1.16,1.16,0,0,1-.81.35.91.91,0,0,1-.53-.13c-.12-.08-.19-.22-.36-.18a.34.34,0,0,0,0,.31c0,.05.14.12.13.2s-.19.14-.23.17a3.79,3.79,0,0,1-.86.35A4.25,4.25,0,0,1,9.66,16a2.37,2.37,0,0,1-1.79-1c0-.06-.11-.21-.17-.23a1.15,1.15,0,0,0-.37.06c-.09,0-.19.11-.17.17s.15,0,.25,0,.35.12.35.21-.08.07-.07.11.19.09.29.15a.9.9,0,0,1,.29,1.16c0,.06-.15.1-.14.15s.14,0,.19,0a.61.61,0,0,1,.15.3,1.15,1.15,0,0,1-.08.49c0,.13-.14.35-.1.46s.19.1.31.11H9a6,6,0,0,1,1,0c.15.06.18.24.27.37a1.63,1.63,0,0,0,.17.2l.17.2c.05,0,.21.14.15.24s-.25,0-.29,0-.13-.4-.31-.52L10,18.58c-.06,0-.08-.1-.13-.1s-.13.06-.18.09a1.93,1.93,0,0,1-.42,0,1.48,1.48,0,0,1-.42,0c-.05,0-.08-.07-.13-.08a.65.65,0,0,0-.34,0s0,.13-.12.14-.31-.18-.32-.29,0-.14,0-.21a1.58,1.58,0,0,0-.1-.43l0-.12h0a.65.65,0,0,0,0-.13h0a.24.24,0,0,0,0-.14c0-.21.13-.42-.11-.46H7.28a2.28,2.28,0,0,0-.37,0c-.06,0-.08.09-.12.11a.62.62,0,0,1-.33,0h-.1l-.14-.06h0l-.08-.16c-.26-.23-.31-.69-.5-1-.06-.1-.18-.24-.28-.26a2,2,0,0,0-.42.07,1.1,1.1,0,0,1-.47-.1c-.16-.09-.3-.25-.46-.35A1.18,1.18,0,0,0,3.69,15a.93.93,0,0,0-.51.13,1.05,1.05,0,0,0-.28.24c-.14.23,0,.56-.08.87a.45.45,0,0,1-.33.45.73.73,0,0,1-.33-.08c-.06,0-.06.09,0,.12h0a.67.67,0,0,0,.28.06c.09,0,.26-.14.24-.08a.37.37,0,0,1-.31.21.59.59,0,0,1-.23,0h0V17h0a1.1,1.1,0,0,0,.62-.09h0a2.64,2.64,0,0,1,.15.29c.06.09.16.17.15.28-.2.05-.21-.12-.39-.08a.25.25,0,0,0-.19.31.24.24,0,0,0,.13.18c.2.06.25-.12.48-.07a.58.58,0,0,0,.07.21c-.16.35-.32.69-.49,1v0a.19.19,0,0,1,0,.08h0l.16-.32c.05-.1.13-.35.23-.26a.87.87,0,0,1-.11.32l-.21.44a0,0,0,0,0,0,0l0,.09h0c.16-.33.27-.66.42-1a.72.72,0,0,1,.09-.2c.09-.07.13.1.16.16.21.43.4.78.64,1.18,0,.1.12.15.11.28a1,1,0,0,1-.31.43.86.86,0,0,1-.66.15v0l0,.06h.23a1.11,1.11,0,0,0,.87-.77,4.36,4.36,0,0,0,.27-1.12,6.1,6.1,0,0,0-.08-2.13c0-.16-.15-.5,0-.52s.17.14.21.27A6.11,6.11,0,0,1,5,18.51a3.38,3.38,0,0,1-.72,2.09,2.62,2.62,0,0,1-.34.24,1.42,1.42,0,0,1-.33.11c-.1,0-.1-.05,0-.08h0a1,1,0,0,0,.39-.18,1.55,1.55,0,0,0,.31-.36c.05-.1.08-.15,0-.16s-.13.15-.19.22a1.18,1.18,0,0,1-.74.4H3.41v0h0a.43.43,0,0,0,0,.07h0l0,.06h0A1.32,1.32,0,0,0,4,20.79a2,2,0,0,0,.86-1.25A2.26,2.26,0,0,0,6.06,21a1.35,1.35,0,0,0,.69.06,1.71,1.71,0,0,0,1.16-.9,3.77,3.77,0,0,0,.41-1.21,2.76,2.76,0,0,1,.06-.4,5.89,5.89,0,0,1,.84,0c.09,0,.27,0,.28.12a.35.35,0,0,1-.06.14,4.09,4.09,0,0,1-.2.42c-.07.11-.37.25-.34.59,0,.12.1.22.1.34s-.21.24-.23.4,0,.18,0,.25-.19.2-.13.33.22,0,.35,0h1a.94.94,0,0,0,.37,0,.11.11,0,0,0,0-.11h.51c.14,0,.41,0,.42-.08s-.11-.17-.16-.23a.7.7,0,0,0-.2-.18c-.07,0-.16,0-.2-.11a.4.4,0,0,1-.1-.24,1,1,0,0,1,.09-.25,1,1,0,0,0,.06-.33c0-.1.21-.06.28-.11s-.16-.34-.16-.51a.54.54,0,0,1,.09-.25,1.63,1.63,0,0,1,.11-.23c.06-.12.2-.34.33-.33s.13.14.18.22.18,0,.19.12,0,.08-.06.14a.3.3,0,0,0,0,.29,3,3,0,0,0,1,.13s0-.07,0-.09a2,2,0,0,0,.49,0c.18,0,.44,0,.46-.08s-.06-.15-.1-.22a1,1,0,0,0-.15-.2c-.07-.06-.17-.08-.22-.15a2.55,2.55,0,0,0-.28-.45c-.13-.12-.1,0-.16-.09a3,3,0,0,1,.74,0c.1,0,.17.11.27.14s.12,0,.16,0,0,.14,0,.21a.4.4,0,0,0,.18.26,1.21,1.21,0,0,0,.38,0c.2,0,.43,0,.46-.07s0-.2-.09-.27a1.12,1.12,0,0,0-.16-.22c-.14-.12-.25-.09-.33-.23s-.05-.1-.07-.14-.12-.09-.21-.15a.38.38,0,0,0-.13-.09.45.45,0,0,0-.23,0c-.14,0-.28,0-.43,0h-.43a4.12,4.12,0,0,1-.86,0c-.08,0-.18-.07-.18-.11s.16-.15.2-.2a4,4,0,0,0,.39-.43,1.41,1.41,0,0,1,.18-.23c.06-.06.22-.2.29-.2s.12.08.18.13l.19.14a1.36,1.36,0,0,0,.38.24l.45.18a1.46,1.46,0,0,1,.43.22,1.36,1.36,0,0,1,.27.39,1.39,1.39,0,0,1,.15.5.86.86,0,0,0,.1.41.46.46,0,0,0,.37.14c.09,0,.18-.09.29-.13a4.17,4.17,0,0,1,.5,0,3.23,3.23,0,0,1,.44,0,1.19,1.19,0,0,1,.4.14c.1.06.32.11.34.2s0,.14-.05.19a.57.57,0,0,0,0,.26.65.65,0,0,0,.25.11,1.42,1.42,0,0,0,.45.08c.11,0,.28,0,.31-.08s-.06-.24-.11-.32-.25-.17-.31-.31,0-.24,0-.35-.34-.26-.67-.28h-.5l-.49,0a1.08,1.08,0,0,1-.47-.07,1,1,0,0,1-.29-.41.76.76,0,0,1,0-.3,1.67,1.67,0,0,0,.06-.7,2.27,2.27,0,0,0-.06-.25.67.67,0,0,1,0-.31c0-.08.08-.23.16-.23s.08.07.12.11a.79.79,0,0,1,.15.12.48.48,0,0,1,.07.18.75.75,0,0,0,.07.18c.07.09.25.1.21.22s-.13.06-.17.11a.34.34,0,0,0,0,.31.78.78,0,0,0,.21.16l.23.14a1.23,1.23,0,0,1,.44.3c0,.25.05.43.36.4s.41-.05.65-.06h.67c.08,0,.15.06.21.07s.23,0,.24.07-.06.11-.07.17a.38.38,0,0,0,.15.32l.24,0a2.17,2.17,0,0,0,.51,0c.22,0,.07-.17,0-.29s-.08-.14-.13-.2-.19-.1-.24-.18a.62.62,0,0,1-.06-.14.58.58,0,0,0-.18-.23,1.2,1.2,0,0,0-.77-.07,3,3,0,0,1-.73,0,.71.71,0,0,1-.42-.41c0-.14.11-.26.12-.39s-.12-.47.06-.56l.15,0c.19-.06.37-.19.56-.15s0,.28.11.43.1.09.16.13.15.08.15.16-.09.06-.12.1a.43.43,0,0,0-.06.27,1.08,1.08,0,0,0,.39.25c.15.06.4.16.51.11s0-.25,0-.37a.72.72,0,0,0-.09-.2.46.46,0,0,1-.08-.19v-.26c0-.08-.14-.14-.2-.22s-.06-.13-.08-.19-.21-.22-.23-.34c.34,0,.93,0,1,0s.14.22.17.35.2.08.18.17-.09,0-.14.08a.49.49,0,0,0,0,.24c0,.09.27.19.34.24s.3.21.38.18.07-.11.08-.2a2.31,2.31,0,0,0-.08-.74.92.92,0,0,0-.23-.25l-.23-.24c.34-.15.63-.5,1.12-.35-.13.17,0,.26.13.33a1.8,1.8,0,0,0,.75.25c.09,0,0-.38,0-.56a1,1,0,0,1,.47-.14.71.71,0,0,1,.4.21s.05.13.11.19.23.09.26.2a.3.3,0,0,0-.07.31,1.1,1.1,0,0,0,.68.21,1,1,0,0,0-.08-.56c0-.07-.11-.1-.14-.17a1.39,1.39,0,0,0-.17-.38.58.58,0,0,0-.34-.11,1.27,1.27,0,0,1-.32-.13,3.62,3.62,0,0,0-.32-.22c-.33-.11-.35,0-.38-.09s.1-.12.16-.17l.17-.17A1.06,1.06,0,0,1,23,14a1.06,1.06,0,0,1,.25-.09c.24,0,.34.22.51.26s.32-.07.39,0,0,.34.14.42a.87.87,0,0,0,.39,0c.1,0,.28,0,.29-.11s-.06-.19-.1-.25M11.63,8.77a.15.15,0,0,1,.15.11c0,.13-.14.2-.19.29s-.07.43-.15.69-.13.23-.14.34a1.42,1.42,0,0,0,.07.42c0,.16.07.3.08.41s0,.24-.16.24a2.22,2.22,0,0,1-.12-.39,2,2,0,0,1-.1-.59,4.68,4.68,0,0,1,.16-.83c0-.12.08-.24.13-.36s.14-.31.25-.32m-.33.13,0,.09h0a2.64,2.64,0,0,0-.24.83v.59a6,6,0,0,0,0,.85c-.07.08-.2.09-.31.12a22.71,22.71,0,0,1-2.46.47A10.6,10.6,0,0,1,6,11.74l-.37,0H5.36s0,0,0-.08A6,6,0,0,0,5.86,11a5.62,5.62,0,0,0,.25-.56.31.31,0,0,1,.11-.09,1.29,1.29,0,0,1,.67-.12c.45,0,.56-.09.81-.09A1.39,1.39,0,0,0,8.59,10a4.09,4.09,0,0,1,1.12-.52c.23,0,.39.15.56.14a.91.91,0,0,0,.31-.09s.11,0,.15-.14.07-.19,0-.25L11.28,9m-.83,2.82.48-.09s0,0,0,.05-.13.07-.19.08A23.06,23.06,0,0,1,8,12.17H7.56a1.7,1.7,0,0,1-.5-.05,9,9,0,0,1,1,0,6.38,6.38,0,0,0,1-.1l1.38-.22m-.9.11.15,0,.85-.19a2.7,2.7,0,0,1,.39-.08.11.11,0,0,1,0,.08,13,13,0,0,1-1.39.24M5.38,12l.09,0h.38c.08,0,.23,0,.22,0a2.12,2.12,0,0,1-.67,0H5.33s0,0,0,0m.29-.14H5.51s0,0,0-.06a3.31,3.31,0,0,1,.83.1c0,.05-.08,0-.12,0s-.32,0-.51-.05m-.41.35c.12,0,.3,0,.43,0a4.93,4.93,0,0,1,.78.06s-.14,0-.21,0H6l-.44,0-.21,0H5.24v0m1.12-2.8h.25l.21.05a.19.19,0,0,0,.18,0,1.56,1.56,0,0,1,.43,0,1.24,1.24,0,0,0,.33,0,5,5,0,0,0,.69-.17A5.17,5.17,0,0,1,9,9.21l.33-.09A4.26,4.26,0,0,1,10,8.9h.38a.83.83,0,0,1,.21.06s.06,0,0,.09a.37.37,0,0,1-.17,0H10.3l-.18.14a.13.13,0,0,1-.12,0l-.19-.1h0a3.45,3.45,0,0,0-.42.14L9,9.52a2,2,0,0,1-.87.32.51.51,0,0,1-.35-.11.15.15,0,0,0-.13,0,1.93,1.93,0,0,1-.83.12c-.26,0-.15-.19-.24-.19a1.46,1.46,0,0,0-.37.23.12.12,0,0,1-.14,0,.3.3,0,0,1,0-.15V9.67H6l.14-.05s.08-.07.09-.1a.09.09,0,0,0,0-.07v0a.14.14,0,0,1,.13-.06M6,8.9c.07,0,.07-.07.1-.1l.14.08c0,.06.08.13,0,.19s-.08,0-.08.06a.48.48,0,0,1-.08.16c0,.05.09,0,.1.07a.25.25,0,0,1,0,.17.42.42,0,0,1-.22,0l-.22,0a0,0,0,0,0-.06,0h0v.1h0a0,0,0,0,0,0,0c0,.05,0,.09,0,.13H5.5s0,.07,0,.09h0a.17.17,0,0,1-.12,0,.35.35,0,0,1-.13-.08h0l-.06-.08a2.18,2.18,0,0,0-.25-.28V9.39a.24.24,0,0,1,.16-.2.59.59,0,0,1,.51.1h0l0-.18a.55.55,0,0,1,.14-.56.43.43,0,0,1,.19-.13.19.19,0,0,1,.19,0,.17.17,0,0,1,.06.14v0s-.12,0-.17,0a.57.57,0,0,0-.16.15.47.47,0,0,1,.2.06m-1.33,0a.19.19,0,0,1-.09-.14c-.06-.22.09-.38.24-.53L5,8.14A1.56,1.56,0,0,1,5.75,8a.37.37,0,0,1,.35.13c.07.12-.1.07-.16.08a1.76,1.76,0,0,0-.62.46.69.69,0,0,1-.65.22m0,.61a.24.24,0,0,1,.14,0,.11.11,0,0,1,.08,0s.05,0,.13.16a.45.45,0,0,0,0,.1l0,.09a.4.4,0,0,0,.16.13l.09,0h.15a.34.34,0,0,0,.23-.11l.08-.07a.35.35,0,0,0,.06-.14s0,0,.06,0h0a1.46,1.46,0,0,1,0,.17,1,1,0,0,1,0,.53,2,2,0,0,1-.42.81c-.09.09-.21.16-.14,0A.35.35,0,0,0,5.44,11a1.05,1.05,0,0,0,0-.19c0-.06,0,0-.06,0a1.13,1.13,0,0,1-.33.5.54.54,0,0,1-.2.1H4.74l-.18,0s0,0,0-.05a1.56,1.56,0,0,0,.15-.17A1.21,1.21,0,0,0,4.87,11a2,2,0,0,0,.23-.51c0-.07,0-.07,0,0a3.4,3.4,0,0,1-.31.52,3.51,3.51,0,0,1-.37.4.17.17,0,0,1-.19,0,1.66,1.66,0,0,1-.33-.15s0-.05,0-.07a6.67,6.67,0,0,0,.93-1.12.52.52,0,0,0,0-.25.5.5,0,0,0-.12-.28L4.6,9.5V9.45m-.42,2.43c-.18,0-.31-.1-.48-.12l-.53-.06a.47.47,0,0,1-.2-.06l-.14-.1s-.14-.08-.12-.16a1.23,1.23,0,0,1,.12-.26A1.15,1.15,0,0,1,3,10.87c.08-.1.36-.28.4-.36a1.24,1.24,0,0,1,.09-.33.89.89,0,0,1,.82-.54c.14,0,.47,0,.39.39a1,1,0,0,1-.06.16,2.43,2.43,0,0,1-.24.32.58.58,0,0,1-.43.18s0,0-.06.05a.92.92,0,0,1-.26.35,1.28,1.28,0,0,1-.25.15.92.92,0,0,1,.23.09c.15.07.4.21.51.25a1,1,0,0,0,.33.09,1.86,1.86,0,0,0,.34-.07H5a.1.1,0,0,1,.08.05.31.31,0,0,0,.11.09l.1,0,.05,0a0,0,0,0,1,0,0h0a.06.06,0,0,1-.08,0H5a.2.2,0,0,1-.22.05c-.16,0-.23-.08-.29-.08a.65.65,0,0,1-.34,0M2.59,15a.52.52,0,0,1-.44-.56.81.81,0,0,1,.42-.65,1.12,1.12,0,0,1,.51-.06,3.66,3.66,0,0,1,.56.1,1,1,0,0,0,.34,0,1.57,1.57,0,0,0,.3-.05.09.09,0,0,1,.09,0s0,.07-.07.09A.51.51,0,0,1,4,14H3.64c-.11,0-.47-.11-.56-.12a.82.82,0,0,0-.41,0,.74.74,0,0,0-.34.53.4.4,0,0,0,.14.32.29.29,0,0,0,.16.07.15.15,0,0,1,.13,0c.05,0,0,.09,0,.1s0,0-.15,0m.59-.37h0l-.27.1a.37.37,0,0,1-.27-.06c-.06,0-.06-.18,0-.26s.31-.52.51-.48a3.86,3.86,0,0,1,.5.12h.06c.08,0,.45.12.22.31a1.78,1.78,0,0,1-.29.12,1.27,1.27,0,0,0-.38.11m7.13-2a1.33,1.33,0,0,1-.76.51c-.27.05-.58.06-.9.09l-.94.07a4.91,4.91,0,0,0-.94.09,1.78,1.78,0,0,0-.4.17l-.24.17c-.09,0-.13-.23-.08-.37A.58.58,0,0,0,6.14,13a.79.79,0,0,0-.1-.34c0-.05,0-.09,0-.1a.07.07,0,0,0-.09,0v0a.24.24,0,0,0,0,.12,1.12,1.12,0,0,1,.05.31.63.63,0,0,1-.09.33.09.09,0,0,0,0,.07v.35c0,.06,0,.15,0,.18h0l-.17.15h0s-.09-.14-.09-.19a1.41,1.41,0,0,0,0-.29v-.15s0-.1,0-.05a.58.58,0,0,0,0,.32v.37a.27.27,0,0,1,0,.23h0s0,0,0,0l-.1.12s-.09,0-.1,0a2.2,2.2,0,0,0,0-.48V13.6s0-.15-.06-.14,0,.13,0,.2a6.37,6.37,0,0,1,0,.88c0,.21,0,.32-.09.39s-.19.05-.19-.09a3,3,0,0,0,0-.6v-.75s0-.07-.06,0a.33.33,0,0,0,0,.14c0,.07,0,.53,0,.62a2.27,2.27,0,0,1,0,.52.06.06,0,0,1-.09.06s-.07,0-.07-.12,0-.32,0-.49V12.84l0,0a.26.26,0,0,1,.15,0s.12,0,.13.07a.67.67,0,0,1,0,.34c0,.11-.12.16-.12.19s0,0,.1,0A.53.53,0,0,0,5,13.1a.43.43,0,0,0-.07-.25c-.06-.09-.12-.11-.12-.14s0-.21.08-.23a.22.22,0,0,1,.16,0,.35.35,0,0,1,.23.33,1.13,1.13,0,0,1-.11.41.25.25,0,0,1-.08.14v.05a0,0,0,0,0,0,0h0a.5.5,0,0,0,.22-.31,1.34,1.34,0,0,0,0-.35.86.86,0,0,0,0-.23.28.28,0,0,0-.09-.1,5.52,5.52,0,0,0,.71.1H6c.36,0,.82-.14,1.17-.17s.81-.05,1.2-.11c.56-.08,1.16-.13,1.73-.24.23,0,.69-.17.68-.1a.59.59,0,0,1-.1.17c-.13.18-.26.38-.4.56m.43-.33c-.05,0,0-.11,0-.15a1,1,0,0,1,.19-.16s.06,0,.05,0-.21.32-.26.28m.56-.62s0-.08,0-.11.12,0,.14,0-.08.14-.12.12m1.19-.56A33.81,33.81,0,0,1,8.12,12a2.9,2.9,0,0,1-.72,0s.11,0,.15,0c.41,0,.83-.1,1.22-.17s.9-.16,1.35-.25c.88-.17,1.73-.41,2.55-.62,0,0,.11,0,.11,0s-.22.11-.29.12m2-2.24c.12-.09.33-.28.37-.27s.06.16,0,.21-.08,0-.12,0c-.19.08-.32.46-.42.41s.08-.28.15-.38m-1,.37c0-.12.25-.13.41-.11a1.32,1.32,0,0,1,.48.26l.23.13a1.26,1.26,0,0,1,.34.13.91.91,0,0,1,.18.21c0,.2-.19.18-.28.1s-.05-.13-.11-.15a.39.39,0,0,0-.26,0c-.06,0,.09.09.1.16a.85.85,0,0,1,0,.16v.11s-.14.17-.21.12.07-.13.07-.22a1.41,1.41,0,0,1-.41,0,.82.82,0,0,1-.37-.29c-.06-.08-.13-.13-.12-.23s.16,0,.23,0-.1-.14-.17-.18a.2.2,0,0,1-.1-.2m-.11,1.45c0-.05.09-.15.11-.17s.69-.16.73-.08-.3.25-.51.29-.31,0-.33,0M8,19c0,.06-.07.33-.13.33s-.1-.15-.13-.2-.1-.15-.14-.23.1,0,.17,0a1.2,1.2,0,0,0,.19,0v0h0M3.09,16.8h0a.1.1,0,0,1,0-.05s.05-.08.08-.12a.82.82,0,0,0,.12-.2,4.94,4.94,0,0,0,.13-.52h0v-.07s0-.07.07-.11h0a.16.16,0,0,1,.08-.06.11.11,0,0,1,.1,0,.56.56,0,0,1,.06.31v.09h0v.16a2.47,2.47,0,0,1-.18.52c0,.12-.09.43-.21.49s-.2-.08-.25-.18A.53.53,0,0,1,3,16.85v0m.87-1c-.1,0-.13-.34,0-.3s0,.25,0,.3m-.3,1.22a6.64,6.64,0,0,1,.3-.81c0-.08.06-.23.18-.22s0,.31-.06.45a4.88,4.88,0,0,1-.26.82s-.07.16-.14.11,0-.26.06-.36m1.68-.89a.1.1,0,0,1,.05,0l0,.07s-.19.35-.23.34.07-.26.13-.37m.68.76h0l.05,0h0l.11.05s0,.05,0,.08l.08.21a.71.71,0,0,1,.1.31.45.45,0,0,1-.28,0,3.75,3.75,0,0,1-.82,0,1.64,1.64,0,0,1,.35-1l.13.1.19.13m.42.19.12,0,.06.1v.07h0a.75.75,0,0,1,0,.26c-.12,0-.17-.11-.21-.19l-.07-.15c0-.06,0-.12-.07-.17l.09,0m.7.38h.08a.56.56,0,0,1-.13.28.16.16,0,0,1-.09,0v-.05H7m.3-.17h0l0,0h0a1.18,1.18,0,0,1,.12.64h0L7.37,18a.94.94,0,0,1-.06-.15,1.11,1.11,0,0,1-.08-.35v-.06m.32,1.39s-.2-.05-.21-.12a.11.11,0,0,1,.08-.11h0c.06,0,.15.16.09.23m-.27-.74a.51.51,0,0,1,0,.24c0,.1-.09.2-.1.29a.38.38,0,0,1-.08-.17,1,1,0,0,1,.05-.16A.94.94,0,0,0,7.25,18a.32.32,0,0,0,0,.09m-.19,0a1.22,1.22,0,0,1-.27,0,.67.67,0,0,1-.06-.28c.06,0,.2,0,.3,0a.39.39,0,0,1,0,.3m.06-.83h0v0h0v0h0v0a.19.19,0,0,1-.24.07c-.08,0-.1-.11-.13-.2h0v0h0v0h0a4.1,4.1,0,0,1,.49.06v.05m-.36.52c-.09.07-.18,0-.28,0H5.36v-.07a5.65,5.65,0,0,1,.92,0l.52-.05a.13.13,0,0,1,.12.13.08.08,0,0,1,0,0M5.35,16.64a2.41,2.41,0,0,1,.15-.33l.17.28c0,.09-.14.27-.21.38a.14.14,0,0,1-.17,0s0,0,0,0a.62.62,0,0,1,.08-.35m0,1.35h0c.42,0,.83,0,1.25.05a.56.56,0,0,1,0,.12s.05.09.05.12a.91.91,0,0,1-.11.22c-.23.44-.45.83-.7,1.27a.85.85,0,0,1-.14.19c-.07,0-.13-.17-.15-.23a2.64,2.64,0,0,1-.1-.27,2.78,2.78,0,0,1-.17-.56,3.1,3.1,0,0,1,0-.86m.56,1.91.65-1.16c0-.05.07-.19.12-.22a.07.07,0,0,1,.09,0h0a1,1,0,0,1-.1.21c-.2.4-.41.77-.64,1.17,0,0-.07.17-.15.15s0-.17,0-.19m.2.07c.16-.38.42-.71.6-1.07.08-.16.13-.42.26-.49s.13.06.17.14c.15.3.23.51.39.82,0,.1.15.22.14.34a1,1,0,0,1-.2.44.88.88,0,0,1-.62.44,1.07,1.07,0,0,1-.66-.11A.33.33,0,0,1,6,20.25a.77.77,0,0,1,.1-.25m1.22-1.24c0-.07-.15-.32,0-.3s.11.19.14.24l.25.5c.06.13.16.25.1.39s-.1-.07-.13-.12a4.25,4.25,0,0,1-.35-.71M5.21,16A.16.16,0,0,1,5,16H5c0-.21.27-.22.21,0m-2-.24a.92.92,0,0,1,.31-.39.52.52,0,0,1,.28-.05c.38,0,.63.36,1,.38h.29c0,.07-.13.09-.2.09a.88.88,0,0,1-.51-.09c-.22-.12-.31-.28-.65-.23a.74.74,0,0,0-.33.22l-.09.18c0,.05-.05.18-.1.17s0-.21,0-.27m-.36.68a3.15,3.15,0,0,0,0-.53,0,0,0,0,1,0,0c.1,0,.11.3.09.44a.6.6,0,0,1-.16.34c-.11,0,0-.12,0-.21m.13.78c0-.09-.08-.14-.11-.21A.39.39,0,0,1,3,16.9a1.28,1.28,0,0,0,.11.2c0,.06.12.14.12.19a.11.11,0,0,1-.1.1h0S3,17.24,3,17.19m.32.67c-.13,0-.26,0-.38,0s-.09.08-.16.08-.17-.32,0-.33.11.06.17.07.41-.07.41.09,0,.05,0,.09m.32.22a.31.31,0,0,1-.19,0c-.11-.08,0-.25,0-.39s-.13-.12-.11-.21.25,0,.3.09.11.14.18.16h.53a.65.65,0,0,1,.34,0,.14.14,0,0,1,0,.09,2.62,2.62,0,0,1-.56,0,.71.71,0,0,0-.29,0c-.08,0-.1.17-.2.2m.76,1.66c-.08,0-.15-.2-.18-.26s-.2-.37-.3-.56-.15-.23-.13-.31.19.17.23.25.22.4.34.56.23.31,0,.31m.34-1.28a5.56,5.56,0,0,1-.08.7c0,.12,0,.27-.12.28s-.18-.18-.24-.26l-.37-.63a.72.72,0,0,1-.13-.38c0-.16.29-.14.48-.15s.39,0,.45.07a2.29,2.29,0,0,1,0,.37m-.09-1.63c0,.14.07.24.08.39a.8.8,0,0,1,0,.41.28.28,0,0,1-.18.06,3.26,3.26,0,0,1-.62,0c-.14-.14-.05-.37,0-.56s.17-.42.26-.65.09-.33.18-.31.14.21.17.31a2.49,2.49,0,0,1,.09.37m3.72,2.58a2.44,2.44,0,0,1-.39,1,2.74,2.74,0,0,1-.72.64L7.06,21s-.14.07-.16,0,.14-.11.2-.16a3.79,3.79,0,0,0,.4-.3s.16-.15.13-.18-.12.05-.16.09a1.17,1.17,0,0,1-.7.37.91.91,0,0,1-.43-.05s-.2-.08-.23,0,.18.1.19.19-.2,0-.25-.06a2.08,2.08,0,0,1-.88-1.12c0-.07-.09-.22,0-.24s.06.07.08.12c.12.21.27.44.4.65s.18.24.21.22-.15-.26-.23-.4-.23-.36-.2-.41.11.12.14.19a1.7,1.7,0,0,0,.69.74.89.89,0,0,0,1.06-.1,2.56,2.56,0,0,0,.79-1.29c0-.12.08-.33.19-.34s.11.29.09.45m.9.42c0-.06.12-.14.16-.19s.26-.47.38-.62c0,0,.06-.06.08-.06S10,19,10,19s-.05.15-.07.23,0,.14-.06.19-.3.2-.32.36.05.14,0,.21a.14.14,0,0,1-.13.1c-.09,0-.2-.18-.19-.3m0,1.19c0-.07.13-.31.28-.3s.18.1.18.16-.41.21-.46.14m.75-.25a.36.36,0,0,1-.33-.23.33.33,0,0,1,.21-.23c.12,0,.24.37.12.46m0-.59c-.13,0-.28-.19-.24-.34l.18-.21h0l.21.08c0,.24-.11.32-.17.49m.84.64c0,.11-.1.15-.22.12s-.16-.06-.16-.13h0c0-.08.33-.07.37,0m-.37-.5c0,.06-.09.15-.2.09-.1-.24,0-.46.06-.68l.31,0a.76.76,0,0,1-.17.56m3.79-2.14c0-.08.17-.13.28-.1a.22.22,0,0,1,.13.08c.1.16-.37.2-.41.07a0,0,0,0,1,0-.05m4.12-.55h.49s.33-.05.31.07-.36.11-.45.12h-.29a1.27,1.27,0,0,1-.39,0,.11.11,0,0,1-.1-.09s.32-.07.43-.08m5.11-2.52c.05-.09.37.07.3.2s-.35-.13-.3-.2m-2.31-2.45a.41.41,0,0,0,.11.07c.06,0,.16,0,.18.11s-.1.2-.15.24-.13.08-.12.13.21,0,.25,0a.42.42,0,0,1,.25.06.34.34,0,0,1,.13.3,1,1,0,0,1-.13.37s-.14.17-.2.18a.82.82,0,0,1-.3-.12,5.69,5.69,0,0,0-.56-.26.75.75,0,0,0-.44-.1l-.28.13a.76.76,0,0,1-.3.1c-.11,0-.21-.16-.25-.29a3.07,3.07,0,0,1-.07-.42,1,1,0,0,1-.1-.28,1,1,0,0,1,.06-.25.83.83,0,0,1,.05-.34,2.22,2.22,0,0,0,0-.37v-.16a.77.77,0,0,1,.26-.07,3.46,3.46,0,0,0,.79-.16,4.69,4.69,0,0,0,.45-.18,4.14,4.14,0,0,1,.43-.2c.1,0,.16,0,.21.12l0,.06a1.83,1.83,0,0,1,.18,1,.32.32,0,0,1-.13.26c-.16.08-.43-.07-.47,0s.06.07.09.09m-1.68-1.12c.2,0,.43-.06.64-.09s.76-.24.8-.22-.09.08-.14.1a2.4,2.4,0,0,1-.9.27c-.2,0-.56.08-.56,0s.11-.07.17-.08m2.8-1.09a3.74,3.74,0,0,1-.52.28c-.08,0-.2.14-.29.11h0l0-.07a1,1,0,0,1-.11-.3c0-.09.17-.15.27-.21a.9.9,0,0,1,.32-.17.75.75,0,0,1,.49,0c.05,0,.09.06.09.1s-.13.18-.18.22M21.65,9a3.83,3.83,0,0,1,.56.22,5.09,5.09,0,0,1,.5.3c.09.06.22.11.19.25s-.09.11-.16.15l-.08.05a.8.8,0,0,1-.47-.1c-.12,0-.11-.18-.19-.25s-.12,0-.11-.09S22,9.5,22,9.51s.25.1.28.07-.15-.13-.25-.16l-.42-.21c0-.05-.05-.14,0-.18m-1.73.28A.24.24,0,0,1,20,9.19c.1.09.21,0,.28,0a1.15,1.15,0,0,1,.37,0c.1,0,.06.1.1.11s.07-.05.08-.07-.06-.13-.09-.13a.16.16,0,0,1-.1-.19s.14,0,.2,0,.05-.08.09-.11.19,0,.31,0,.3.06.29.17a.13.13,0,0,1-.09.11c-.1,0-.24,0-.28.05s.24.14.33.28a.77.77,0,0,1,.09.47.63.63,0,0,1-.41.34l-.12.05c-.18,0-.2-.18-.27-.3-.2,0-.06.2,0,.32s.27.41.39.62h0a.2.2,0,0,1,0,.11c0,.09-.32.16-.42.19a6.55,6.55,0,0,1-1.52.33.24.24,0,0,1-.08-.09.19.19,0,0,0,0-.13v-.13c.05-.11.16-.11.32-.15s.15-.09.25-.07h0l.05,0L20,11h0c.11.06.23.11.26.09s0-.12,0-.17.19,0,.28,0,.08-.14.09-.24.08-.09.09-.15a.74.74,0,0,0-.16-.34,6,6,0,0,0-.51-.5c-.08-.07-.23-.19-.23-.27s.07-.12.1-.16m-.37.22c0-.08.24.08.34.17a5.22,5.22,0,0,1,.48.46c.07.09.2.16.17.28h-.3c-.07,0-.05.12-.09.16s-.17-.1-.25-.17a2.54,2.54,0,0,1-.24-.2.24.24,0,0,1-.08-.15c0-.07.12-.1.13-.17s-.21-.28-.16-.37m.06,1.12h.06c0,.17-.12.21-.26.25s-.22.1-.29,0h0v-.06c0-.07-.12-.22-.1-.28s.12-.05.2-.05a1.32,1.32,0,0,1,.44.08M18,9.14c.12,0,.19-.13.31-.13a.4.4,0,0,1,.2.09c.05,0,.08.12.14.15h.18a.67.67,0,0,1,.2.12c.07.06.17.11.18.21A.56.56,0,0,1,19,10c-.07.09-.12.18-.25.21a.61.61,0,0,1-.56-.31.49.49,0,0,1,0-.16c0-.09.09-.18,0-.21s-.1,0-.12.09a.53.53,0,0,0,0,.35,1.55,1.55,0,0,0,.24.33,2.42,2.42,0,0,1,.31.25,1.11,1.11,0,0,1,.17.3.25.25,0,0,1,0,.17c-.05.1-.34.17-.48.2-.37.09-.75.17-1.12.24-.2,0-.4.06-.6.07,0,0,0,0,0,0s.06-.19.1-.19.2.21.33.05-.07-.09,0-.16.22,0,.28,0a.31.31,0,0,0,.23-.15v-.13a1,1,0,0,0,.06-.23,1.37,1.37,0,0,0-.09-.49c-.05-.15-.19-.26-.16-.46a1,1,0,0,1,.2-.34l.11-.15a.91.91,0,0,1,.11-.16c.07-.06.29-.12.3,0m-1.75,2.24v0c0-.09.15-.11.21-.11s0,0,.05,0,0,0,0,0a.42.42,0,0,1-.15.22.61.61,0,0,1-.12-.15m.51.21.81-.13a9.56,9.56,0,0,1,1-.23s-.13.09-.21.11a6.12,6.12,0,0,1-1.75.35h-.12a1.54,1.54,0,0,1,.24-.07m.48-2.33a1.35,1.35,0,0,1,.47-.56c.06,0,.15.05.15.1s-.13.18-.18.23a2.61,2.61,0,0,0-.46.75c-.25-.06-.06-.3,0-.46m-.71.66c.09,0,.19.1.22.07s-.1-.19-.14-.3a.22.22,0,0,1,0-.16c0-.08.23,0,.31.07a2.42,2.42,0,0,1,.52.78.85.85,0,0,1,0,.17c0,.06,0,.15-.06.15s-.06-.13-.11-.13,0,.3-.15.34-.12-.06-.14-.11a2.6,2.6,0,0,1,0-.28c0-.08-.11-.1-.18-.16a1.25,1.25,0,0,1-.16-.17.75.75,0,0,1-.15-.16V10m-.56.7a2,2,0,0,0,.42.09c.07.07.17.12.17.24v.08l0,0a1,1,0,0,1-.34,0s-.05,0-.08-.07h0a2.53,2.53,0,0,1-.18-.37,0,0,0,0,1,.06,0m-1.92.72c.51,0,1.08-.05,1.56-.1.09,0,.19,0,.27,0s.09,0,.1.05-.13.06-.16.07c-.44.06-1,.05-1.45.09-.16,0-.49,0-.5,0s.13-.06.18-.06m2.51,2.36a.49.49,0,0,1-.24,0c-.42-.08-.85-.26-1.25-.32a.86.86,0,0,0-.32,0c-.11,0-.18.1-.32.11s0-.3-.08-.46-.1-.16-.13-.25a2,2,0,0,1-.06-.26,4.47,4.47,0,0,0-.14-.8h0v-.07c0-.11.27-.12.41-.13l1.44-.11a.29.29,0,0,1,.22.06.24.24,0,0,1,.08.09v.06a1.83,1.83,0,0,1,.11.61c0,.23,0,.5-.15.59a.42.42,0,0,1-.27,0c-.05,0-.12,0-.15,0s.08.06.12.07l.15.06a3,3,0,0,1,.32.11.55.55,0,0,1,.24.3.37.37,0,0,1,0,.29m.17-.35a.72.72,0,0,0-.12-.21,1.43,1.43,0,0,1-.14-.2c0-.06.07-.26.07-.4s0-.47,0-.66v0h0l.56-.11.56-.1c.36-.07.71-.19,1.05-.25h.23a.28.28,0,0,1,.13.11.38.38,0,0,0,0,.18,2.43,2.43,0,0,1,0,.66,2.11,2.11,0,0,1-.07.3c0,.11,0,.35-.18.4a1.07,1.07,0,0,1-.56-.09c0,.25.4.19.6.27a.37.37,0,0,1,.17.2.31.31,0,0,1,0,.28c-.16,0-.23-.11-.32-.17a1.28,1.28,0,0,0-.42-.17c-.12,0-.24,0-.37.05h-.19a1.22,1.22,0,0,0-.41.27c-.07.06-.27.29-.37.31a.31.31,0,0,1-.13-.06,3.63,3.63,0,0,0-.09-.56M17,14.54c0-.1-.08-.2-.06-.3s.15-.15.21-.18l.22-.17a1.38,1.38,0,0,1,.47-.31h.44a.81.81,0,0,1,.51.18l.21.14c.17.1.35.16.49.25a.57.57,0,0,1,.11.11.43.43,0,0,1,0,.22,1.17,1.17,0,0,0,.1.26c.06.08.26.24.14.33s-.31,0-.38-.05-.15-.13-.12-.2.16,0,.19-.08-.07-.21-.12-.23-.21,0-.27-.07-.18-.24-.29-.3-.13,0-.18-.06-.18-.18-.31-.16-.16.14-.23.17a.76.76,0,0,1-.3.05.55.55,0,0,0-.38.08.24.24,0,0,0-.06.11,1,1,0,0,1-.23.26.23.23,0,0,1-.2,0m2,.06c.07-.05.12,0,.18.1a.44.44,0,0,0-.17.35.67.67,0,0,1-.19,0,.53.53,0,0,1,.18-.4m-.38.25c-.17.08-.32-.06-.52-.08h-.32a.7.7,0,0,1-.43-.15.48.48,0,0,1,.16-.19.77.77,0,0,1,.21-.14h.17a1.19,1.19,0,0,0,.49-.13c.1-.05.15.07.21.13a1.59,1.59,0,0,0,.27.18c-.08.11-.1.31-.24.37m-2,.56.29.09c.08,0,.08,0,.1,0a.45.45,0,0,1-.38.16.59.59,0,0,1-.19-.13c-.08-.06-.17-.1-.19-.2s.24,0,.37,0m-2.24-.74a.83.83,0,0,1,.56-.4h.22c.07,0,.18-.07.26-.08a1,1,0,0,1,.51.17.42.42,0,0,1,.09.14c.07.08.22.14.23.23s0,.08-.1.13-.05.09-.1.1a.67.67,0,0,1-.24,0l-.45-.09-.24,0c-.13,0-.22.14-.33.17a1.29,1.29,0,0,1-.48,0c-.11-.12,0-.23.06-.31M10.9,17.87a.34.34,0,0,1-.2,0s.05-.09.11-.09.11,0,.09.07m-1-1c.06-.16.15-.36.28-.41a1,1,0,0,1,.59,0c.13,0,.07.36,0,.56a1.68,1.68,0,0,1-.56.85c-.56.06-.5-.56-.36-1M9,18c0,.1-.22.15-.33.1s-.2-.14-.17-.24a.44.44,0,0,1,.06-.16c.05-.07.06-.17.16-.17s.11.07.16.16A.48.48,0,0,1,9,18m1.45.62c-.08,0-.11-.15-.09-.2s.2-.08.23,0a.18.18,0,0,1-.14.19m.5.16c-.05.1-.07.21-.14.22a.25.25,0,0,1-.19-.29A.51.51,0,0,1,11,18.4l.05,0c0,.14-.1.2-.15.3m.92-.34c-.22,0-.32-.18-.45-.23h-.61a2.29,2.29,0,0,1-.64,0A.93.93,0,0,0,9.81,18c-.19,0-.49,0-.62,0s-.09-.31-.08-.49a1.44,1.44,0,0,0-.34-1.16s-.12-.1-.12-.16.23,0,.3,0,.5.11.63.22,0,.61,0,.9v.24a.88.88,0,0,0,0,.23c0,.1.26.13.41.14A6.17,6.17,0,0,0,11,17.86h.26a.94.94,0,0,1,.41,0,.75.75,0,0,1,.2.15c.05,0,.14.12.14.21a.19.19,0,0,1-.15.15m.84.37h0a.19.19,0,0,1-.15,0,.28.28,0,0,1-.13-.11.15.15,0,0,1,0-.13c0-.09.11-.1.21-.11s.17.19.11.35m.18-.56c0,.09-.24.13-.35.13s-.44,0-.39-.13.29-.07.39-.07.34,0,.35.07M12,17.62a2,2,0,0,0,.49,0c.33,0,.65,0,1,0a1.85,1.85,0,0,1,.47,0c.11,0,.25.14.21.24s-.15.06-.23,0a.43.43,0,0,0-.33-.14c-.18,0-.24.06-.4.08s-.56,0-.85.06-.43.08-.56,0-.1-.31-.25-.31-.1.07-.14.1a.26.26,0,0,1-.16.09.33.33,0,0,1-.26-.22,2.62,2.62,0,0,1,.15-.38c0-.15,0-.43.09-.56s.23-.18.34-.09a1,1,0,0,1,.13.68c0,.08-.08.14-.07.22a.62.62,0,0,0,.4.26m.56-1.28a1.08,1.08,0,0,0-.19.17,2.39,2.39,0,0,1-.22.23.31.31,0,0,1-.2.07c-.1,0-.17-.18-.21-.28l-.06-.2a1.06,1.06,0,0,1-.06-.19c0-.23.15-.28.3-.38s.14-.13.25-.15.11.07.16.12l.28.27c.06,0,.12.1.12.14s-.11.13-.17.17m2.54.83c-.05-.1-.31-.16-.34-.3s.19-.2.22-.38c-.26,0-.56.09-.85.07a1.19,1.19,0,0,1-.56-.14c-.09,0-.34-.2-.32-.35s.12-.13.2-.17a3.62,3.62,0,0,1,.56-.17l.59-.16a.61.61,0,0,1,.47.1c.1,0,.18.09.19.17a.46.46,0,0,1-.08.3c0,.08-.13.14-.12.23s.09,0,.13.05.23.39.23.64,0,.56-.17.56-.11-.3-.17-.44m.56,1a2.65,2.65,0,0,0,.56,0h.85l.38,0h.27a.26.26,0,0,1,.13.3c-.1,0-.17-.11-.21-.11s-.2.12-.34.09-.2-.12-.34-.12-.44,0-.66,0H16a1.73,1.73,0,0,0-.32,0c-.08,0-.13.07-.21.06s-.16-.44-.07-.49.25.21.34.26M16.28,16a.62.62,0,0,0-.14-.14,1.12,1.12,0,0,0-.29-.21c-.13-.06-.28-.06-.4-.11s-.28-.2-.52-.19a1.86,1.86,0,0,0-.47.09,6.12,6.12,0,0,0-.82.2,1.19,1.19,0,0,1-.56.17c-.1,0-.31-.06-.31-.15s.22-.07.34-.09.37-.24.6-.34a4.18,4.18,0,0,1,.72-.15,6.21,6.21,0,0,1,.74-.2,1.23,1.23,0,0,1,.42.1c.09,0,.14.17.2.25a2.31,2.31,0,0,0,.2.24c0,.05.12.06.17.11a1.42,1.42,0,0,1,.12.13,2.74,2.74,0,0,1,.41.34.58.58,0,0,1,.12.36.47.47,0,0,1-.35,0c-.14-.09-.11-.3-.19-.45M16.93,17s-.44-.16-.41-.27.43-.15.47.07a.36.36,0,0,1-.06.2m-.19-1s-.12-.08-.13-.15.13,0,.21,0a.86.86,0,0,1,.56.33.8.8,0,0,1,0,.31,2.16,2.16,0,0,0,.05.27c0,.08,0,.34-.14.35s-.09-.16-.09-.28c0-.4-.26-.56-.48-.77m.77,1.93c0,.14-.28.06-.3,0a.41.41,0,0,1,0-.12,1.11,1.11,0,0,1,0-.32c0-.1.31-.11.28.11s-.11.15-.11.2.14.06.12.16m.64-2.13c0,.05-.29.1-.41.11a.89.89,0,0,1-.39-.06c-.06,0-.21-.06-.22-.11s.19-.12.23-.13a1.55,1.55,0,0,1,.31-.06,1.52,1.52,0,0,1,.28.09c.05,0,.22.09.2.16m.8.17c.08.15.15.3.22.46a.29.29,0,0,1-.33,0c-.07-.06-.06-.18-.1-.26a1.38,1.38,0,0,0-.22-.26.86.86,0,0,1-.19-.56c-.07-.09-.16,0-.28,0a.8.8,0,0,1-.3-.06c-.07,0-.15-.13-.22-.13s-.1.08-.12.15-.14.11-.21.09-.06-.12-.08-.22-.06-.13-.05-.2a.31.31,0,0,1,.21,0c.21,0,.45-.09.64-.09s.22.09.33.11a3.85,3.85,0,0,1,.52.73c.05.08.12.14.18.23m1.51-.15c.06.08.13.21.08.27s-.32,0-.37-.21a.7.7,0,0,0-.06-.19c0-.06-.21-.07-.33-.08a8.87,8.87,0,0,1-1.08-.13,1.48,1.48,0,0,1-.21-.34c0-.06.08-.07.18-.06a3.61,3.61,0,0,1,1,.24,2,2,0,0,1,.77.5M21.58,15a2.55,2.55,0,0,0-.78,0c-.08,0-.14.14-.22.19l-.33.15c-.1-.05-.18-.11-.29-.16s0-.29,0-.42-.12-.16-.12-.23.34-.27.5-.28.62.1.31.19c-.06,0-.12,0-.13.06s.12.09.22.08.21-.09.38-.07a.93.93,0,0,1,.35.13,1,1,0,0,1,.13.22.28.28,0,0,1,0,.13m0-.41c-.19-.2-.56-.22-.75-.42,0,0,0-.06,0-.13s-.27-.09-.42,0a1.7,1.7,0,0,0-.23.11c-.07,0-.17.06-.24.1s-.14.14-.21.16a.51.51,0,0,0,0-.2c0-.07-.06-.09,0-.13s.14-.08.19-.1.26-.21.44-.2a1.52,1.52,0,0,1,.69.22,6.8,6.8,0,0,1,.76.39c.1,0,.29.18.3.27s-.1.18-.19.19-.2-.14-.28-.22m.2.46c0-.12.44-.07.45.08s-.49,0-.45-.08m.75-.45c.07,0,.16,0,.17,0s-.05.2-.08.24a.35.35,0,0,1-.28.14.24.24,0,0,1,0-.26.55.55,0,0,1,.24-.12m.74-.94c0,.11-.25.13-.38.18s-.14.15-.23.27-.26.33-.38.28-.1-.16-.07-.24.25-.21.34-.28.24-.34.51-.37.23.06.21.16m1.53.56c-.09.11-.36,0-.36-.08s.39-.12.36.08"/></svg>