<svg id="Layer_1" data-name="Layer 1" xmlns="http://www.w3.org/2000/svg" xmlns:xlink="http://www.w3.org/1999/xlink" viewBox="0 0 173 30"><defs><style>.cls-1{fill:url(#linear-gradient);}.cls-2{fill:#4c4c4c;}</style><linearGradient id="linear-gradient" x1="57.72" y1="-931.03" x2="82.49" y2="-931.03" gradientTransform="matrix(1, 0, 0, -1, -56.72, -914.65)" gradientUnits="userSpaceOnUse"><stop offset="0.3" stop-color="#757575"/><stop offset="0.7" stop-color="#a5a5a5"/></linearGradient></defs><title>novartis</title><g id="_Group_" data-name=" Group "><path id="_Path_" data-name=" Path " class="cls-1" d="M18.1,13.54l-.07.18a7.1,7.1,0,0,1,3.76,6.6A8,8,0,0,1,13.48,28C7.16,28,5,24.32,5,20.93c0-4.35,3-7.24,3-11.2a6.19,6.19,0,0,0-4.88-6l-.1.17A5.2,5.2,0,0,1,4.61,7.65C4.61,11.92,1,15,1,19.87,1,24.39,4.16,29,13.31,29c8.16,0,12.46-4,12.46-8.24C25.76,17.11,23.15,14,18.1,13.54Z"/><path id="_Compound_Path_" data-name=" Compound Path " class="cls-2" d="M53.93,28.27l-10.84-14v12.6l2.21.53V28h-5v-.58l1.81-.53V13.16a3.86,3.86,0,0,0-1.55-.88l-.52-.1V11.6h4.28l9.26,12V12.72l-2.21-.53v-.58h5v.58l-1.8.53v12.5c0,1.16.08,2.84.1,3.06Zm22.67-8.9c0,5.79-4,9.14-8.48,9.14a8.45,8.45,0,0,1-8.5-8.69,8.47,8.47,0,0,1,8.46-8.73,8.25,8.25,0,0,1,8.52,8v.31Zm-2.82.87c0-4.26-2.55-8.39-6-8.39-3.68,0-5.34,3.56-5.34,7.37s2.1,8.54,6.05,8.54C72.2,27.76,73.78,24,73.78,20.24Zm6.32-7.53-1.73-.53V11.6H85v.58l-2.09.53,4.59,12.52h0l4.59-12.52L90,12.18V11.6H95v.58l-1.74.53-5.74,15.6H86Zm39.31,6.92h-1.06V12.46c3.48,0,5.54.8,5.54,3.64C123.88,18.2,122.07,19.63,119.41,19.63Zm29.76,7.79,2.31-.53V12.72l-2.31-.54V11.6h7.22v.58l-2.32.54V26.89l2.32.53V28h-7.22Zm11.64-3.93h.46L162.8,27a7.09,7.09,0,0,0,2.94.73c2,0,3.8-1.16,3.8-3.23,0-1.58-1-2.52-2.66-3.38l-1.64-.84c-2-1-3.9-2.45-3.9-4.76,0-2.52,1.74-4.45,5.45-4.45a12.57,12.57,0,0,1,3.85.63l.39,3.79h-.5l-1.41-3a5,5,0,0,0-2.41-.63,2.86,2.86,0,0,0-3.16,2.77c0,1.45,1,2.36,2.63,3.22l1.93,1c2.64,1.36,3.89,2.63,3.89,5,0,2.9-2.72,4.7-6.09,4.7a14.56,14.56,0,0,1-4.68-.7ZM93.89,27.42l1.86-.53,5.74-15.3,1.91-.49,5.92,15.79,1.86.53V28h-7v-.58l2.38-.53-1.67-4.54H98.55l-1.67,4.54,2.38.52V28H93.89ZM99,21.14h5.45l-2.7-7.32h0ZM122.72,20c.58-.14,3.83-1,3.83-4.05,0-2.47-1.9-4.39-6.56-4.39-2.9,0-5.79.06-6.16.08v.58l1.91.53V26.89l-1.91.53V28h6.74v-.58l-2.21-.53V20.48h1.9L125.13,28h4.32v-.58l-2.19-.58ZM137,12.46V26.89l-2.32.53V28h7.22v-.58l-2.31-.53V12.46h3.89l1.29,2.77h.49l-.37-3.61h-13.2l-.37,3.61h.5L133,12.49ZM13.42,22.88,15.74,1H10.93l2.32,21.88Z"/></g></svg>