<svg id="Layer_1" data-name="Layer 1" xmlns="http://www.w3.org/2000/svg" viewBox="0 0 216.69 20.32"><defs><style>.cls-1{fill:#989898;fill-rule:evenodd;}.cls-2{fill:#606060;}.cls-3{fill:#252525;}</style></defs><title>rtp</title><path class="cls-1" d="M5.86,0H34.8a1.48,1.48,0,0,1,1.5,1.45,1.48,1.48,0,0,1-1.5,1.46H5.86a1.48,1.48,0,0,1-1.5-1.46A1.48,1.48,0,0,1,5.86,0Z"/><rect class="cls-2" x="8.7" width="23.25" height="2.91"/><rect class="cls-3" x="13.06" width="14.53" height="2.91"/><path class="cls-1" d="M5.86,17.42H34.8a1.45,1.45,0,1,1,0,2.9H5.86a1.45,1.45,0,1,1,0-2.9Z"/><rect class="cls-2" x="8.7" y="17.42" width="23.25" height="2.9"/><rect class="cls-3" x="13.06" y="17.42" width="14.53" height="2.9"/><path class="cls-1" d="M1.5,4.35H39.15A1.48,1.48,0,0,1,40.66,5.8a1.49,1.49,0,0,1-1.51,1.46H1.5a1.46,1.46,0,1,1,0-2.91Z"/><rect class="cls-2" x="4.35" y="4.35" width="31.95" height="2.91"/><rect class="cls-3" x="8.7" y="4.35" width="23.25" height="2.91"/><path class="cls-1" d="M1.5,8.71H39.15a1.45,1.45,0,1,1,0,2.9H1.5a1.45,1.45,0,1,1,0-2.9Z"/><rect class="cls-2" x="4.35" y="8.71" width="31.95" height="2.9"/><rect class="cls-3" x="8.7" y="8.71" width="23.25" height="2.9"/><path class="cls-1" d="M1.5,13.06H39.15a1.46,1.46,0,1,1,0,2.91H1.5a1.46,1.46,0,1,1,0-2.91Z"/><rect class="cls-2" x="4.35" y="13.06" width="31.95" height="2.9"/><rect class="cls-3" x="8.7" y="13.06" width="23.25" height="2.9"/><path d="M46.58,12.15v2.7h-1.5V7.61h3a2.24,2.24,0,0,1,2.54,2.3A2,2,0,0,1,49,12l1.91,2.81h-1.7l-1.8-2.7Zm0-1.24H48c.75,0,1.14-.4,1.14-1s-.39-1-1.14-1h-1.4Z"/><path d="M55.48,7.61l2.77,7.24H56.72l-.65-1.75H53.36l-.64,1.75H51.21L54,7.61Zm-1.65,4.22H55.6l-.89-2.41ZM53.93,7l1-1.44h1.59L55.37,7Z"/><path d="M59.12,7.61h2.56a3.36,3.36,0,0,1,3.58,3.62,3.36,3.36,0,0,1-3.58,3.62H59.12Zm2.51,5.91a2,2,0,0,0,2.13-2.29,2,2,0,0,0-2.13-2.3h-1v4.59Z"/><path d="M67.82,14.85H66.31V7.61h1.51Z"/><path d="M72.27,15a3.45,3.45,0,0,1-3.42-3.74,3.44,3.44,0,1,1,6.85,0A3.46,3.46,0,0,1,72.27,15Zm0-6.14c-1.15,0-1.89,1-1.89,2.4s.74,2.39,1.89,2.39,1.91-1,1.91-2.39S73.42,8.83,72.27,8.83Z"/><path d="M84.17,7.61V8.93H80.74v1.58h3.11v1.28H80.74v1.73h3.43v1.33H79.25V7.61Z"/><path d="M87.45,7.61h6.18V8.93H91.3v5.92H89.78V8.93H87.45Z"/><path d="M99.54,7.61V8.93H96.11v1.58h3.12v1.28H96.11v1.73h3.43v1.33H94.62V7.61Z"/><path d="M100.71,7.61h1.51v5.91h3.38v1.33h-4.89Z"/><path d="M111.61,7.61V8.93h-3.43v1.58h3.12v1.28h-3.12v1.73h3.43v1.33h-4.92V7.61Z"/><path d="M115,14.85l-2.72-7.24h1.6l1.87,5.23,1.88-5.23h1.56l-2.73,7.24Z"/><path d="M121.54,14.85H120V7.61h1.51Z"/><path d="M124,12.79a1.37,1.37,0,0,0,1.44.93c.73,0,1.21-.33,1.21-.91s-.26-.67-.88-.81l-1.3-.3c-1-.24-1.84-.79-1.84-2a2.34,2.34,0,0,1,2.61-2.23,2.61,2.61,0,0,1,2.84,2.1h-1.5a1.27,1.27,0,0,0-1.33-.86c-.69,0-1.15.33-1.15.85s.28.66.82.79l1.32.3c1.18.28,1.9.95,1.9,2.05,0,1.4-1.16,2.25-2.69,2.25a2.75,2.75,0,0,1-3-2.18Z"/><path d="M132.92,7.61l2.77,7.24h-1.53l-.65-1.75H130.8l-.64,1.75h-1.51l2.77-7.24Zm1-2.22c0,.93-.29,1.64-1,1.64-.56,0-.92-.5-1.33-.5-.23,0-.33.15-.34.46h-.84c0-.93.29-1.64,1-1.64s.92.5,1.33.5c.22,0,.33-.16.35-.46Zm-2.65,6.44H133l-.89-2.41Z"/><path d="M139.63,15a3.46,3.46,0,0,1-3.42-3.74,3.44,3.44,0,1,1,6.86,0A3.47,3.47,0,0,1,139.63,15Zm0-6.14c-1.14,0-1.88,1-1.88,2.4s.74,2.39,1.88,2.39,1.92-1,1.92-2.39S140.79,8.83,139.63,8.83Z"/><path d="M146.62,7.61h2.56a3.35,3.35,0,0,1,3.57,3.62,3.36,3.36,0,0,1-3.57,3.62h-2.56Zm2.5,5.91a2,2,0,0,0,2.14-2.29,2,2,0,0,0-2.14-2.3h-1v4.59Z"/><path d="M158.72,7.61V8.93h-3.43v1.58h3.12v1.28h-3.12v1.73h3.43v1.33H153.8V7.61Z"/><path d="M163.89,12.34v2.51h-1.5V7.61h3A2.26,2.26,0,0,1,167.89,10a2.26,2.26,0,0,1-2.55,2.36Zm1.36-3.45h-1.36v2.16h1.36A1,1,0,0,0,166.4,10,1,1,0,0,0,165.25,8.89Z"/><path d="M172,15a3.45,3.45,0,0,1-3.42-3.74,3.44,3.44,0,1,1,6.86,0A3.47,3.47,0,0,1,172,15Zm0-6.14c-1.14,0-1.89,1-1.89,2.4s.75,2.39,1.89,2.39,1.91-1,1.91-2.39S173.13,8.83,172,8.83Z"/><path d="M178,12.15v2.7h-1.49V7.61h3A2.24,2.24,0,0,1,182,9.91,2,2,0,0,1,180.33,12l1.91,2.81h-1.7l-1.8-2.7Zm0-1.24h1.4c.75,0,1.14-.4,1.14-1s-.39-1-1.14-1H178Z"/><path d="M182.71,7.61h6.18V8.93h-2.34v5.92H185V8.93h-2.32Z"/><path d="M189.77,11.94V7.61h1.52v4.17c0,1.24.54,1.83,1.49,1.83s1.5-.59,1.5-1.83V7.61h1.51v4.33a3,3,0,1,1-6,0Z"/><path d="M200.51,12.26V11.05h2.86v.64A3,3,0,0,1,200.22,15a3.48,3.48,0,0,1-3.5-3.74,3.48,3.48,0,0,1,3.46-3.74,2.88,2.88,0,0,1,3.07,2.45h-1.52a1.53,1.53,0,0,0-1.55-1.11c-1.19,0-1.92,1-1.92,2.4s.74,2.41,2,2.41a1.6,1.6,0,0,0,1.67-1.38Z"/><path d="M208.16,7.61l2.77,7.24H209.4l-.65-1.75H206l-.63,1.75h-1.52l2.78-7.24Zm-1.66,4.22h1.77l-.88-2.41Z"/><path d="M211.8,7.61h1.51v5.91h3.38v1.33H211.8Z"/></svg>