<svg id="Layer_1" data-name="Layer 1" xmlns="http://www.w3.org/2000/svg" xmlns:xlink="http://www.w3.org/1999/xlink" viewBox="0 0 275 42"><defs><style>.cls-1{fill:none;stroke:#3c3c3c;stroke-width:1.33px;}.cls-2{fill:#515151;}.cls-3{fill:#565656;}.cls-4{fill:#999;}.cls-5{fill:#afafaf;}.cls-6,.cls-7{fill:#e2e2e2;}.cls-7,.cls-9{fill-rule:evenodd;}.cls-8,.cls-9{fill:#fff;}.cls-10{fill:#444;}.cls-11{fill:#3c3c3c;}.cls-12{fill:#505050;}.cls-13{fill:url(#linear-gradient);}.cls-14{fill:url(#linear-gradient-2);}.cls-15{fill:url(#linear-gradient-3);}</style><linearGradient id="linear-gradient" x1="-77.66" y1="-73.35" x2="-77.36" y2="-73.18" gradientTransform="matrix(36.18, 0, 0, -35.64, 2953.91, -2602.67)" gradientUnits="userSpaceOnUse"><stop offset="0" stop-color="#3d3d3d"/><stop offset="1" stop-color="#373737"/></linearGradient><linearGradient id="linear-gradient-2" x1="-77.83" y1="-73.66" x2="-77.74" y2="-73.39" gradientTransform="matrix(36.18, 0, 0, -35.64, 2952.89, -2601.11)" gradientUnits="userSpaceOnUse"><stop offset="0" stop-color="#4a4a4a"/><stop offset="0.7" stop-color="#5f5f5f"/></linearGradient><linearGradient id="linear-gradient-3" x1="-78.15" y1="-76.02" x2="-77.59" y2="-75.7" gradientTransform="matrix(37.14, 0, 0, -32.09, 3033.52, -2420.52)" gradientUnits="userSpaceOnUse"><stop offset="0" stop-color="#5f5f5f"/><stop offset="0.03" stop-color="#6e6e6e"/><stop offset="0.07" stop-color="#7f7f7f"/><stop offset="0.11" stop-color="#8d8d8d"/><stop offset="0.16" stop-color="#999"/><stop offset="0.2" stop-color="#a2a2a2"/><stop offset="0.25" stop-color="#aaa"/><stop offset="0.31" stop-color="#afafaf"/><stop offset="0.38" stop-color="#b3b3b3"/><stop offset="0.5" stop-color="#b3b3b3"/><stop offset="0.56" stop-color="#b0b0b0"/><stop offset="0.64" stop-color="#a6a6a6"/><stop offset="0.72" stop-color="#969696"/><stop offset="0.81" stop-color="#7f7f7f"/><stop offset="0.9" stop-color="#626262"/><stop offset="1" stop-color="#3e3e3e"/><stop offset="1" stop-color="#3d3d3d"/></linearGradient></defs><title>SNS</title><g id="Camada_2" data-name="Camada 2"><g id="Camada_1-2" data-name="Camada 1-2"><line class="cls-1" x1="30.36" y1="30.53" x2="110.11" y2="30.53"/><path class="cls-2" d="M10.59,1C4.51,3,1.43,8.13,1.43,16.1V28.19a12.66,12.66,0,0,1,9.16-10Z"/><path class="cls-3" d="M11.27,3.29A41.25,41.25,0,0,1,22.49,1.16s0,5.51-.19,10C21.74,25.28,9.12,18,3,25.54,4.21,22.28,8.43,20,11.31,19.4Z"/><path class="cls-2" d="M9.57,23.46S2.85,24,2.28,27.82c-.45,3,7.28,3.08,7.28,3.08Z"/><path class="cls-4" d="M1.71,12.19a15.31,15.31,0,0,1,8.88-8.66V1C5.57,2.62,2.6,6.43,1.71,12.19Z"/><path class="cls-5" d="M5.81,8.68h.5l.26.07H7V8.41H6.7l-.28-.09h.15l.56-.15V8h0V7.79l-.28.28a6.4,6.4,0,0,0-.62.2A5.91,5.91,0,0,1,10.51,6V5.8A6,6,0,0,0,6,8.34a.38.38,0,0,0-.19.05h0l-.09.16a.11.11,0,0,0,0,.08A.13.13,0,0,1,5.81,8.68Zm.36-.16Zm4.26-1.89a5.36,5.36,0,0,0-2.74,1H7.43a5.49,5.49,0,0,1,3-1.22Zm-5.18,3a.17.17,0,0,1,0-.1l.08-.15H5.6A2.21,2.21,0,0,1,6,9.5l.15.05h.68v.18c-.25,0-.49-.05-.74-.06H5.89a1.4,1.4,0,0,0-.34-.08H5.38A.1.1,0,0,0,5.25,9.67Zm1.84,6.16a5.41,5.41,0,0,0,3.34,1.58v.16a5.53,5.53,0,0,1-4-2.29h.2a4.6,4.6,0,0,0,.46.53h0Zm4-9.88v-.1h.14V6A6.1,6.1,0,0,1,15.9,8.54a.67.67,0,0,1,.18.11h0l.12.19a.05.05,0,0,1,0,.08h0V8.84l-.11,0h0a1.47,1.47,0,0,0-.28-.14h-.29l-.3-.08h-.46V8.33h0V8.17h0V8l.28.28c.23.06.44.13.61.19a5.94,5.94,0,0,0-4.35-2.3v.35a5.44,5.44,0,0,1,3.13,1.2h-.25A5.34,5.34,0,0,0,11.27,6.6V7.67h-.16V6Zm5.15,3.14a.57.57,0,0,1,.13.08l.09.16a.06.06,0,0,1,0,.07h0a.06.06,0,0,0,0-.08h-.06a4.3,4.3,0,0,0-.71-.26h0L15.42,9h0l-.66-.16V8.67h.54l.24.06h.2l.3.1h0l.24.1h0ZM10.57,6ZM4.76,11.88v-.15h0a.27.27,0,0,1,.09-.12,6.47,6.47,0,0,1,.42-1.84h0V9.71h0l.15.06A5.6,5.6,0,0,0,5,11.58a2.59,2.59,0,0,1,.46-.26,5.75,5.75,0,0,1,.38-1.45l.12.13-.09.24h0a5.07,5.07,0,0,0-.25,1,7.8,7.8,0,0,1,1.34-.36l.2,0V11H5.58l-.16.06H5.09l-.16.12h0s-.08.08,0,.12a.3.3,0,1,1-.12.58Zm5.83-5.41v-.6h.17v1.8H10.6Zm5.27,9.16a.14.14,0,0,1,0,.09l-.07.11a.14.14,0,0,1-.11.07s.12,0,.06-.16h0v-.05l-.07-.11h0c-.07-.09-.15-.17-.23-.26h0l-.12-.1h0c-.23-.22-.56-.49-1-.8l.07-.16h0a12.69,12.69,0,0,1,1.13.93h0l0,.06h0a.6.6,0,0,1,.09.15h0Zm-.18.15,0,.06h0l0,0a6,6,0,0,1-4.33,2.2v.1h-.14V16.54h.16v.89a5.42,5.42,0,0,0,3.47-1.57h0l0,0h0c.11-.11.22-.23.32-.35l.16,0a5.53,5.53,0,0,1-4,2.07v.35a5.92,5.92,0,0,0,4.29-2.28l.12.12ZM17,12.41v.09h0a6.06,6.06,0,0,1-.6,2.2.23.23,0,0,1,0,.2L16.3,15s0,.05-.07.06a.13.13,0,0,0,.05-.16h0a0,0,0,0,0,0-.05h0s0,0,0-.08a1.06,1.06,0,0,0-.16-.21h0l-.24-.26h0l-.09-.08h0l-.09-.08h0l-.24-.22h0l-.07-.06h-.26v-.2a14.23,14.23,0,0,1,1.2,1,5.12,5.12,0,0,0,.38-1.39h0V13h0s0,0,0,0h0v-.06h.16a5.72,5.72,0,0,1-.46,2,1.61,1.61,0,0,1,.24.28,5.8,5.8,0,0,0,.25-2.89Zm.09-.67h0v.16s0,0,0,0a.15.15,0,0,0,0-.09h0a1,1,0,0,0-.16-.12h-.26l-.18-.07H14.89L14.76,11v-.18l.2,0a8.74,8.74,0,0,1,1.33.37,5.16,5.16,0,0,0-.51-1.63h0l-.17-.33h.18a5.64,5.64,0,0,1,.67,2l.36.17a5.85,5.85,0,0,0-.63-2.16l.2,0h0v.05h0A5.92,5.92,0,0,1,17,11.6a.34.34,0,0,1,.12.12Zm0,.52h0v.17a.05.05,0,0,1,0,.05s0-.08,0-.1v0h0l-.11-.08h0a1.8,1.8,0,0,0-.34-.17h0l-.11,0h0a9,9,0,0,0-1.44-.4l-.24-.12v-.16l.2,0h1.32l.17.06h.39a1,1,0,0,1,.17.12h0a.33.33,0,0,1,.07.65h0Zm-12.2.07h0v0s0,.07,0,.1,0,0,0-.05v-.17H4.76a.28.28,0,0,1,.07-.09h0A.91.91,0,0,1,5,12h.27L5.44,12H6.73l.2,0h0v.17l-.18,0a10.24,10.24,0,0,0-1.44.4h0l-.16.06h0l-.34.17h0a.71.71,0,0,0,.08-.43h0Zm1,3a.06.06,0,0,0,0,.08h0a.12.12,0,0,1-.07,0l-.07-.1h0a.16.16,0,0,1,0-.07h0a.4.4,0,0,1,.12-.1h.06L6.09,15h0l.07,0h0l.15-.06h.46l.72-.18.08.16c-.26,0-.52.11-.76.18a2.47,2.47,0,0,0-1,.31ZM5.59,15H5.53l-.07-.13h0a.16.16,0,0,1,0-.09,6,6,0,0,1-.63-2.33L5,12.33a5.89,5.89,0,0,0,.6,2.29,1.73,1.73,0,0,1,.3-.16,5.72,5.72,0,0,1-.56-2.19h.16a5.36,5.36,0,0,0,.56,2.15,5.25,5.25,0,0,1,.67-.22c.21-.06.42-.12.67-.17a.39.39,0,0,0,.06.15c-.23.06-.45.11-.67.18H6.34l-.18.07h0L6,14.5H6l-.1.05H5.79l-.08,0h0a.46.46,0,0,0-.12.12h0a0,0,0,0,0,0,0S5.57,15,5.59,15Zm4.94,3.08h0a6.05,6.05,0,0,1-4.61-2.63v0h0l.15-.06a5.89,5.89,0,0,0,4.46,2.58Zm.23,0v.09h-.13V16.53h.16v1.55Z"/><path class="cls-6" d="M6.23,8.43a5.93,5.93,0,0,1,4.28-2.3l-.06.34a5.49,5.49,0,0,0-3,1.2h-.3v.26l-.28.29A6.45,6.45,0,0,0,6.23,8.43Zm10,.9a1.84,1.84,0,0,0-.41,0,5.46,5.46,0,0,1,.67,2,2.42,2.42,0,0,1,.36.18A5.65,5.65,0,0,0,16.19,9.33ZM11.27,6.47a5.53,5.53,0,0,1,3.16,1.2h.33v.26l.28.28c.23.06.44.13.61.19A5.94,5.94,0,0,0,11.3,6.1ZM6.42,15.28a2.2,2.2,0,0,0-.37.06,5.89,5.89,0,0,0,4.46,2.58l0-.35A5.55,5.55,0,0,1,6.42,15.28Zm4.86,2.3v.34a5.86,5.86,0,0,0,4.29-2.26,1.51,1.51,0,0,0-.31-.16,5.55,5.55,0,0,1-4,2.08ZM6,14.47a5.38,5.38,0,0,1-.56-2.19,1.28,1.28,0,0,0-.34.07,5.89,5.89,0,0,0,.6,2.29,1.56,1.56,0,0,1,.28-.16Zm10.1-.22a3.33,3.33,0,0,1,.25.28,5.78,5.78,0,0,0,.53-2.2,1.28,1.28,0,0,0-.34-.07,5.51,5.51,0,0,1-.46,2ZM5.43,11.32a5.75,5.75,0,0,1,.38-1.45.79.79,0,0,0-.31-.2,5.6,5.6,0,0,0-.45,1.81Z"/><path class="cls-6" d="M16.09,8.81a4.61,4.61,0,0,0-1.33-.48v.33a8.43,8.43,0,0,1,1.54.44Z"/><path class="cls-6" d="M6.85,8.71l.28-.06V8.33c-.27.06-.53.14-.79.22Z"/><path class="cls-7" d="M7.13,11H7a5.4,5.4,0,0,0-2.09.74h0v.32A5.55,5.55,0,0,1,7,11.33l.2,0Z"/><path class="cls-7" d="M17,11.8a5.3,5.3,0,0,0-2.08-.74L14.76,11v.34l.2,0a5.3,5.3,0,0,1,2.08.74V11.8Z"/><path class="cls-7" d="M7.43,14.19l-.67.17a2.74,2.74,0,0,0-1.18.56h0l.19.3a2.73,2.73,0,0,1,1.1-.52l.71-.18A1.66,1.66,0,0,1,7.43,14.19Z"/><rect class="cls-6" x="10.75" y="5.93" width="0.35" height="1.76"/><path class="cls-7" d="M10.93,16.54h-.17v1.6h.35v-1.6Z"/><path class="cls-7" d="M16.24,14.79a7.31,7.31,0,0,0-1.56-1.43,3.66,3.66,0,0,1-.27.91,5.12,5.12,0,0,1,1.45,1.33l.45-.66A.26.26,0,0,0,16.24,14.79Z"/><path class="cls-7" d="M7.13,9A3.86,3.86,0,0,0,6,8.67H5.82l-.39.74h0A5.39,5.39,0,0,1,7.13,10Z"/><path d="M14.76,9.19v.67c.41-.08.77-.17,1.06-.25l-.18-.34a2.28,2.28,0,0,1,.78.08h0V9.4h0a0,0,0,0,0,0-.07h-.05a4,4,0,0,0-1-.33h0A4.75,4.75,0,0,1,14.76,9.19Zm2.32,2.73a.12.12,0,0,0,0-.09v.1h0Zm-.86-3a.12.12,0,0,0,0-.08l-.09,0,.07.13Zm0,6.15h.06a.14.14,0,0,0,0-.16Zm.84-2.67h0l0,0a2,2,0,0,0-.48-.27l-.12,0v.06a12.68,12.68,0,0,1-1.62.37v.67a13.86,13.86,0,0,0,1.58-.34c0-.14,0-.3,0-.45a1.3,1.3,0,0,1,.67.13v.08l.07,0a.06.06,0,0,0,0-.06Zm-1.33,3.33h0v0a2.09,2.09,0,0,0-.41-.48h0c-.31-.27-.63-.54-1-.78a3.78,3.78,0,0,1-.73,1,3.82,3.82,0,0,1-1.2.82c.53-.05,1.06-.12,1.59-.22a4,4,0,0,0,.74-.16,4.64,4.64,0,0,0,.36-.4,1.18,1.18,0,0,1,.59.32l-.09.12h.08s.09,0,.06-.14Z"/><path d="M5.71,8.87V8.8a.15.15,0,0,1,.12-.12Zm-.86,3.06v-.1s-.06.07,0,.09Zm5.74-6h-.06l-.1.67h.16ZM5.26,9.76l.07-.16a1.11,1.11,0,0,1,.56.37,3.24,3.24,0,0,0-.13.33c.21.18.49.39.83.66l.32-.06.2,0v-.73a8.54,8.54,0,0,0-1-.42H6a2.16,2.16,0,0,0-.61-.14H5.35s-.08,0-.1.13h0a.36.36,0,0,0,0,.09Zm1.85,3v-.34A14.6,14.6,0,0,1,5.49,12V12L5.31,12l-.14.07h0a1.31,1.31,0,0,0-.28.24h0l.06,0v-.08a1.21,1.21,0,0,1,.67-.13,1.71,1.71,0,0,0,0,.45,12.15,12.15,0,0,0,1.59.34l-.12-.19Zm3.4,5.34h.06v-.67h-.16ZM8.23,15.39l0,0C7.61,15.26,7,15.16,6.42,15h0a1.31,1.31,0,0,0-.58.34.08.08,0,0,0,0,.08h0l.09,0-.06-.09a1.41,1.41,0,0,1,.73-.11,3.5,3.5,0,0,0,.47.54,15,15,0,0,0,2.32.39,3.76,3.76,0,0,1-1.14-.79Zm-2.67-.51v0h.07Z"/><path class="cls-8" d="M10.91,16.6a3.86,3.86,0,0,1-3.83-3.76V7.67h7.68v5.17a3.86,3.86,0,0,1-3.84,3.76Z"/><path class="cls-3" d="M7.33,7.92v4.92a3.58,3.58,0,1,0,7.16,0V7.92ZM13,12.84a2.13,2.13,0,0,1-4.25,0V9.37H13Z"/><path class="cls-7" d="M8.55,9.05h0l0-.33a.08.08,0,0,0,.08-.08.07.07,0,0,0-.08-.08h0V8.41h0v-.1H8.5v0H8.43V8.28h0v.05H8.31V8.28h0v.1h0v.15H8.21V8.21h0v-.1H8.16v.05H8.09V8.11h0v.05H8V8.11h0v.1h0v.32H7.87V8.38h0v-.1h0v.05H7.8V8.28h0v.05H7.68V8.28h0v.1h0v.15h0a.07.07,0,0,0-.08.08.08.08,0,0,0,.08.08V9h0a.08.08,0,0,0-.08.08.07.07,0,0,0,.08.08h.93a.08.08,0,0,0,.08-.08A.09.09,0,0,0,8.55,9.05Zm-.67,0a.34.34,0,0,1,.22-.34h0a.34.34,0,0,1,.22.34Z"/><path class="cls-7" d="M11.43,9.05h0V8.72a.08.08,0,0,0,.07-.08.08.08,0,0,0-.08-.08h0V8.41h0v-.1h-.05v0h-.07V8.28h-.05v.05h-.06V8.28h-.14v.1h0v.15h-.08V8.21h0v-.1H11v.05h-.07V8.11h0v.05h-.07V8.11h-.06v.1h0v.32h-.09V8.38h.09v-.1h0v.05h-.07V8.28h-.05v.05h-.07V8.28h0v.1h0v.15h0a.07.07,0,0,0-.08.08.08.08,0,0,0,.07.08l0,.32h0a.08.08,0,0,0-.08.08.07.07,0,0,0,.08.08h1a.08.08,0,0,0,.08-.08A.07.07,0,0,0,11.43,9.05Zm-.67,0A.34.34,0,0,1,11,8.71h0a.35.35,0,0,1,.22.34Z"/><path class="cls-7" d="M14.22,9.05h0l0-.33a.08.08,0,0,0,0-.16h0V8.41h0v-.1h-.05v0h-.07V8.28H14v.05H14V8.28h-.05v.1h0v.15h-.08V8.21h0v-.1h0v.05h-.07V8.11h0v.05h-.07V8.11h-.05v.1h0v.32h-.09V8.38h0v-.1h0v.05H13.4V8.28h0v.05h-.06V8.28h0v.1h0v.15h0a.08.08,0,0,0-.08.08s0,.08.08.08V9h0a.09.09,0,0,0-.08.08h0a.08.08,0,0,0,.08.08h.94a.08.08,0,0,0,.08-.08h0A.08.08,0,0,0,14.27,9,.05.05,0,0,0,14.22,9.05Zm-.67,0a.34.34,0,0,1,.22-.34h0a.34.34,0,0,1,.22.34Z"/><path class="cls-7" d="M8.55,12h0l-.06-.32a.07.07,0,0,0,.08-.08.08.08,0,0,0-.08-.08h0v-.14h0v-.1h0v.05H8.41v-.05H8.36v.05H8.29v-.05h0v.1h0v.14H8.19v-.31h0v-.13h0v.06H8.09v-.06h0v.06H8v-.06h0v.1h0v.32H7.87v-.15h0v-.1h0v0H7.8v0h0v0H7.68v0h0v.1h0v.15h0a.07.07,0,0,0-.08.08.08.08,0,0,0,.08.08V12h0a.08.08,0,0,0-.08.08h0a.07.07,0,0,0,.08.08h.93A.08.08,0,0,0,8.64,12,.09.09,0,0,0,8.55,12Zm-.67,0a.35.35,0,0,1,.21-.32h0a.35.35,0,0,1,.22.34Z"/><path class="cls-7" d="M14.22,12h0l-.06-.32a.07.07,0,0,0,.08-.08.09.09,0,0,0-.08-.08h0v-.14h0v-.1h0v.05h-.05v-.05H14v.05H14v-.05h-.05v.1h0v.14h-.08v-.31h0v-.13h0v.06h-.07v-.06h0v.06h-.07v-.06h-.05v.1h0v.32h-.09v-.15h0v-.1h0v0H13.4v0h0v0h-.06v0h0v.1h0v.15h0a.08.08,0,0,0-.08.08h0s0,.07.08.08V12h0a.08.08,0,0,0-.08.08h0a.07.07,0,0,0,.07.08h.94a.08.08,0,0,0,.08-.07h0a.08.08,0,0,0-.08-.08Zm-.67,0a.35.35,0,0,1,.22-.34h0A.35.35,0,0,1,14,12Z"/><path class="cls-7" d="M9.37,14.54h0l-.26-.21a.08.08,0,0,0,0-.11h0a.08.08,0,0,0-.11,0H9l-.11-.1h0l-.07-.07h0l0,0-.05.05v0l0,0,0,0,0,.05v0l0,0,.07.07h0l.09.11-.06.06-.24-.21h0l-.07-.07,0,0,0,0-.05.05,0,0,0,0,0,0-.05.05,0,0v0l.08.07h0l.2.24-.06.06-.11-.09h0l-.07-.07v0l0,0,0,.06,0,0,0,0,0,0,0,.05,0,0h0l.07.08h0l.1.1h0a.07.07,0,0,0,0,.12h0a.08.08,0,0,0,.11,0l.21.25h0a.07.07,0,0,0,0,.11h0a.07.07,0,0,0,.11,0h0l.67-.66a.09.09,0,0,0,0-.12h0Zm-.48.5a.35.35,0,0,1-.08-.4h0a.34.34,0,0,1,.39.08Z"/><path class="cls-7" d="M12.39,14.55a.07.07,0,0,0,0,.11h0l.66.67a.08.08,0,0,0,.11,0h0a.07.07,0,0,0,0-.11h0l.21-.26a.08.08,0,1,0,.11-.11h0l.09-.11h0l.08-.08h0l0,0,0,0,0,0,0,0,0,0,0-.06,0,0v0l-.07.07h0l-.12.09-.06-.06.21-.24h0l.07-.07v0l0,0-.05-.06,0,0,0,0,0,0-.05-.05,0,0,0,0-.07.07h0l-.23.21L13,14.31l.09-.11h0l.08-.08,0,0,0,0,0,0,0,0,0,0,0,0,0,0,0,0h0l-.07.07h0l-.11.09h0a.12.12,0,1,0,0,.21l-.25.21h0a.09.09,0,0,0-.12,0Zm.28.17a.34.34,0,0,1,.39-.08h0A.35.35,0,0,1,13,15Z"/><path class="cls-9" d="M11.17,13.81a.09.09,0,0,0-.09.09.09.09,0,0,0,.09.1h0a.1.1,0,0,0,.1-.1h0a.11.11,0,0,0-.1-.1"/><path class="cls-9" d="M10.67,13.82a.09.09,0,1,0,0,.18.09.09,0,0,0,0-.18"/><path class="cls-10" d="M10.91,11.07a.5.5,0,0,0,.48-.5h0V9.9h-1v.66a.49.49,0,0,0,.46.51Z"/><circle class="cls-8" cx="10.67" cy="10.16" r="0.11"/><circle class="cls-8" cx="10.91" cy="10.4" r="0.11"/><circle class="cls-8" cx="11.15" cy="10.64" r="0.11"/><circle class="cls-8" cx="11.15" cy="10.16" r="0.11"/><circle class="cls-8" cx="10.67" cy="10.64" r="0.11"/><path class="cls-10" d="M10.91,12.7a.49.49,0,0,0,.48-.49h0v-.67h-1v.67a.48.48,0,0,0,.46.5Z"/><circle class="cls-8" cx="10.67" cy="11.79" r="0.11"/><circle class="cls-8" cx="10.91" cy="12.03" r="0.11"/><circle class="cls-8" cx="11.15" cy="12.28" r="0.11"/><circle class="cls-8" cx="11.15" cy="11.79" r="0.11"/><circle class="cls-8" cx="10.67" cy="12.28" r="0.11"/><path class="cls-10" d="M9.61,12.7a.48.48,0,0,0,.48-.49h0v-.67H9.14v.67a.48.48,0,0,0,.46.5Z"/><circle class="cls-8" cx="9.37" cy="11.79" r="0.11"/><circle class="cls-8" cx="9.61" cy="12.03" r="0.11"/><circle class="cls-8" cx="9.85" cy="12.28" r="0.11"/><circle class="cls-8" cx="9.85" cy="11.79" r="0.11"/><circle class="cls-8" cx="9.37" cy="12.28" r="0.11"/><path class="cls-10" d="M12.22,12.7a.47.47,0,0,0,.47-.49h0v-.67h-.94v.67a.47.47,0,0,0,.46.5Z"/><circle class="cls-8" cx="11.98" cy="11.79" r="0.11"/><circle class="cls-8" cx="12.22" cy="12.03" r="0.11"/><circle class="cls-8" cx="12.46" cy="12.28" r="0.11"/><circle class="cls-8" cx="12.46" cy="11.79" r="0.11"/><circle class="cls-8" cx="11.98" cy="12.28" r="0.11"/><path class="cls-10" d="M10.91,14.33a.5.5,0,0,0,.48-.5h0v-.66h-1v.66a.49.49,0,0,0,.46.51Z"/><circle class="cls-8" cx="10.67" cy="13.42" r="0.11"/><circle class="cls-8" cx="10.91" cy="13.66" r="0.11"/><circle class="cls-8" cx="11.15" cy="13.9" r="0.11"/><circle class="cls-8" cx="11.15" cy="13.42" r="0.11"/><circle class="cls-8" cx="10.67" cy="13.9" r="0.11"/><path class="cls-11" d="M33.56,39.5a1.38,1.38,0,0,1-.13.6,1.51,1.51,0,0,1-.36.47,1.78,1.78,0,0,1-.57.32,2.53,2.53,0,0,1-.73.11,3.84,3.84,0,0,1-1.06-.12L30.8,40a2.54,2.54,0,0,0,.47.14,2.48,2.48,0,0,0,.54.06,1,1,0,0,0,.3,0,.64.64,0,0,0,.24-.1.61.61,0,0,0,.17-.19.55.55,0,0,0,.06-.28.44.44,0,0,0-.15-.35,1.09,1.09,0,0,0-.36-.22l-.46-.19a2.08,2.08,0,0,1-.47-.24,1.31,1.31,0,0,1-.36-.38,1.19,1.19,0,0,1-.14-.61,1.24,1.24,0,0,1,.11-.57,1.34,1.34,0,0,1,.34-.44,1.76,1.76,0,0,1,.56-.29,2.64,2.64,0,0,1,.74-.1h.42a1.54,1.54,0,0,1,.42.07l-.08.77-.4-.08a2.69,2.69,0,0,0-.4,0,.92.92,0,0,0-.58.15.49.49,0,0,0-.18.4.44.44,0,0,0,.14.34,1.57,1.57,0,0,0,.37.22l.47.2a2.19,2.19,0,0,1,.48.25,1.23,1.23,0,0,1,.36.39A1,1,0,0,1,33.56,39.5Z"/><path class="cls-11" d="M37.12,40.92l-.32-1H35.05l-.3,1h-.92l1.59-4.59h1l1.66,4.59Zm-1-3c0-.11-.08-.22-.11-.32s-.06-.21-.08-.31h0l-.09.31-.1.32-.46,1.34h1.34Z"/><path class="cls-11" d="M42.22,39.12a1.84,1.84,0,0,1-.5,1.41A2,2,0,0,1,40.3,41a2.39,2.39,0,0,1-.88-.14,1.35,1.35,0,0,1-.55-.36A1.38,1.38,0,0,1,38.6,40a2.55,2.55,0,0,1-.07-.67v-3h.89v3a2.16,2.16,0,0,0,0,.36.89.89,0,0,0,.15.31.63.63,0,0,0,.3.21,1.25,1.25,0,0,0,.47.07,1,1,0,0,0,.74-.24,1.2,1.2,0,0,0,.23-.84V36.33h.91ZM40,36l-.15-.48L41.29,35l.2.64Z"/><path class="cls-11" d="M47.19,38.53a2.86,2.86,0,0,1-.19,1,2.1,2.1,0,0,1-.52.76,2.4,2.4,0,0,1-.81.46,3.55,3.55,0,0,1-1,.15H43.37V36.33h1.5a3.46,3.46,0,0,1,1,.12,1.84,1.84,0,0,1,.74.4,1.92,1.92,0,0,1,.47.7A3.28,3.28,0,0,1,47.19,38.53Zm-1,.06a2.44,2.44,0,0,0-.08-.66,1.15,1.15,0,0,0-.7-.82,1.86,1.86,0,0,0-.66-.1h-.54v3.12h.48a1.72,1.72,0,0,0,.6-.1,1.29,1.29,0,0,0,.48-.28,1.45,1.45,0,0,0,.31-.5,2.08,2.08,0,0,0,.12-.66Z"/><path class="cls-11" d="M48,40.92V36.33h2.51v.74H48.9v1.14h1.54v.73H48.9v1.25h1.62V41Z"/><path class="cls-11" d="M35.7,12.44,33.39,8.73h-.22v2.71a4.26,4.26,0,0,1,.88.15v.85H30.72V11.6l.53-.1.58-.06V4.87l-.58-.07c-.17,0-.35-.06-.53-.1V3.86h3.37A5.47,5.47,0,0,1,35.3,4a2.57,2.57,0,0,1,1,.4,1.8,1.8,0,0,1,.62.72,2.35,2.35,0,0,1,.22,1.08,2.55,2.55,0,0,1-.17.81,2.08,2.08,0,0,1-.47.67,3,3,0,0,1-.72.49,3.28,3.28,0,0,1-.91.27l.27.35.24.36,1.48,2.22.43.07.49.09v.86Zm-.51-7.18a2.13,2.13,0,0,0-1.33-.32h-.72V7.67h.67a2.07,2.07,0,0,0,1.34-.39,1.27,1.27,0,0,0,.47-1A1.19,1.19,0,0,0,35.19,5.26Z"/><path class="cls-11" d="M38.31,12.44V11.6l.53-.1.57-.06V4.85l-.57-.06a3.1,3.1,0,0,1-.53-.1V3.86H44V5.91H43c0-.18-.06-.35-.08-.52s0-.31-.07-.45H40.79V7.53h1.64a1.48,1.48,0,0,1,.07-.42,2.54,2.54,0,0,1,.1-.37h.87V9.33H42.6A2.36,2.36,0,0,1,42.5,9c0-.15,0-.28-.07-.4H40.79v2.78h2.06a2.31,2.31,0,0,1,.07-.49,4.51,4.51,0,0,0,.1-.53h1v2.14Z"/><path class="cls-11" d="M51.3,7.55a2.73,2.73,0,0,1-.66.92,3.49,3.49,0,0,1-1.06.61,3.92,3.92,0,0,1-1.36.22h-.64v2.16l.57.06.54.1v.84h-3.6V11.6l.54-.1.57-.06V4.87l-.57-.07a5.12,5.12,0,0,1-.54-.1V3.86h3.3a3.46,3.46,0,0,1,2.34.67,2.36,2.36,0,0,1,.81,1.88A2.81,2.81,0,0,1,51.3,7.55Zm-1.64-2.2a1.94,1.94,0,0,0-1.37-.41h-.37a2,2,0,0,0-.35,0V8.08l.31,0h.31a2.11,2.11,0,0,0,1.39-.45,1.45,1.45,0,0,0,.5-1.16A1.51,1.51,0,0,0,49.66,5.35Z"/><path class="cls-11" d="M59.66,4.87v4.3a3.37,3.37,0,0,1-.91,2.56,3.59,3.59,0,0,1-2.59.84,4.46,4.46,0,0,1-1.62-.24,2.42,2.42,0,0,1-1-.67,2.33,2.33,0,0,1-.48-1,4.87,4.87,0,0,1-.14-1.14V4.88l-.43-.07-.41-.1V3.86h3.18v.85a2.4,2.4,0,0,1-.48.1l-.48.06V9.42a3.06,3.06,0,0,0,.08.8,1.37,1.37,0,0,0,.3.66,1.32,1.32,0,0,0,.6.42,2.57,2.57,0,0,0,1,.16,3.12,3.12,0,0,0,.91-.12A1.32,1.32,0,0,0,57.8,11a1.58,1.58,0,0,0,.37-.67,3.45,3.45,0,0,0,.12-1V4.87l-.49-.06a2.73,2.73,0,0,1-.48-.1V3.86H60.5v.85A7.34,7.34,0,0,1,59.66,4.87ZM56.08,3.25l-.5-.78,2-1.4.61.93Z"/><path class="cls-11" d="M68,10.73a2.13,2.13,0,0,1-.54.85,2.7,2.7,0,0,1-1,.67,4.33,4.33,0,0,1-1.64.25H61.37v-.9l.53-.1.58-.06V4.87L61.9,4.8a4.94,4.94,0,0,1-.53-.1V3.86h3.79a3.47,3.47,0,0,1,2.12.55A1.81,1.81,0,0,1,68,6a1.84,1.84,0,0,1-.4,1.19,2.19,2.19,0,0,1-1,.77h0a2.2,2.2,0,0,1,.73.26,1.7,1.7,0,0,1,.5.46,1.74,1.74,0,0,1,.3.59,1.88,1.88,0,0,1,.1.67A2.45,2.45,0,0,1,68,10.73ZM66.47,5.67a.86.86,0,0,0-.27-.38A1.32,1.32,0,0,0,65.7,5a3.29,3.29,0,0,0-.76-.09H63.86V7.5h.73a2.44,2.44,0,0,0,1.49-.36,1.22,1.22,0,0,0,.5-1A1.65,1.65,0,0,0,66.47,5.67Zm.08,3.61a1.3,1.3,0,0,0-.43-.41,1.84,1.84,0,0,0-.67-.23,4,4,0,0,0-.84-.07h-.76V11.3a5.65,5.65,0,0,0,1,.06,2,2,0,0,0,1.4-.41,1.39,1.39,0,0,0,.46-1.06,1.2,1.2,0,0,0-.16-.64Z"/><path class="cls-11" d="M69.18,12.44V11.6l.53-.1.58-.06V4.87l-.58-.07c-.17,0-.35-.06-.53-.1V3.86h3.57V4.7a5.12,5.12,0,0,1-.54.1l-.57.07V11.3h2c0-.32.1-.69.18-1.1h1v2.25Z"/><path class="cls-11" d="M75.27,12.44V11.6l.54-.1.57-.06V4.87l-.57-.07a5.12,5.12,0,0,1-.54-.1V3.86h3.59V4.7a4.94,4.94,0,0,1-.53.1l-.58.07v6.57l.58.07a4.94,4.94,0,0,1,.53.1v.84Z"/><path class="cls-11" d="M85,6.28c0-.21-.07-.41-.09-.59s0-.36-.06-.53a3.53,3.53,0,0,0-.55-.1h-.54a2.4,2.4,0,0,0-1.09.23,2.16,2.16,0,0,0-.77.67,2.82,2.82,0,0,0-.47,1,4.55,4.55,0,0,0-.15,1.27,4.57,4.57,0,0,0,.16,1.33,2.41,2.41,0,0,0,.5,1,2,2,0,0,0,.88.61,3.48,3.48,0,0,0,1.28.21,4.79,4.79,0,0,0,1-.11A4.67,4.67,0,0,0,86,11l.09,1.27a8.77,8.77,0,0,1-1.12.29,6.12,6.12,0,0,1-1.21.1,3.87,3.87,0,0,1-3-1.16,4.37,4.37,0,0,1-1-3.06A6.5,6.5,0,0,1,80,6.53a4,4,0,0,1,.76-1.46,3.52,3.52,0,0,1,1.33-1A4.82,4.82,0,0,1,84,3.77a8.39,8.39,0,0,1,1,.06c.33,0,.67.11,1,.18V6.28Z"/><path class="cls-11" d="M92.19,12.44V11.6l.47-.08.5-.07-.42-1.21h-3.4l-.43,1.21.49.07.48.08v.84H86.74V11.6l.36-.08.38-.06,2.73-7.6h1.67l2.77,7.6.37.06.36.08v.84Zm-.78-5.87c-.08-.23-.15-.45-.21-.67s-.12-.45-.17-.67h0a5.48,5.48,0,0,1-.17.67c-.06.22-.14.44-.22.67l-.93,2.56h2.67Z"/><path class="cls-11" d="M36.91,19.78a2.76,2.76,0,0,1-.67.92,3.36,3.36,0,0,1-1.05.61,4,4,0,0,1-1.37.22h-.64v2.13l.57.07a5.12,5.12,0,0,1,.54.1v.84h-3.6v-.83a3.1,3.1,0,0,1,.53-.1l.57-.07V17.1L31.22,17a4.51,4.51,0,0,1-.53-.1v-.84H34a3.47,3.47,0,0,1,2.35.67,2.32,2.32,0,0,1,.8,1.88A2.81,2.81,0,0,1,36.91,19.78Zm-1.64-2.2a2,2,0,0,0-1.38-.41h-.37a2,2,0,0,0-.35,0v3.16l.31,0h.31a2.16,2.16,0,0,0,1.4-.45,1.49,1.49,0,0,0,.52-1.2,1.55,1.55,0,0,0-.45-1.14Z"/><path class="cls-11" d="M45.51,22.18a4.25,4.25,0,0,1-.89,1.43,3.84,3.84,0,0,1-1.33.89,4.22,4.22,0,0,1-1.6.31A4.32,4.32,0,0,1,40,24.5a3.18,3.18,0,0,1-1.21-.87,3.74,3.74,0,0,1-.72-1.33,6.42,6.42,0,0,1-.23-1.79,5.19,5.19,0,0,1,.33-1.91A4.28,4.28,0,0,1,39,17.18a3.76,3.76,0,0,1,1.34-.88A4.15,4.15,0,0,1,42,16a4.31,4.31,0,0,1,1.58.27,3.16,3.16,0,0,1,1.2.78,3.67,3.67,0,0,1,.79,1.33,5.78,5.78,0,0,1,.28,1.89A5.23,5.23,0,0,1,45.51,22.18ZM43.71,18a2.26,2.26,0,0,0-1.88-.83,2.46,2.46,0,0,0-1,.2,2.22,2.22,0,0,0-.8.59,3.2,3.2,0,0,0-.56,1,4.32,4.32,0,0,0-.21,1.34,6,6,0,0,0,.15,1.33,3.19,3.19,0,0,0,.46,1,2.1,2.1,0,0,0,.78.67,2.53,2.53,0,0,0,1.12.23,2.38,2.38,0,0,0,1.76-.78,3,3,0,0,0,.58-1,4.41,4.41,0,0,0,.22-1.4A3.88,3.88,0,0,0,43.71,18Z"/><path class="cls-11" d="M51.65,24.68,49.34,21h-.22v2.7a5.06,5.06,0,0,1,.88.16v.85H46.67v-.83a3.41,3.41,0,0,1,.54-.1l.57-.07V17.1L47.21,17a5.12,5.12,0,0,1-.54-.1v-.84H50a5.56,5.56,0,0,1,1.22.13,2.75,2.75,0,0,1,1,.4,1.8,1.8,0,0,1,.62.72A2.37,2.37,0,0,1,53,18.42a2.22,2.22,0,0,1-.16.88,2.11,2.11,0,0,1-.48.67,2.55,2.55,0,0,1-.72.49,3.14,3.14,0,0,1-.9.28c.09.11.18.22.26.34l.24.36,1.51,2.22.43.07.49.09v.86Zm-.51-7.19a2.13,2.13,0,0,0-1.33-.32h-.72v2.72h.67a2,2,0,0,0,1.34-.39,1.25,1.25,0,0,0,.47-1A1.18,1.18,0,0,0,51.14,17.49Z"/><path class="cls-11" d="M60,18.37c0-.22-.08-.43-.1-.61s-.05-.36-.08-.52H58.26v6.42l.57.06.53.1v.84H55.78v-.82a3.1,3.1,0,0,1,.53-.1l.57-.08V17.24H55.32a2.58,2.58,0,0,1-.07.52,4.86,4.86,0,0,0-.1.61h-1V16.09H61v2.28Z"/><path class="cls-11" d="M69.13,17.1v4.3A3.39,3.39,0,0,1,68.24,24a3.58,3.58,0,0,1-2.58.84A4.44,4.44,0,0,1,64,24.55a2.49,2.49,0,0,1-1-.67,2.35,2.35,0,0,1-.49-1,5,5,0,0,1-.13-1.15V17.1L62,17l-.41-.09v-.85h3.2v.85a2.73,2.73,0,0,1-.48.1l-.49.06v4.56a4.26,4.26,0,0,0,.08.8,1.63,1.63,0,0,0,.3.67,1.46,1.46,0,0,0,.61.42,2.77,2.77,0,0,0,1,.15,3,3,0,0,0,.9-.11,1.49,1.49,0,0,0,.63-.37,1.56,1.56,0,0,0,.36-.67,3.52,3.52,0,0,0,.12-1V17.1L67.28,17a2.46,2.46,0,0,1-.47-.1v-.85H70v.85A8.65,8.65,0,0,1,69.13,17.1Z"/><path class="cls-11" d="M78.37,21.18l-.4.06v3a6.76,6.76,0,0,1-1.4.39,8.14,8.14,0,0,1-1.48.13,5.17,5.17,0,0,1-1.79-.29,3.6,3.6,0,0,1-2.19-2.17,5.37,5.37,0,0,1-.3-1.78,5.31,5.31,0,0,1,.33-1.85,4.11,4.11,0,0,1,2.4-2.41,5.52,5.52,0,0,1,2-.34,7.81,7.81,0,0,1,1.18.09c.38.06.78.13,1.18.23v2.16H76.81c0-.2-.07-.39-.1-.57l-.06-.53c-.22-.05-.44-.09-.67-.12a4.44,4.44,0,0,0-.63,0,3.34,3.34,0,0,0-1.21.2,2.7,2.7,0,0,0-1,.61,3,3,0,0,0-.67,1,4,4,0,0,0-.24,1.41,3.23,3.23,0,0,0,.8,2.32,3,3,0,0,0,2.19.82,4.14,4.14,0,0,0,.7-.06,3.6,3.6,0,0,0,.63-.15V21.26L76,21.19a4,4,0,0,1-.5-.1v-.84h3.26v.85A2.57,2.57,0,0,1,78.37,21.18Z"/><path class="cls-11" d="M87,17.1v4.3A3.37,3.37,0,0,1,86.08,24a3.59,3.59,0,0,1-2.59.84,4.42,4.42,0,0,1-1.65-.25,2.49,2.49,0,0,1-1-.67,2.23,2.23,0,0,1-.49-1,4.46,4.46,0,0,1-.13-1.15V17.1L79.79,17l-.4-.09v-.85h3.18v.85a2.73,2.73,0,0,1-.48.1l-.49.06v4.56a3.56,3.56,0,0,0,.08.8,1.51,1.51,0,0,0,.3.67,1.46,1.46,0,0,0,.61.42,2.72,2.72,0,0,0,1,.15,3,3,0,0,0,.9-.11,1.49,1.49,0,0,0,.63-.37,1.56,1.56,0,0,0,.36-.67,3.52,3.52,0,0,0,.12-1V17.1L85.09,17a2.46,2.46,0,0,1-.47-.1v-.85H87.8v.85A7.73,7.73,0,0,1,87,17.1Z"/><path class="cls-11" d="M88.69,24.68v-.84a3.29,3.29,0,0,1,.53-.1l.58-.07V17.08L89.22,17a3.29,3.29,0,0,1-.53-.1v-.83h5.69v2.05h-1c0-.18-.06-.35-.09-.52s0-.31-.06-.45h-2v2.58h1.64a1.14,1.14,0,0,1,.07-.41A1.78,1.78,0,0,1,93,19h.86v2.6H93a1.86,1.86,0,0,1-.1-.39c0-.14,0-.28-.07-.4H91.17v2.79h2.06a1.71,1.71,0,0,1,.07-.49c0-.17.07-.35.1-.53h1v2.14Z"/><path class="cls-11" d="M100.79,23.18a2.67,2.67,0,0,1-.67.86,3.08,3.08,0,0,1-1,.56,4.11,4.11,0,0,1-1.34.2,7.49,7.49,0,0,1-1.88-.22V22.42h1q.06.3.09.57c0,.18,0,.35.07.51l.38.07h.38a3,3,0,0,0,.66-.07,1.86,1.86,0,0,0,.56-.24,1,1,0,0,0,.36-.41,1.26,1.26,0,0,0,.14-.6.94.94,0,0,0-.29-.71,2.55,2.55,0,0,0-.71-.46,8,8,0,0,0-.92-.36,4.17,4.17,0,0,1-.92-.46,2.34,2.34,0,0,1-.7-.7,2,2,0,0,1-.29-1.13,2.5,2.5,0,0,1,.21-1,2.16,2.16,0,0,1,.62-.79,2.78,2.78,0,0,1,1-.51,4.28,4.28,0,0,1,1.33-.19,8.46,8.46,0,0,1,.87.05c.28,0,.56.07.85.13v2.07h-1a5.07,5.07,0,0,1-.09-.54,2,2,0,0,0-.06-.5l-.27,0H98.8a1.86,1.86,0,0,0-1.21.34,1.08,1.08,0,0,0-.4.87.9.9,0,0,0,.29.67,2.76,2.76,0,0,0,.71.45c.28.13.59.25.92.37a5.27,5.27,0,0,1,.92.46,2.39,2.39,0,0,1,.71.74,1.81,1.81,0,0,1,.29,1.09A2.58,2.58,0,0,1,100.79,23.18Z"/><path class="cls-11" d="M106.89,24.68v-.84a3.16,3.16,0,0,1,.48-.09l.49-.07-.45-1.2H104l-.42,1.18.49.07c.17,0,.33.05.47.09v.84h-3.09v-.82a1.55,1.55,0,0,1,.36-.08l.38-.06,2.73-7.61h1.66l2.82,7.61.37.06a1.55,1.55,0,0,1,.36.08v.84Zm-.82-5.88c-.08-.23-.15-.45-.21-.67s-.11-.44-.17-.67h0c0,.23-.1.45-.16.67s-.14.44-.23.67l-.93,2.56H107Z"/></g></g><g id="Page-1"><g id="Artboard"><g id="logo_sns-07" data-name="logo sns-07"><g id="Group"><polygon id="Path" class="cls-12" points="159.55 25.8 159.19 25.8 159.19 1 159.55 1.04 159.55 25.8"/><g id="Path-2" data-name="Path"><path class="cls-13" d="M140.68,1A12.37,12.37,0,0,0,129,9.4c.76-.32,6.8-5,13.08-1.36,9.64,5.48,4.08,15.44,3.64,16.72a12.41,12.41,0,0,0-5-23.76Z"/><path class="cls-14" d="M140.68,25.8a12.37,12.37,0,0,0,11.72-8.4c-.76.32-9.72,6.2-16.16.72-2.88-2.44-3-6.48-2.36-10.48a19.36,19.36,0,0,1,1.8-5.6,12.41,12.41,0,0,0,5,23.76Z"/><path class="cls-15" d="M134.68,9.4c-2.4,3-2.2,6.76-4.2,7.08-.76.12-2-.56-2.16-2.64a12.4,12.4,0,0,0,8.92,11.44,6.48,6.48,0,0,1-1.6-4.6c0-5.44,4.36-9.44,9.6-9.92,4.08-.36,6.08.52,7.84,3v-.44a12.29,12.29,0,0,0-3.68-8.8C148.6,3.84,140.44,2.24,134.68,9.4Z"/></g></g><g id="Group-2" data-name="Group"><g id="Path-3" data-name="Path"><path class="cls-12" d="M171.59,22a6,6,0,0,1-3.48-1v0l-.6-.48a5.25,5.25,0,0,1-1.64-3.28l0-.32,2.84-.6.08.36a2.9,2.9,0,0,0,2.88,2.44,3,3,0,0,0,2.28-1,2.74,2.74,0,0,0,.44-1.24,1.34,1.34,0,0,0-.24-.92l0,0a18.78,18.78,0,0,0-2.16-1.64,3.06,3.06,0,0,1-.92-.68,15.94,15.94,0,0,1-3.6-2.8,4.51,4.51,0,0,1-.8-2.4,4.82,4.82,0,0,1,1.32-3.16,5,5,0,0,1,4-1.44,5.57,5.57,0,0,1,3.24,1.12,5.75,5.75,0,0,1,1.92,3.44l.08.36-2.84.6L174.23,9a2.74,2.74,0,0,0-2.32-2.24c-1.2,0-1.56.16-1.88.52a1.72,1.72,0,0,0-.48,1.12,2.68,2.68,0,0,0,.28.72,21.8,21.8,0,0,0,2.24,1.68l1,.72a21,21,0,0,1,3.2,2.56,4.61,4.61,0,0,1,1,3,4.81,4.81,0,0,1-1.08,3A6.69,6.69,0,0,1,171.59,22Z"/><polygon class="cls-12" points="192.11 21.88 189.55 21.88 181.95 9.88 181.95 21.88 179.07 21.88 179.07 3.88 181.63 3.88 189.15 15.76 189.15 3.88 192.11 3.88 192.11 21.88"/><path class="cls-12" d="M199.71,22a6,6,0,0,1-3.48-1v0l-.6-.48A5.25,5.25,0,0,1,194,17.2l0-.32,2.84-.6.08.36a2.9,2.9,0,0,0,2.88,2.44,3,3,0,0,0,2.28-1,2.74,2.74,0,0,0,.44-1.24,1.34,1.34,0,0,0-.24-.92l0,0A18.78,18.78,0,0,0,200,14.28a3.06,3.06,0,0,1-.92-.68,15.94,15.94,0,0,1-3.6-2.8,4.51,4.51,0,0,1-.8-2.4A4.82,4.82,0,0,1,196,5.24a5,5,0,0,1,4-1.44,5.57,5.57,0,0,1,3.24,1.12,5.75,5.75,0,0,1,1.92,3.44l.08.36-2.84.6L202.35,9A2.74,2.74,0,0,0,200,6.72c-1.2,0-1.56.16-1.88.52a1.72,1.72,0,0,0-.48,1.12,2.68,2.68,0,0,0,.28.72,21.8,21.8,0,0,0,2.24,1.68l1,.72a21,21,0,0,1,3.2,2.56,4.61,4.61,0,0,1,1,3,4.81,4.81,0,0,1-1.08,3A6.69,6.69,0,0,1,199.71,22Z"/></g><path id="Path-4" data-name="Path" class="cls-12" d="M211.82,6.32c0-.8-.36-1.28-1.16-1.28a1.14,1.14,0,0,0-1.24,1.16c0,2,3.16.88,3.16,3.16a1.8,1.8,0,0,1-2,1.92,1.68,1.68,0,0,1-1.88-1.92V9.12h.6v.24a1.34,1.34,0,1,0,2.68.08c0-1.92-3.16-.84-3.16-3.2a1.64,1.64,0,0,1,1.8-1.72,1.58,1.58,0,0,1,1.76,1.8Z"/><polygon id="Path-5" data-name="Path" class="cls-12" points="213.34 4.64 216.58 4.64 216.58 5.12 213.94 5.12 213.94 7.52 216.42 7.52 216.42 8 213.94 8 213.94 10.68 216.66 10.68 216.66 11.16 213.34 11.16 213.34 4.64"/><path id="Shape" class="cls-12" d="M217.38,4.64h2A1.53,1.53,0,0,1,221,6.28a1.47,1.47,0,0,1-1.16,1.64h0c.8.08,1.08.52,1.12,1.56v.72a1.31,1.31,0,0,0,.28,1h-.68a2.11,2.11,0,0,1-.16-.92V9.68c0-1.16-.24-1.52-1.28-1.52H218v3h-.6V4.64Zm.6,3h1c.92,0,1.48-.44,1.48-1.28s-.32-1.28-1.4-1.28H218Z"/><polygon id="Path-6" data-name="Path" class="cls-12" points="221.46 4.64 222.1 4.64 223.54 10.52 223.54 10.52 224.98 4.64 225.62 4.64 223.9 11.16 223.18 11.16 221.46 4.64"/><polygon id="Path-7" data-name="Path" class="cls-12" points="226.18 4.64 226.78 4.64 226.78 11.16 226.18 11.16 226.18 4.64"/><path id="Path-8" data-name="Path" class="cls-12" d="M229.78,11.28c-1.28-.08-2-1.08-2-3.36s.76-3.36,2.08-3.36a1.81,1.81,0,0,1,1.88,2h-.6c0-.88-.44-1.52-1.28-1.52s-1.48.76-1.48,2.88.56,2.88,1.48,2.88,1.28-.72,1.36-1.84h.6c-.08,1.36-.68,2.2-1.68,2.32l-.32.4h0a.78.78,0,0,1,.32,0,.67.67,0,0,1,.72.6c0,.52-.56.76-1,.76a1.58,1.58,0,0,1-.8-.2l.12-.28a1.28,1.28,0,0,0,.56.12c.44,0,.64-.2.64-.4s-.24-.32-.48-.32a1,1,0,0,0-.4.08l-.12-.16Z"/><path id="Shape-2" data-name="Shape" class="cls-12" d="M234.62,4.52c1.32,0,2.08,1,2.08,3.36s-.76,3.36-2.08,3.36-2.08-1-2.08-3.36S233.26,4.52,234.62,4.52Zm0,6.24c.92,0,1.48-.76,1.48-2.88S235.54,5,234.62,5s-1.48.76-1.48,2.88S233.66,10.76,234.62,10.76Z"/><polygon id="Path-9" data-name="Path" class="cls-12" points="239.86 4.64 240.66 4.64 243.14 10.32 243.14 10.32 243.14 4.64 243.74 4.64 243.74 11.16 242.94 11.16 240.46 5.48 240.46 5.48 240.46 11.16 239.86 11.16 239.86 4.64"/><path id="Shape-3" data-name="Shape" class="cls-12" d="M246.14,4.64h.72l1.92,6.52h-.64l-.52-1.88h-2.28l-.52,1.88h-.64Zm1.4,4.12-1-3.68h0l-1,3.68Z"/><path id="Path-10" data-name="Path" class="cls-12" d="M253.26,9c-.08,1.48-.76,2.32-1.92,2.32-1.32,0-2.08-1-2.08-3.36s.76-3.36,2.08-3.36a1.81,1.81,0,0,1,1.88,2h-.6c0-.88-.44-1.52-1.28-1.52s-1.48.76-1.48,2.88.56,2.88,1.48,2.88,1.28-.72,1.36-1.84Z"/><polygon id="Path-11" data-name="Path" class="cls-12" points="254.1 4.64 254.7 4.64 254.7 11.16 254.1 11.16 254.1 4.64"/><path id="Shape-4" data-name="Shape" class="cls-12" d="M257.74,4.52c1.32,0,2.08,1,2.08,3.36s-.76,3.36-2.08,3.36-2.08-1-2.08-3.36S256.42,4.52,257.74,4.52Zm0,6.24c.92,0,1.48-.76,1.48-2.88S258.66,5,257.74,5s-1.48.76-1.48,2.88S256.82,10.76,257.74,10.76Z"/><polygon id="Path-12" data-name="Path" class="cls-12" points="260.81 4.64 261.62 4.64 264.06 10.32 264.06 10.32 264.06 4.64 264.65 4.64 264.65 11.16 263.86 11.16 261.38 5.48 261.38 5.48 261.38 11.16 260.77 11.16 260.77 4.64 260.81 4.64"/><path id="Shape-5" data-name="Shape" class="cls-12" d="M267.09,4.64h.72l1.92,6.52h-.64l-.52-1.88h-2.28l-.52,1.88h-.64Zm1.4,4.12-1-3.68h0l-1,3.68Z"/><polygon id="Path-13" data-name="Path" class="cls-12" points="270.25 4.64 270.85 4.64 270.85 10.68 273.57 10.68 273.57 11.16 270.29 11.16 270.29 4.64 270.25 4.64"/><path id="Shape-6" data-name="Shape" class="cls-12" d="M208.94,15.36h1.56c1.88,0,2.36,1.12,2.36,3.24s-.48,3.24-2.36,3.24h-1.56Zm.6,6h1c1.28,0,1.8-.64,1.8-2.76s-.52-2.76-1.8-2.76h-1Z"/><polygon id="Path-14" data-name="Path" class="cls-12" points="213.86 15.36 217.1 15.36 217.1 15.84 214.46 15.84 214.46 18.2 216.94 18.2 216.94 18.72 214.46 18.72 214.46 21.4 217.18 21.4 217.18 21.88 213.86 21.88 213.86 15.36"/><path id="Path-15" data-name="Path" class="cls-12" d="M222.94,17c0-.8-.36-1.28-1.16-1.28a1.14,1.14,0,0,0-1.24,1.16c0,2,3.16.88,3.16,3.16a1.8,1.8,0,0,1-2,1.92,1.68,1.68,0,0,1-1.88-1.92v-.2h.6v.24a1.34,1.34,0,1,0,2.68.08c0-1.92-3.16-.84-3.16-3.2a1.64,1.64,0,0,1,1.8-1.72,1.58,1.58,0,0,1,1.76,1.8h-.6Z"/><path id="Shape-7" data-name="Shape" class="cls-12" d="M225.86,15.36h.72l1.92,6.52h-.64L227.34,20h-2.28l-.52,1.88h-.64Zm1.4,4.12-1-3.68h0l-1,3.68Z"/><path id="Shape-8" data-name="Shape" class="cls-12" d="M229,15.36h.6V20c0,1,.44,1.44,1.28,1.44s1.28-.48,1.28-1.44V15.36h.6V20A1.88,1.88,0,1,1,229,20Zm2.84-1.6L230.94,15h-.48l.68-1.28Z"/><path id="Shape-9" data-name="Shape" class="cls-12" d="M233.66,15.36h1.56c1.88,0,2.36,1.12,2.36,3.24s-.48,3.24-2.36,3.24h-1.56Zm.56,6h1c1.28,0,1.8-.64,1.8-2.76s-.52-2.76-1.8-2.76h-1Z"/><polygon id="Path-16" data-name="Path" class="cls-12" points="238.54 15.36 241.78 15.36 241.78 15.84 239.14 15.84 239.14 18.2 241.62 18.2 241.62 18.72 239.14 18.72 239.14 21.4 241.86 21.4 241.86 21.88 238.54 21.88 238.54 15.36"/></g></g></g></g></svg>