<svg id="Layer_1" data-name="Layer 1" xmlns="http://www.w3.org/2000/svg" xmlns:xlink="http://www.w3.org/1999/xlink" viewBox="0 0 80 42"><defs><style>.cls-1{fill:url(#linear-gradient);}.cls-2{fill:#5b5b5b;}.cls-3{fill:#fff;}</style><linearGradient id="linear-gradient" x1="50.58" y1="0.87" x2="50.58" y2="19.8" gradientUnits="userSpaceOnUse"><stop offset="0" stop-color="#b3b3b3"/><stop offset="1" stop-color="#8c8c8c"/></linearGradient></defs><title>TIpeople</title><rect class="cls-1" x="42.44" y="1" width="16.28" height="17.48"/><path class="cls-2" d="M11.2,19.5H8V36.41H5.09V19.5H1.88V16.93H11.2Z"/><path class="cls-2" d="M16,36.41H13.06V16.93H16Z"/><path class="cls-2" d="M39.58,34.85A1.4,1.4,0,0,1,38,36.41H33.05a1.4,1.4,0,0,1-1.6-1.56V25.39c0-1,.53-1.55,1.6-1.55H38c1.07,0,1.61.51,1.61,1.55V30l-.79.78H34.17v3.53h2.68V32.23h2.73Zm-2.73-5.91v-3H34.17v3Z"/><path class="cls-2" d="M50.58,34.85A1.39,1.39,0,0,1,49,36.41H43.9a1.4,1.4,0,0,1-1.61-1.56V25.39c0-1,.54-1.55,1.61-1.55H49a1.38,1.38,0,0,1,1.58,1.55ZM47.79,34V26.21h-2.7V34Z"/><path class="cls-2" d="M61.68,33.88A2.25,2.25,0,0,1,60.58,36a5.17,5.17,0,0,1-2.41.44l-1.05,0-1,0V41H53.29V23.84h2.85v.46l2-.31a12.57,12.57,0,0,1,2-.2,1.37,1.37,0,0,1,1.56,1.53Zm-2.86-.78V26.21l-2.68.05V34h1.77A.82.82,0,0,0,58.82,33.1Z"/><path class="cls-2" d="M29.08,33.88A2.25,2.25,0,0,1,28,36a5.17,5.17,0,0,1-2.41.44l-1.05,0-1,0V41H20.69V23.84h2.85v.46l2-.31a12.57,12.57,0,0,1,2-.2,1.37,1.37,0,0,1,1.56,1.53Zm-2.86-.78V26.21l-2.68.05V34h1.77A.82.82,0,0,0,26.22,33.1Z"/><path class="cls-2" d="M67.22,36.41h-2.8V16.93h2.8Z"/><path class="cls-2" d="M78.12,34.85a1.4,1.4,0,0,1-1.61,1.56H71.6A1.4,1.4,0,0,1,70,34.85V25.39c0-1,.54-1.55,1.61-1.55h4.91c1.07,0,1.61.51,1.61,1.55V30l-.79.78H72.72v3.53h2.67V32.23h2.73Zm-2.73-5.91v-3H72.72v3Z"/><path class="cls-3" d="M51.37,8.14l5.42,7.64V16H53.63l-3.05-4.54-3,4.54H44.38v-.19l5.43-7.64Z"/><rect class="cls-3" x="44.38" y="3.53" width="12.41" height="2.77"/></svg>