<svg id="Layer_1" data-name="Layer 1" xmlns="http://www.w3.org/2000/svg" viewBox="0 0 126 32"><defs><style>.cls-1{fill:#505050;}</style></defs><title>uniplaces</title><path class="cls-1" d="M24.23,1.71,2.05,1A1.36,1.36,0,0,0,.61,2.59L4.35,30.06a.93.93,0,0,0,1.58.68l3-2.11a4.75,4.75,0,0,1,3-.85l10.28.69A1.68,1.68,0,0,0,24,26.93L25.77,3.42a1.59,1.59,0,0,0-1.54-1.71m-.48,2.6-1.4,21.76a.56.56,0,0,1-.69.53l-7-1.48a2,2,0,0,1-1.79-1.72L11.08,7a.76.76,0,0,1,.58-.8L23.14,3.79a.48.48,0,0,1,.61.52"/><path class="cls-1" d="M57,12.21l-1.4,11.6a.46.46,0,0,0,.42.51h3.26a.46.46,0,0,0,.42-.41l1.4-11.58a.44.44,0,0,0-.42-.49H57.39a.42.42,0,0,0-.42.37"/><path class="cls-1" d="M121.81,16.86c-.9-.36-1.79-.7-1.72-1.42s.58-.8,1.28-.8a6.75,6.75,0,0,1,2.7.72.42.42,0,0,0,.6-.23l.71-2a.42.42,0,0,0-.13-.47,6.37,6.37,0,0,0-3.78-1.09c-2.47,0-4.94,1.18-5.27,4-.27,2.15,1.54,3,3.16,3.77.8.39,1.55.75,1.45,1.38s-.6.8-1.28.8a10.58,10.58,0,0,1-3.26-.69.43.43,0,0,0-.56.26L115,23.22a.41.41,0,0,0,.19.5,9.64,9.64,0,0,0,3.93.83c3.53,0,5.37-1.52,5.68-4.18.27-2.2-1.52-2.9-3-3.51"/><path class="cls-1" d="M50.63,11.45a17.73,17.73,0,0,0-5.57,1.07,1.34,1.34,0,0,0-1,1l-1.24,10.3a.46.46,0,0,0,.42.51h3.17a.45.45,0,0,0,.41-.41l1.08-8.84a.44.44,0,0,1,.27-.36,4.79,4.79,0,0,1,1.55-.28c.78,0,1.31.4,1.14,1.77L50,23.81a.46.46,0,0,0,.42.51H53.6a.47.47,0,0,0,.42-.41l1-8c.46-3.75-1.84-4.48-4.36-4.48"/><path class="cls-1" d="M68.21,11.5a19,19,0,0,0-4.89.75c-.79.29-.89.85-1,1.52l-1.84,15a.48.48,0,0,0,.42.54H64.1a.48.48,0,0,0,.41-.44l.56-4.46a9.68,9.68,0,0,0,1.57.13c4.57,0,6.31-3.17,6.75-6.73.63-5-2.15-6.31-5.18-6.31m1.09,6.28c-.26,2.2-1.18,3.58-2.78,3.58a3.88,3.88,0,0,1-.67-.06.42.42,0,0,1-.34-.47l.68-5.52h0c0-.47.43-.65.83-.7l.52,0c1.47,0,2,1.14,1.76,3.19"/><path class="cls-1" d="M92.64,13.44a.94.94,0,0,0-.48-1,9.75,9.75,0,0,0-4-.82c-4.93,0-6.86,3.34-7.27,6.63s.38,6.3,4.13,6.3A3.77,3.77,0,0,0,88,23.39l.2.77a.45.45,0,0,0,.41.33H91.3a.43.43,0,0,0,.41-.49,12.36,12.36,0,0,1,0-3.16Zm-4.9,7c-.06.49-.11.77-.53.91h-.07a2.52,2.52,0,0,1-.67.08c-1.3,0-1.64-1.5-1.45-3.07.22-1.84.85-3.79,2.61-3.79a1.79,1.79,0,0,1,.46,0,.41.41,0,0,1,.32.46Z"/><path class="cls-1" d="M110.34,21.49c-1.52,0-3-.44-3.21-1.74,0-.18.07-.29.23-.23h0a5.09,5.09,0,0,0,1.94.34c2.62,0,5.31-1.53,5.68-4.57.32-2.57-1.51-3.8-4.25-3.8-4.79,0-7,3.38-7.41,6.86s1.06,6.2,5.46,6.2a16.11,16.11,0,0,0,4.57-.64.41.41,0,0,0,.29-.4l0-2a.41.41,0,0,0-.53-.4,9.82,9.82,0,0,1-2.76.41m.13-7.19c.67,0,1.18.37,1.08,1-.17,1.49-1.85,2.13-3.31,2.13a4.64,4.64,0,0,1-.63,0,.42.42,0,0,1-.34-.54,3.35,3.35,0,0,1,3.2-2.56"/><path class="cls-1" d="M102.86,14.72A8.48,8.48,0,0,1,104,12.88a.45.45,0,0,0-.14-.72,11.22,11.22,0,0,0-3.63-.66c-3.45,0-6.5,1.74-7.08,6.53-.56,4.61,2.08,6.5,5.37,6.5a11.67,11.67,0,0,0,2.89-.35h0a1.25,1.25,0,0,0,1-1.16l0-1.41a.43.43,0,0,0-.52-.42,9.89,9.89,0,0,1-2.44.35c-1.67,0-2.69-.7-2.35-3.48s1.45-3.43,3.15-3.43a12.41,12.41,0,0,1,2.07.34.42.42,0,0,0,.47-.24"/><path class="cls-1" d="M79.41,21.41c-.7,0-1.21-.31-1.09-1.31L79.84,7.82a.42.42,0,0,0-.42-.47H76.16a.42.42,0,0,0-.42.36L74.19,20.32c-.31,2.54.31,4.21,3.12,4.21a9,9,0,0,0,2.82-.6.43.43,0,0,0,.21-.6,6.45,6.45,0,0,1-.58-1.72.25.25,0,0,0-.25-.2h-.1"/><path class="cls-1" d="M38.93,8.73a.44.44,0,0,1,.41-.39h3.35a.44.44,0,0,1,.41.5L43,9.35l-1.11,9c-.5,4.12-2.26,6.19-7,6.19-4.42,0-5.89-2-5.37-6.18l1.15-9.29,0-.33a.43.43,0,0,1,.42-.39h3.36a.45.45,0,0,1,.42.5L35,9l-1.13,9.2c-.24,1.86-.21,3,1.59,3s2.07-1,2.33-3l1.11-9Z"/><path class="cls-1" d="M57.61,7.16,57.26,10a.45.45,0,0,0,.41.51h3.27a.47.47,0,0,0,.41-.43l.36-2.79a.4.4,0,0,0-.42-.44H58a.38.38,0,0,0-.42.31"/></svg>