<?xml version="1.0" standalone="no"?>
<!DOCTYPE svg PUBLIC "-//W3C//DTD SVG 20010904//EN"
 "http://www.w3.org/TR/2001/REC-SVG-20010904/DTD/svg10.dtd">
<svg version="1.0" xmlns="http://www.w3.org/2000/svg"
 width="700.000000pt" height="700.000000pt" viewBox="0 0 700.000000 700.000000"
 preserveAspectRatio="xMidYMid meet">
<metadata>
Created by potrace 1.11, written by Peter Selinger 2001-2013
</metadata>
<g transform="translate(0.000000,700.000000) scale(0.100000,-0.100000)"
fill="#000000" stroke="none">
<path d="M1807 5193 c-928 -928 -1686 -1691 -1685 -1695 6 -16 3373 -3378
3381 -3375 16 5 3377 3371 3375 3379 -4 12 -3370 3378 -3378 3378 -3 0 -765
-759 -1693 -1687z m3068 -323 l1370 -1370 -1373 -1373 -1372 -1372 -1372 1372
-1373 1373 1370 1370 c753 753 1372 1370 1375 1370 3 0 622 -617 1375 -1370z"/>
<path d="M2747 4504 c-1 -1 -47 -4 -102 -7 -97 -6 -229 -33 -283 -59 l-27 -13
0 -919 c0 -624 3 -924 10 -933 12 -17 164 -58 244 -67 44 -5 448 -8 804 -6
l67 0 -81 117 c-44 65 -100 145 -122 178 -23 33 -107 155 -187 270 -79 116
-148 212 -152 213 -4 2 -8 8 -8 14 0 6 -22 40 -48 77 -27 36 -59 80 -71 98
l-22 32 263 383 c298 434 273 397 356 518 35 50 61 94 58 97 -4 4 -693 11
-699 7z"/>
<path d="M3694 4491 c-8 -16 -271 -399 -586 -851 l-96 -139 212 -308 c117
-169 270 -391 340 -493 71 -102 131 -191 133 -197 3 -7 10 -13 17 -13 6 0 158
73 336 161 179 89 487 241 685 339 1023 505 1028 508 1003 521 -99 55 -2011
999 -2023 999 -6 0 -16 -8 -21 -19z m495 -606 l351 -175 -2 -206 -3 -206 -230
-117 c-357 -183 -472 -241 -477 -241 -2 0 -53 71 -112 158 -59 86 -145 212
-191 279 l-84 122 33 48 c18 27 72 107 121 178 49 72 120 176 158 233 38 56
73 102 77 102 5 0 166 -79 359 -175z"/>
<path d="M2030 4279 c-141 -118 -218 -216 -288 -369 -59 -127 -83 -232 -88
-380 -7 -258 61 -459 223 -662 51 -65 219 -216 228 -206 3 3 4 382 3 842 l-3
838 -75 -63z"/>
</g>
</svg>
