<svg width="30" height="30" viewBox="0 0 30 30" fill="none" xmlns="http://www.w3.org/2000/svg">
<rect x="0.5" y="0.5" width="29" height="29" rx="14.5" stroke="white"/>
<path d="M17.5641 10.9014H21.3769V11.9262H17.5641V10.9014ZM20.4681 14.3369C20.2424 14.0982 19.9023 13.9788 19.4449 13.9788C19.147 13.9788 18.8972 14.0283 18.6986 14.1244C18.5 14.2234 18.3435 14.3428 18.2232 14.4883C18.1028 14.6339 18.0216 14.7853 17.9734 14.9484C17.9253 15.1114 17.8952 15.2541 17.8861 15.3822H20.9375C20.8473 14.9222 20.6908 14.5728 20.4681 14.334V14.3369ZM18.3466 17.8133C18.6264 18.0782 19.0327 18.2092 19.5623 18.2092C19.9415 18.2092 20.2665 18.1161 20.5403 17.9355C20.8142 17.7521 20.9797 17.5571 21.0429 17.3532H22.6949C22.4301 18.1452 22.0239 18.7129 21.4792 19.0536C20.9315 19.3942 20.2725 19.566 19.4961 19.566C18.9574 19.566 18.4729 19.4815 18.0426 19.3156C17.6123 19.1496 17.2452 18.9138 16.9442 18.6052C16.6463 18.2995 16.4116 17.9326 16.2521 17.5046C16.0896 17.0796 16.0084 16.6108 16.0084 16.0984C16.0084 15.586 16.0926 15.1434 16.2581 14.7183C16.4266 14.2933 16.6644 13.9235 16.9713 13.612C17.2783 13.3005 17.6484 13.0559 18.0757 12.8783C18.503 12.7007 18.9755 12.6104 19.4961 12.6104C20.0769 12.6104 20.5824 12.7182 21.0158 12.9365C21.4461 13.1549 21.8012 13.446 22.081 13.8129C22.3579 14.1797 22.5595 14.5961 22.6829 15.0648C22.8063 15.5336 22.8484 16.0227 22.8153 16.5351H17.8861C17.9132 17.1203 18.0667 17.5483 18.3466 17.8104V17.8133ZM12.1264 18.0054C12.322 18.0054 12.5176 17.988 12.7072 17.9472C12.8938 17.9093 13.0563 17.8453 13.1977 17.755C13.3391 17.6648 13.4505 17.5425 13.5347 17.3911C13.619 17.2368 13.6611 17.0417 13.6611 16.803C13.6611 16.3342 13.5257 15.9994 13.2519 15.7985C12.978 15.5976 12.6169 15.4986 12.1685 15.4986H9.90858V18.0054H12.1294H12.1264ZM12.006 14.1302C12.3762 14.1302 12.6801 14.0458 12.9178 13.874C13.1556 13.7022 13.2759 13.4256 13.2759 13.0442C13.2759 12.8317 13.2368 12.657 13.1556 12.5202C13.0743 12.3833 12.972 12.2756 12.8396 12.1999C12.7072 12.1242 12.5567 12.0689 12.3852 12.0398C12.2077 12.0107 12.0301 11.9961 11.8496 11.9961H9.90858V14.1331H12.009L12.006 14.1302ZM12.2709 10.4355C12.7192 10.4355 13.1285 10.4734 13.4986 10.552C13.8688 10.6277 14.1878 10.7529 14.4496 10.9305C14.7144 11.1052 14.919 11.3381 15.0635 11.6263C15.2079 11.9175 15.2801 12.2756 15.2801 12.7007C15.2801 13.1607 15.1718 13.545 14.9551 13.8507C14.7385 14.1564 14.4195 14.4097 13.9982 14.6048C14.579 14.7678 15.0123 15.0503 15.3012 15.455C15.5871 15.8597 15.7315 16.3488 15.7315 16.9194C15.7315 17.3795 15.6382 17.7783 15.4547 18.1161C15.2711 18.4538 15.0213 18.7275 14.7084 18.94C14.3954 19.1526 14.0403 19.3098 13.6371 19.4117C13.2338 19.5136 12.8185 19.566 12.4003 19.566H7.82617V10.4385H12.2678L12.2709 10.4355Z" fill="white"/>
</svg>
