<svg width="30" height="30" viewBox="0 0 30 30" fill="none" xmlns="http://www.w3.org/2000/svg">
<rect x="0.5" y="0.5" width="29" height="29" rx="14.5" stroke="white"/>
<path fill-rule="evenodd" clip-rule="evenodd" d="M18.4172 20.0811C18.3539 19.7069 18.0286 17.9192 17.2254 15.7169C19.1484 15.4146 20.8267 15.9127 21.0398 15.9817C20.7749 17.686 19.7933 19.157 18.4172 20.0811ZM15.0001 21.1319C13.5837 21.1319 12.2768 20.6482 11.2404 19.8393C11.3498 19.6148 12.5934 17.2167 16.048 16.0105C16.0624 16.0019 16.071 16.0019 16.0883 15.9961C16.9519 18.2301 17.3031 20.1042 17.3952 20.6425C16.6554 20.962 15.8464 21.1319 14.9972 21.1319H15.0001ZM8.86829 15.0087V14.8216C9.13314 14.8302 12.104 14.8677 15.1642 13.9493C15.3427 14.2919 15.5068 14.6431 15.6622 14.9914C15.5845 15.0145 15.4981 15.0375 15.4204 15.0605C12.2624 16.0796 10.5812 18.8663 10.4401 19.0995C9.46708 18.017 8.86829 16.5777 8.86829 15.0058V15.0087ZM12.3919 9.46132C12.556 9.6801 13.6442 11.1972 14.6633 13.0022C11.7989 13.7651 9.27132 13.7507 8.99784 13.7507C9.39511 11.8507 10.679 10.2731 12.389 9.4642L12.3919 9.46132ZM15.0001 8.88556C16.5575 8.88556 17.9796 9.46995 19.062 10.4257C18.9526 10.5812 18.0286 11.819 15.8493 12.6366C14.8446 10.7913 13.7334 9.28283 13.5607 9.04965C14.0184 8.94026 14.5021 8.88556 15.0001 8.88556ZM19.7386 11.1339C20.5936 12.176 21.1089 13.506 21.1232 14.9454C20.9217 14.9051 18.898 14.4934 16.8598 14.7496C16.8137 14.6489 16.7734 14.5395 16.7274 14.4301C16.6036 14.1336 16.4625 13.8313 16.3243 13.5434C18.5813 12.6251 19.609 11.3037 19.7414 11.131L19.7386 11.1339ZM15.0001 7.82617C11.0389 7.82617 7.82617 11.0389 7.82617 15.0001C7.82617 18.9613 11.0389 22.174 15.0001 22.174C18.9613 22.174 22.174 18.9613 22.174 15.0001C22.174 11.0389 18.9527 7.82617 15.0001 7.82617Z" fill="white"/>
</svg>
