<svg width="30" height="30" viewBox="0 0 30 30" fill="none" xmlns="http://www.w3.org/2000/svg">
<rect x="0.5" y="0.5" width="29" height="29" rx="14.5" stroke="white"/>
<path d="M14.8153 7.82617C12.9167 7.82617 12.6785 7.83583 11.9352 7.86801C11.1918 7.90019 10.6833 8.02247 10.2392 8.19303C9.77905 8.37324 9.38645 8.61138 9.00028 9.00077C8.61089 9.38694 8.37276 9.77954 8.19254 10.2365C8.02199 10.6806 7.8997 11.1891 7.86752 11.9324C7.83534 12.679 7.82568 12.9172 7.82568 14.8158C7.82568 16.7145 7.83534 16.9526 7.86752 17.696C7.8997 18.4394 8.02199 18.9478 8.19254 19.3919C8.37276 19.8521 8.61089 20.2447 9.00028 20.6309C9.38967 21.017 9.77905 21.2584 10.236 21.4354C10.6801 21.606 11.1886 21.7282 11.9319 21.7604C12.6785 21.7926 12.9135 21.8023 14.8121 21.8023C16.7108 21.8023 16.9489 21.7926 17.6923 21.7604C18.4357 21.7282 18.9473 21.606 19.3882 21.4354C19.8484 21.2584 20.2378 21.017 20.624 20.6309C21.0133 20.2447 21.2515 19.8521 21.4285 19.3951C21.599 18.951 21.7213 18.4426 21.7535 17.6992C21.7857 16.9526 21.7953 16.7177 21.7953 14.819C21.7953 12.9204 21.7857 12.6822 21.7535 11.9389C21.7213 11.1955 21.599 10.687 21.4285 10.2429C21.2547 9.77954 21.0198 9.38694 20.6272 9.00077C20.2378 8.6146 19.8484 8.37324 19.3914 8.19625C18.9473 8.02569 18.4389 7.90341 17.6955 7.87122C16.9489 7.83583 16.7108 7.82617 14.8121 7.82617H14.8153ZM14.8153 9.08444C16.6818 9.08444 16.9039 9.09409 17.6376 9.12627C18.3198 9.15524 18.6899 9.27109 18.9345 9.36763C19.2595 9.49313 19.4944 9.6476 19.7358 9.88896C19.9803 10.1335 20.1316 10.3652 20.2571 10.6903C20.3536 10.9348 20.4663 11.3081 20.4985 11.9871C20.5306 12.7241 20.5403 12.9461 20.5403 14.8094C20.5403 16.6727 20.5338 16.8979 20.4985 17.6316C20.4695 18.3139 20.3536 18.6839 20.2571 18.9285C20.1316 19.2535 19.9771 19.4885 19.7358 19.7298C19.4912 19.9744 19.2595 20.1256 18.9345 20.2511C18.6899 20.3477 18.3166 20.4603 17.6376 20.4925C16.9006 20.5247 16.6786 20.5343 14.8153 20.5343C12.9521 20.5343 12.7268 20.5247 11.9931 20.4925C11.3109 20.4635 10.9408 20.3477 10.6962 20.2511C10.3712 20.1256 10.1363 19.9712 9.89169 19.7298C9.64711 19.4852 9.49586 19.2535 9.37036 18.9285C9.27382 18.6839 9.16118 18.3107 9.129 17.6316C9.09682 16.8947 9.08717 16.6727 9.08717 14.8094C9.08717 12.9461 9.09682 12.7209 9.129 11.9871C9.15797 11.3049 9.27382 10.9348 9.37036 10.6903C9.49586 10.3652 9.65033 10.1303 9.89169 9.88896C10.1363 9.64438 10.368 9.49313 10.6962 9.36763C10.9408 9.27109 11.3141 9.15845 11.9931 9.12627C12.7268 9.09409 12.9489 9.08444 14.8153 9.08444Z" fill="white"/>
<path d="M14.815 17.1478C13.5278 17.1478 12.4851 16.1052 12.4851 14.8179C12.4851 13.5307 13.5278 12.488 14.815 12.488C16.1022 12.488 17.1449 13.5307 17.1449 14.8179C17.1449 16.1052 16.1022 17.1478 14.815 17.1478ZM14.815 11.2266C12.8327 11.2266 11.2236 12.8356 11.2236 14.8179C11.2236 16.8003 12.8327 18.4093 14.815 18.4093C16.7973 18.4093 18.4064 16.8003 18.4064 14.8179C18.4064 12.8356 16.7973 11.2266 14.815 11.2266Z" fill="white"/>
<path d="M19.3885 11.0887C19.3885 11.5521 19.012 11.9254 18.5518 11.9254C18.0916 11.9254 17.7119 11.5488 17.7119 11.0887C17.7119 10.6285 18.0884 10.252 18.5518 10.252C19.0152 10.252 19.3885 10.6285 19.3885 11.0887Z" fill="white"/>
</svg>
