<svg width="30" height="30" viewBox="0 0 30 30" fill="none" xmlns="http://www.w3.org/2000/svg">
<rect x="0.5" y="0.5" width="29" height="29" rx="14.5" stroke="white"/>
<path d="M21.5147 20.4873H18.8145V16.2598C18.8145 15.252 18.7973 13.9518 17.4111 13.9518C16.0249 13.9518 15.791 15.0491 15.791 16.1842V20.4873H13.0908V11.7916H15.6844V12.9818H15.7222C16.2519 12.0771 17.2322 11.5371 18.2814 11.5784C21.0194 11.5784 21.5216 13.3774 21.5216 15.7198V20.4907L21.5147 20.4873Z" fill="white"/>
<path d="M10.0431 10.6004C9.17631 10.6004 8.47461 9.89868 8.47461 9.03531C8.47461 8.17194 9.17631 7.4668 10.0397 7.4668C10.9065 7.4668 11.6082 8.1685 11.6082 9.03187C11.6082 9.89524 10.9065 10.6004 10.0431 10.6004Z" fill="white"/>
<path d="M11.3921 11.791H8.68848V20.4866H11.3921V11.791Z" fill="white"/>
</svg>
