<svg width="30" height="30" viewBox="0 0 30 30" fill="none" xmlns="http://www.w3.org/2000/svg">
<rect x="0.5" y="0.5" width="29" height="29" rx="14.5" stroke="white"/>
<path d="M10.4429 12.5804C10.8038 13.0212 12.1792 18.3595 12.639 19.3436C13.0379 20.206 14.1436 21.3497 15.3594 20.5328C16.5715 19.7159 20.6027 16.1482 21.3209 11.9345C22.0428 7.72087 16.4727 8.60615 15.88 12.2727C17.3542 11.3532 18.1407 12.645 17.3884 14.1078C16.6361 15.5669 15.9483 16.5205 15.5874 16.5205C15.2264 16.5205 14.9529 15.5441 14.5387 13.8343C14.1132 12.0675 14.117 8.88732 12.3426 9.24827C10.6708 9.58643 8.47852 12.3069 8.47852 12.3069L9.00285 13.0212C9.00285 13.0212 10.0857 12.1359 10.4429 12.5804Z" fill="white"/>
</svg>
