<svg width="35" height="22" viewBox="0 0 35 22" fill="none"
  xmlns="http://www.w3.org/2000/svg">
  <path fill-rule="evenodd" clip-rule="evenodd" d="M14.8789 10.1956C15.6294 9.81894 16.1968 9.39939 16.5856 8.946C17.2773 8.12945 17.6187 7.04672 17.6187 5.7046C17.6187 4.39856 17.2773 3.282 16.5946 2.3459C15.4553 0.821065 13.5271 0.0406021 10.8009 0H0V21.9996H10.0707C11.2055 21.9996 12.2567 21.9026 13.2287 21.7041C14.2007 21.5033 15.0416 21.1357 15.7537 20.5988C16.3867 20.1319 16.9156 19.5522 17.3361 18.8687C18.0007 17.8356 18.333 16.6649 18.333 15.3611C18.333 14.098 18.0414 13.022 17.4627 12.1378C16.8772 11.2536 16.0182 10.6062 14.8789 10.1956ZM4.45526 3.8208H9.31994C10.3892 3.8208 11.2708 3.93584 11.9625 4.16366C12.7627 4.49525 13.1629 5.16969 13.1629 6.19828C13.1629 7.12085 12.8577 7.76597 12.2541 8.12914C11.646 8.4923 10.8571 8.67501 9.8896 8.67501H4.45526V3.8208ZM9.88282 18.1829C10.8526 18.1829 11.6099 18.0543 12.1479 17.7949C13.129 17.3122 13.6172 16.4009 13.6172 15.0475C13.6172 13.8994 13.1448 13.1144 12.1954 12.6858C11.6619 12.449 10.9159 12.3227 9.95742 12.3159H4.45526V18.1829H9.88282Z" fill="white"/>
  <rect x="21.9995" y="1.8335" width="9.16649" height="3.6666" fill="white"/>
  <path fill-rule="evenodd" clip-rule="evenodd" d="M33.3546 8.53034C34.0417 9.45561 34.483 10.5276 34.6832 11.7462C34.8015 12.4579 34.847 13.491 34.8288 14.8347H22.7101C22.7828 16.3941 23.3561 17.4898 24.4527 18.1152C25.117 18.5056 25.9132 18.7019 26.8528 18.7019C27.8401 18.7019 28.6454 18.4646 29.2642 17.9901C29.6055 17.7313 29.9035 17.3754 30.1606 16.9204H34.6013C34.483 17.8413 33.9439 18.7795 32.9906 19.7328C31.5005 21.2426 29.4144 21.9997 26.7322 21.9997C24.5164 21.9997 22.5645 21.3634 20.8742 20.0866C19.177 18.8119 18.333 16.7349 18.333 13.8598C18.333 11.1638 19.0974 9.09543 20.6239 7.65683C22.155 6.22255 24.1342 5.50001 26.5707 5.50001C28.0221 5.49786 29.3257 5.74158 30.4836 6.22902C31.6461 6.7143 32.6016 7.48213 33.3546 8.53034ZM23.9798 9.74226C23.3656 10.3354 22.9788 11.1377 22.8196 12.1493H30.3156C30.236 11.0687 29.847 10.2513 29.1576 9.68834C28.4592 9.12973 27.6016 8.8515 26.5756 8.8515C25.4631 8.85366 24.5941 9.1513 23.9798 9.74226Z" fill="white"/>
</svg>
