<?xml version="1.0" encoding="UTF-8" standalone="no"?>
<svg xmlns:dc="http://purl.org/dc/elements/1.1/"
   xmlns:cc="http://creativecommons.org/ns#"
   xmlns:rdf="http://www.w3.org/1999/02/22-rdf-syntax-ns#"
   xmlns:svg="http://www.w3.org/2000/svg"
   xmlns="http://www.w3.org/2000/svg"
   xmlns:sodipodi="http://sodipodi.sourceforge.net/DTD/sodipodi-0.dtd"
   xmlns:inkscape="http://www.inkscape.org/namespaces/inkscape" width="128" height="128" viewBox="0 0 128 128" fill="none" version="1.1" id="svg101" sodipodi:docname="mouse view.svg" inkscape:version="1.0.1 (c497b03c, 2020-09-10)">
   <metadata id="metadata105">
      <rdf:RDF>
         <cc:Work rdf:about="">
            <dc:format>image/svg+xml</dc:format>
            <dc:type rdf:resource="http://purl.org/dc/dcmitype/StillImage" />
         </cc:Work>
      </rdf:RDF>
   </metadata>
   <sodipodi:namedview pagecolor="#ffffff" bordercolor="#666666" borderopacity="1" objecttolerance="10" gridtolerance="10" guidetolerance="10" inkscape:pageopacity="0" inkscape:pageshadow="2" inkscape:window-width="1252" inkscape:window-height="916" id="namedview103" showgrid="false" inkscape:zoom="3.4802131" inkscape:cx="82.344194" inkscape:cy="82.332823" inkscape:window-x="1946" inkscape:window-y="108" inkscape:window-maximized="0" inkscape:current-layer="g80" />
   <g id="g80" transform="translate(-0.15580575,-0.16717685)">
      <g id="g109" transform="matrix(0.94814815,0,0,0.94814815,-6.4812313,-4.5735639)">
         <circle cx="74.5" cy="72.5" r="67.5" fill="#2a34ff" id="circle76" />
         <path d="m 44.7503,69.2 h 4.13 c 1.036,0 1.9553,0.2053 2.758,0.616 0.8026,0.4107 1.4233,0.9893 1.862,1.736 0.448,0.7373 0.672,1.5867 0.672,2.548 0,0.9613 -0.224,1.8153 -0.672,2.562 -0.4387,0.7373 -1.0594,1.3113 -1.862,1.722 C 50.8356,78.7947 49.9163,79 48.8803,79 h -4.13 z m 4.046,8.582 c 0.7933,0 1.4886,-0.154 2.086,-0.462 0.6066,-0.308 1.0733,-0.7373 1.4,-1.288 0.3266,-0.56 0.49,-1.204 0.49,-1.932 0,-0.728 -0.1634,-1.3673 -0.49,-1.918 -0.3267,-0.56 -0.7934,-0.994 -1.4,-1.302 -0.5974,-0.308 -1.2927,-0.462 -2.086,-0.462 h -2.646 v 7.364 z m 8.6124,-4.956 c 0.2333,-0.4293 0.5786,-0.756 1.036,-0.98 0.4573,-0.224 1.0126,-0.336 1.666,-0.336 v 1.302 c -0.0747,-0.0093 -0.1774,-0.014 -0.308,-0.014 -0.728,0 -1.302,0.2193 -1.722,0.658 -0.4107,0.4293 -0.616,1.0453 -0.616,1.848 V 79 h -1.344 v -7.42 h 1.288 z m 7.0468,-1.316 c 1.0267,0 1.8107,0.252 2.352,0.756 0.5507,0.504 0.826,1.2553 0.826,2.254 V 79 h -1.274 v -0.98 c -0.224,0.3453 -0.546,0.6113 -0.966,0.798 -0.4107,0.1773 -0.9007,0.266 -1.47,0.266 -0.8307,0 -1.498,-0.2007 -2.002,-0.602 -0.4947,-0.4013 -0.742,-0.9287 -0.742,-1.582 0,-0.6533 0.238,-1.176 0.714,-1.568 0.476,-0.4013 1.232,-0.602 2.268,-0.602 h 2.128 v -0.266 c 0,-0.5787 -0.168,-1.022 -0.504,-1.33 -0.336,-0.308 -0.8307,-0.462 -1.484,-0.462 -0.4387,0 -0.868,0.0747 -1.288,0.224 -0.42,0.14 -0.7747,0.3313 -1.064,0.574 l -0.56,-1.008 c 0.3827,-0.308 0.84,-0.5413 1.372,-0.7 0.532,-0.168 1.0967,-0.252 1.694,-0.252 z m -0.308,6.538 c 0.5133,0 0.9567,-0.112 1.33,-0.336 0.3733,-0.2333 0.644,-0.56 0.812,-0.98 v -1.036 h -2.072 c -1.1387,0 -1.708,0.3827 -1.708,1.148 0,0.3733 0.1447,0.6673 0.434,0.882 0.2893,0.2147 0.6907,0.322 1.204,0.322 z M 77.2597,71.58 v 6.412 c 0,1.2973 -0.322,2.254 -0.966,2.87 -0.644,0.6253 -1.6053,0.938 -2.884,0.938 -0.7,0 -1.3673,-0.098 -2.002,-0.294 -0.6347,-0.1867 -1.148,-0.4573 -1.54,-0.812 l 0.644,-1.036 c 0.3453,0.2987 0.77,0.532 1.274,0.7 0.5133,0.1773 1.0407,0.266 1.582,0.266 0.868,0 1.5073,-0.2053 1.918,-0.616 0.42,-0.4107 0.63,-1.036 0.63,-1.876 v -0.588 c -0.3173,0.3827 -0.7093,0.672 -1.176,0.868 -0.4573,0.1867 -0.9567,0.28 -1.498,0.28 -0.7093,0 -1.3533,-0.1493 -1.932,-0.448 -0.5693,-0.308 -1.0173,-0.7327 -1.344,-1.274 -0.3267,-0.5507 -0.49,-1.176 -0.49,-1.876 0,-0.7 0.1633,-1.3207 0.49,-1.862 0.3267,-0.5507 0.7747,-0.9753 1.344,-1.274 0.5787,-0.2987 1.2227,-0.448 1.932,-0.448 0.56,0 1.078,0.1027 1.554,0.308 0.4853,0.2053 0.882,0.5087 1.19,0.91 V 71.58 Z m -3.864,5.936 c 0.4853,0 0.9193,-0.1027 1.302,-0.308 0.392,-0.2053 0.6953,-0.49 0.91,-0.854 0.224,-0.3733 0.336,-0.7933 0.336,-1.26 0,-0.7187 -0.238,-1.2973 -0.714,-1.736 -0.476,-0.448 -1.0873,-0.672 -1.834,-0.672 -0.756,0 -1.372,0.224 -1.848,0.672 -0.476,0.4387 -0.714,1.0173 -0.714,1.736 0,0.4667 0.1073,0.8867 0.322,1.26 0.224,0.364 0.5273,0.6487 0.91,0.854 0.392,0.2053 0.8353,0.308 1.33,0.308 z M 92.8695,71.51 c 0.9333,0 1.6706,0.2707 2.212,0.812 0.5506,0.5413 0.826,1.344 0.826,2.408 V 79 h -1.344 v -4.116 c 0,-0.7187 -0.168,-1.26 -0.504,-1.624 -0.3267,-0.364 -0.798,-0.546 -1.414,-0.546 -0.6814,0 -1.2227,0.2147 -1.624,0.644 -0.4014,0.42 -0.602,1.0267 -0.602,1.82 V 79 h -1.344 v -4.116 c 0,-0.7187 -0.168,-1.26 -0.504,-1.624 -0.3267,-0.364 -0.798,-0.546 -1.414,-0.546 -0.6814,0 -1.2227,0.2147 -1.624,0.644 -0.4014,0.42 -0.602,1.0267 -0.602,1.82 V 79 h -1.344 v -7.42 h 1.288 v 1.106 c 0.2706,-0.3827 0.6253,-0.672 1.064,-0.868 0.4386,-0.2053 0.938,-0.308 1.498,-0.308 0.5786,0 1.092,0.1167 1.54,0.35 0.448,0.2333 0.7933,0.574 1.036,1.022 0.28,-0.4293 0.6673,-0.7653 1.162,-1.008 0.504,-0.2427 1.0686,-0.364 1.694,-0.364 z m 12.2575,3.822 c 0,0.1027 -0.009,0.238 -0.028,0.406 h -6.0195 c 0.084,0.6533 0.3686,1.1807 0.854,1.582 0.4945,0.392 1.1055,0.588 1.8335,0.588 0.887,0 1.601,-0.2987 2.142,-0.896 l 0.742,0.868 c -0.336,0.392 -0.756,0.6907 -1.26,0.896 -0.494,0.2053 -1.05,0.308 -1.666,0.308 -0.784,0 -1.479,-0.1587 -2.0855,-0.476 -0.6067,-0.3267 -1.078,-0.7793 -1.414,-1.358 -0.3267,-0.5787 -0.49,-1.232 -0.49,-1.96 0,-0.7187 0.1586,-1.3673 0.476,-1.946 0.3266,-0.5787 0.77,-1.0267 1.33,-1.344 0.5695,-0.3267 1.2085,-0.49 1.9175,-0.49 0.71,0 1.34,0.1633 1.89,0.49 0.56,0.3173 0.994,0.7653 1.302,1.344 0.318,0.5787 0.476,1.2413 0.476,1.988 z m -3.668,-2.688 c -0.644,0 -1.185,0.196 -1.6235,0.588 -0.4294,0.392 -0.6814,0.9053 -0.756,1.54 h 4.7595 c -0.074,-0.6253 -0.331,-1.134 -0.77,-1.526 -0.429,-0.4013 -0.966,-0.602 -1.61,-0.602 z" fill="#ffffff" id="path78" />
      </g>
   </g>

</svg>
