<svg width="625" height="550" viewBox="0 0 625 550" fill="none" xmlns="http://www.w3.org/2000/svg">
    <g clip-path="url(#clip0_1355_1493)">
        <path
            d="M95.254 224.704C130.486 224.704 159.047 196.222 159.047 161.088C159.047 125.953 130.486 97.4709 95.254 97.4709C60.022 97.4709 31.4609 125.953 31.4609 161.088C31.4609 196.222 60.022 224.704 95.254 224.704Z"
            fill="url(#paint0_linear_1355_1493)" />
        <path
            d="M281.604 549.623C280.953 549.623 280.322 549.368 279.858 548.905L6.75515 276.548C6.29159 276.086 6.03516 275.466 6.03516 274.807C6.03516 274.148 6.29159 273.528 6.75515 273.066L279.868 0.718278C280.834 -0.245611 282.393 -0.245611 283.359 0.718278L556.472 273.076C557.438 274.04 557.438 275.594 556.472 276.558L283.359 548.915C282.896 549.377 282.274 549.633 281.614 549.633L281.604 549.623ZM11.9825 274.817L281.604 543.693L551.225 274.817L281.604 5.94098L11.9825 274.817Z"
            fill="#08142D" />
        <mask id="mask0_1355_1493" style="mask-type:luminance" maskUnits="userSpaceOnUse" x="8"
            y="2" width="547" height="546">
            <path
                d="M554.719 274.805L281.613 2.4541L8.50753 274.805L281.613 547.156L554.719 274.805Z"
                fill="white" />
        </mask>
        <g mask="url(#mask0_1355_1493)">
            <path
                d="M401.57 340.232L215.941 525.348L4.73721 314.719L2.46875 312.388C82.5355 227.831 177.811 236.309 177.811 236.309L308.859 278.278C308.859 278.278 327.273 290.376 360.175 310.411L401.57 340.222V340.232Z"
                fill="#08142D" />
            <path
                d="M215.935 527.807C215.304 527.807 214.673 527.571 214.19 527.089L2.98624 316.46L0.69805 314.099C-0.219196 313.155 -0.229059 311.66 0.678325 310.696C42.4476 266.583 88.3789 248.033 119.565 240.253C153.405 231.795 177.036 233.772 178.032 233.86C178.21 233.88 178.397 233.91 178.565 233.969L309.613 275.937C309.83 276.006 310.027 276.104 310.215 276.222C310.402 276.34 328.984 288.527 361.462 308.316C361.521 308.345 361.57 308.385 361.62 308.424L403.014 338.236C403.596 338.659 403.971 339.318 404.03 340.036C404.089 340.754 403.823 341.462 403.32 341.973L217.691 527.089C217.208 527.571 216.576 527.807 215.945 527.807H215.935ZM5.88592 312.378L6.49742 313.007L215.935 521.866L397.777 340.527L358.809 312.457C328.481 293.976 310.234 282.114 307.778 280.511L177.322 238.729C174.649 238.542 151.768 237.234 120.542 245.063C90.46 252.607 46.3237 270.409 5.87605 312.358L5.88592 312.378Z"
                fill="#08142D" />
            <path
                d="M84.7191 400.211C84.4627 400.211 84.2063 400.171 83.9498 400.083C82.6578 399.66 81.9575 398.263 82.3816 396.975C87.7865 380.648 98.8329 360.731 115.215 337.784C127.376 320.739 138.117 308.287 138.225 308.169C139.113 307.146 140.671 307.028 141.707 307.913C142.733 308.799 142.851 310.353 141.963 311.385C141.539 311.877 99.6121 360.642 87.0665 398.529C86.7213 399.561 85.7646 400.22 84.729 400.22L84.7191 400.211Z"
                fill="#08142D" />
            <path
                d="M197.306 201.177C201.093 193.515 212.327 190.21 242.428 195.335C272.52 200.459 321.203 218.114 327.002 236.792C332.802 255.47 306.596 260.122 317.672 280.619C317.287 298.599 227.969 298.992 177.797 236.31C181.446 228.835 194.12 227.664 197.286 222.432C199.88 218.163 193.686 208.495 197.296 201.177H197.306Z"
                fill="#08142D" />
            <path
                d="M289.998 293.573C277.699 293.573 263.22 291.291 249.077 286.895C228.464 280.492 199.033 266.781 175.875 237.844C175.283 237.107 175.165 236.084 175.589 235.238C177.995 230.31 183.302 227.861 187.987 225.707C191.024 224.301 194.171 222.855 195.196 221.163C195.867 220.062 195.295 217.259 194.743 214.554C193.855 210.236 192.75 204.866 195.108 200.095C200 190.201 214.281 188.057 242.854 192.915C269.769 197.499 322.782 214.859 329.371 236.074C332.428 245.929 327.595 252.44 323.325 258.184C318.482 264.705 314.655 269.85 319.853 279.469C320.06 279.842 320.159 280.265 320.149 280.688C320.08 283.777 318.236 288.055 309.793 290.898C304.447 292.698 297.652 293.583 290.008 293.583L289.998 293.573ZM180.816 236.113C220.139 283.964 284.435 294.252 308.205 286.236C312.239 284.878 314.724 283.029 315.148 281.111C309.033 269.151 314.507 261.774 319.35 255.253C323.433 249.755 326.964 245.005 324.646 237.53C319.429 220.721 273.004 203.046 242.015 197.774C208.728 192.109 201.824 197.637 199.526 202.279C197.918 205.535 198.757 209.626 199.566 213.57C200.345 217.367 201.084 220.957 199.408 223.711C197.603 226.691 193.934 228.383 190.048 230.173C186.478 231.825 182.799 233.517 180.806 236.123L180.816 236.113Z"
                fill="#08142D" />
            <path
                d="M255.897 258.519C255.68 258.519 255.453 258.49 255.236 258.43C206.168 244.808 195.516 224.389 195.092 223.524C194.49 222.304 194.984 220.829 196.207 220.229C197.42 219.629 198.899 220.121 199.501 221.321C199.55 221.419 202.105 226.219 210.291 232.553C217.934 238.454 232.157 246.913 256.557 253.69C257.869 254.054 258.639 255.411 258.274 256.719C257.968 257.811 256.982 258.519 255.897 258.519Z"
                fill="#08142D" />
            <path
                d="M231.7 198.216C220.22 196.643 203.926 201.147 222.685 214.524C243.851 229.621 298.048 250.374 311.984 242.654C321.324 237.47 315.317 228.598 297.781 218.861C280.235 209.114 255.992 201.541 231.71 198.216H231.7Z"
                fill="#08142D" />
            <path
                d="M303.301 246.765C292.61 246.765 278.309 242.565 269.245 239.477C250.841 233.212 232.003 224.202 221.242 216.53C213.48 210.993 210.403 206.016 212.109 201.747C214.516 195.699 225.345 194.872 232.032 195.787C256.69 199.161 281.09 206.783 298.972 216.717C312.148 224.035 318.826 230.763 318.826 236.713C318.826 238.975 317.849 242.221 313.174 244.808C310.659 246.204 307.227 246.765 303.301 246.765ZM227.2 200.371C221.765 200.371 217.386 201.836 216.696 203.567C216.173 204.885 217.8 208.023 224.122 212.527C244.972 227.399 298.232 247.463 310.787 240.51C313.904 238.788 313.904 237.224 313.904 236.713C313.904 235.287 312.661 229.936 296.585 221.006C279.226 211.367 255.457 203.941 231.381 200.656C229.961 200.459 228.561 200.371 227.219 200.371H227.2Z"
                fill="#08142D" />
            <path
                d="M273.204 378.523H266.152C265.067 378.523 264.002 378.71 262.976 379.074L262.641 379.192V396.581L262.976 396.699C263.992 397.063 265.067 397.25 266.152 397.25H273.204L266.734 387.877L273.204 378.503V378.523Z"
                fill="#08142D" />
            <path
                d="M256.223 387.887C256.223 390.72 257.495 393.366 259.724 395.165L260.543 395.824V379.94L259.724 380.599C257.505 382.399 256.223 385.045 256.223 387.877V387.887Z"
                fill="#08142D" />
            <path
                d="M275.594 378.366L269.016 387.887L275.594 397.407L294.837 387.887L275.594 378.366ZM276.709 393.129L273.089 387.896L276.709 382.664L283.415 385.978V389.814L276.709 393.129Z"
                fill="#08142D" />
            <path
                d="M273.596 356.206L241.828 387.886L273.596 419.566L305.365 387.886L273.596 356.206ZM247.844 387.886L273.596 362.205L299.348 387.886L273.596 413.567L247.844 387.886Z"
                fill="#08142D" />
            <path
                d="M222.927 85.1169C221.142 84.1825 219.228 83.4154 217.207 82.8449C201.643 78.4877 185.488 87.5365 181.128 103.057C176.759 118.578 185.833 134.688 201.396 139.036C203.418 139.606 205.45 139.941 207.472 140.068C206.86 130.626 207.807 120.909 210.52 111.28C213.232 101.651 217.483 92.8674 222.937 85.1169H222.927Z"
                fill="#08142D" />
            <path
                d="M207.463 142.527C207.414 142.527 207.355 142.527 207.306 142.527C205.077 142.39 202.867 142.006 200.727 141.416C183.881 136.705 174.019 119.197 178.753 102.398C181.041 94.2639 186.377 87.497 193.764 83.3563C201.151 79.2155 209.712 78.2024 217.879 80.4744C220.019 81.0744 222.1 81.9006 224.082 82.9333C224.714 83.2579 225.167 83.848 225.335 84.5267C225.503 85.2053 225.365 85.943 224.96 86.5135C219.526 94.2344 215.472 102.782 212.898 111.929C210.324 121.076 209.328 130.479 209.939 139.891C209.988 140.599 209.722 141.288 209.219 141.79C208.756 142.252 208.124 142.508 207.473 142.508L207.463 142.527ZM209.308 84.212C197.601 84.212 186.811 91.9329 183.497 103.716C179.502 117.899 187.827 132.682 202.059 136.665C202.976 136.921 203.913 137.127 204.86 137.285C204.574 128.295 205.678 119.335 208.134 110.601C210.59 101.867 214.328 93.6443 219.259 86.1201C218.372 85.766 217.455 85.4611 216.537 85.1955C214.121 84.5169 211.695 84.2021 209.308 84.2021V84.212Z"
                fill="#08142D" />
            <path
                d="M293.538 220.524C341.167 220.524 379.779 182.019 379.779 134.522C379.779 87.0237 341.167 48.519 293.538 48.519C245.908 48.519 207.297 87.0237 207.297 134.522C207.297 182.019 245.908 220.524 293.538 220.524Z"
                fill="#08142D" />
            <path
                d="M293.511 222.982C285.601 222.982 277.563 221.92 269.574 219.687C246.761 213.304 227.805 198.442 216.206 177.837C204.607 157.231 201.737 133.36 208.138 110.611C214.539 87.8608 229.442 68.9568 250.105 57.3901C270.767 45.8235 294.704 42.9613 317.517 49.3446C340.33 55.7279 359.286 70.5895 370.885 91.1951C382.494 111.791 385.354 135.672 378.953 158.421C367.976 197.42 332.282 222.992 293.521 222.992L293.511 222.982ZM293.57 50.9576C256.959 50.9576 223.248 75.104 212.882 111.938C206.836 133.419 209.539 155.972 220.496 175.427C231.454 194.882 249.355 208.917 270.905 214.947C315.377 227.398 361.713 201.432 374.199 157.084C380.245 135.603 377.543 113.05 366.585 93.595C355.627 74.1401 337.726 60.1047 316.176 54.0755C308.641 51.9609 301.036 50.9576 293.57 50.9576Z"
                fill="#08142D" />
            <path
                d="M293.845 168.287C312.713 168.287 328.01 153.033 328.01 134.216C328.01 115.4 312.713 100.146 293.845 100.146C274.976 100.146 259.68 115.4 259.68 134.216C259.68 153.033 274.976 168.287 293.845 168.287Z"
                fill="#08142D" />
            <path
                d="M293.899 170.766C290.575 170.766 287.231 170.313 283.947 169.389C274.528 166.753 266.697 160.616 261.903 152.108C257.11 143.6 255.927 133.745 258.57 124.342C264.024 104.946 284.292 93.5958 303.742 99.0349C323.191 104.474 334.573 124.686 329.119 144.082C326.476 153.475 320.321 161.284 311.79 166.064C306.237 169.173 300.102 170.766 293.908 170.766H293.899ZM293.859 102.595C280.002 102.595 267.249 111.733 263.324 125.67C261.035 133.804 262.061 142.331 266.204 149.698C270.356 157.065 277.122 162.376 285.278 164.658C293.435 166.94 301.986 165.917 309.373 161.786C316.761 157.655 322.087 150.898 324.375 142.764C326.663 134.63 325.637 126.102 321.495 118.736C317.343 111.369 310.577 106.057 302.42 103.776C299.57 102.979 296.69 102.595 293.869 102.595H293.859Z"
                fill="#08142D" />
            <path
                d="M376.928 193.997C373.604 193.997 370.261 193.545 366.977 192.62C347.527 187.181 336.145 166.969 341.599 147.573C344.243 138.18 350.397 130.371 358.928 125.591C367.46 120.811 377.342 119.63 386.771 122.266C396.19 124.902 404.022 131.04 408.815 139.547C413.608 148.055 414.792 157.92 412.149 167.313C409.505 176.706 403.351 184.516 394.819 189.296C389.267 192.404 383.132 193.997 376.938 193.997H376.928ZM376.82 125.817C371.454 125.817 366.148 127.184 361.345 129.879C353.958 134.01 348.632 140.767 346.343 148.901C341.619 165.681 351.472 183.168 368.298 187.879C376.455 190.161 385.006 189.138 392.393 185.007C399.78 180.877 405.106 174.119 407.395 165.985C409.683 157.851 408.657 149.324 404.515 141.957C400.372 134.59 393.596 129.279 385.44 126.997C382.599 126.2 379.7 125.807 376.83 125.807L376.82 125.817Z"
                fill="#08142D" />
            <path
                d="M336.936 183.787C345.047 183.787 351.622 177.231 351.622 169.142C351.622 161.054 345.047 154.497 336.936 154.497C328.825 154.497 322.25 161.054 322.25 169.142C322.25 177.231 328.825 183.787 336.936 183.787Z"
                fill="#08142D" />
            <path
                d="M336.966 186.257C335.408 186.257 333.85 186.04 332.311 185.617C327.902 184.388 324.233 181.506 321.994 177.523C319.756 173.539 319.193 168.926 320.436 164.53C321.679 160.133 324.559 156.474 328.553 154.242C332.548 152.009 337.173 151.458 341.582 152.688C345.991 153.917 349.66 156.799 351.899 160.782C354.138 164.766 354.7 169.379 353.457 173.775C352.224 178.172 349.334 181.831 345.34 184.063C342.736 185.519 339.866 186.267 336.966 186.267V186.257ZM336.917 156.956C334.846 156.956 332.804 157.488 330.95 158.52C328.109 160.114 326.048 162.72 325.17 165.858C324.292 168.995 324.677 172.28 326.285 175.113C327.892 177.946 330.496 180.001 333.642 180.877C336.779 181.762 340.083 181.359 342.923 179.765C345.764 178.172 347.825 175.565 348.703 172.428C349.581 169.29 349.186 166.005 347.589 163.173C345.991 160.34 343.377 158.284 340.231 157.409C339.136 157.104 338.022 156.947 336.907 156.947L336.917 156.956Z"
                fill="#08142D" />
            <path
                d="M371.976 389.479C374.699 398.636 383.112 401.931 387.954 408.019C401.042 424.465 377.884 434.635 365.309 428.192C349.262 419.97 330.395 385.27 330.395 385.27C320.818 380.608 286.801 351.622 317.662 328.026L319.9 325.931C317.287 318.633 318.283 310.106 326.538 298.825C343.108 276.183 371.503 279.724 388.073 285.212L405.431 294.369C405.431 294.369 435.227 308.444 423.066 333.229C417.395 344.776 405.559 349.822 394.582 349.291C394.582 349.291 405.145 355.714 400.263 367.143C396.032 377.057 383.506 380.608 377.105 375.493C377.105 375.493 379.078 380.873 371.986 389.479C367.193 395.302 352.28 397.358 338.541 381.237C325.069 365.421 328.846 354.396 343.098 348.455"
                fill="#08142D" />
            <path
                d="M374.021 432.579C370.529 432.579 367.097 431.881 364.178 430.386C348.703 422.458 331.384 392.165 328.582 387.119C321.747 383.411 304.34 369.326 302.643 352.517C301.647 342.633 306.154 333.761 316.047 326.168L317.063 325.214C314.627 316.686 317.082 307.559 324.529 297.389C344.097 270.656 378.696 279.537 388.835 282.891C388.963 282.93 389.091 282.99 389.209 283.049L406.519 292.176C407.693 292.737 422.329 299.995 427.014 313.332C429.381 320.07 428.789 327.122 425.258 334.312C419.814 345.416 409.764 350.334 400.552 351.504C403.501 355.35 405.513 361.104 402.524 368.107C400.078 373.831 394.96 378.169 388.825 379.713C385.58 380.529 382.414 380.47 379.652 379.585C379.238 382.201 377.976 385.732 374.741 389.961C376.467 394.486 379.889 397.348 383.499 400.368C385.728 402.226 388.026 404.154 389.89 406.495C395.216 413.183 395.749 420.088 391.35 425.429C387.592 429.992 380.718 432.579 374.031 432.579H374.021ZM363.97 283.422C343.584 283.422 332.814 294.409 328.513 300.271C321.55 309.792 319.548 317.68 322.201 325.106C322.527 326.03 322.28 327.053 321.57 327.722L319.331 329.817C319.272 329.876 319.213 329.925 319.144 329.974C310.632 336.485 306.726 343.892 307.545 352.006C309.015 366.543 325.022 379.929 331.462 383.057C331.926 383.283 332.301 383.647 332.547 384.09C332.735 384.434 351.237 418.219 366.426 425.999C372.955 429.343 383.213 427.543 387.523 422.301C391.152 417.885 388.706 412.928 386.014 409.544C384.465 407.597 382.453 405.915 380.323 404.125C376.98 401.331 373.281 398.233 370.953 393.581C368.359 395.233 364.996 396.178 361.396 396.207C356.445 396.207 346.651 394.565 336.65 382.821C329.401 374.313 326.541 366.622 328.139 359.963C329.549 354.101 334.254 349.458 342.134 346.183C343.387 345.652 344.836 346.252 345.359 347.501C345.882 348.75 345.29 350.196 344.038 350.717C337.696 353.363 333.958 356.855 332.932 361.114C331.719 366.159 334.234 372.395 340.408 379.634C349.018 389.735 357.086 391.289 361.219 391.289C361.268 391.289 361.307 391.289 361.357 391.289C365.026 391.26 368.359 389.971 370.056 387.935C370.066 387.916 370.085 387.906 370.095 387.886C376.003 380.696 374.77 376.31 374.76 376.27C374.386 375.238 374.751 374.107 375.648 373.457C376.546 372.818 377.769 372.877 378.636 373.566C380.796 375.287 384.15 375.798 387.612 374.933C392.267 373.762 396.143 370.487 397.978 366.169C401.942 356.884 393.628 351.593 393.273 351.376C392.316 350.786 391.882 349.626 392.218 348.554C392.553 347.482 393.589 346.773 394.683 346.823C403.629 347.245 415.198 343.616 420.83 332.128C423.749 326.178 424.272 320.394 422.368 314.955C418.295 303.3 404.497 296.631 404.359 296.572C404.329 296.563 404.29 296.543 404.26 296.523L387.089 287.465C378.291 284.573 370.618 283.403 363.97 283.403V283.422Z"
                fill="#08142D" />
            <path
                d="M377.1 375.493C377.1 375.493 336.899 357.022 343.921 337.144C346.949 328.577 356.812 321.761 360.589 321.417"
                fill="#08142D" />
            <path
                d="M377.095 377.952C376.75 377.952 376.395 377.883 376.07 377.725C374.344 376.929 333.916 358.074 341.599 336.327C343.591 330.682 347.96 326.384 350.377 324.328C353.997 321.259 357.823 319.204 360.368 318.977C361.729 318.849 362.922 319.853 363.051 321.2C363.169 322.557 362.173 323.748 360.822 323.875C358.277 324.102 349.085 329.954 346.254 337.97C341.106 352.527 367.528 368.382 378.141 373.27C379.374 373.84 379.916 375.296 379.344 376.535C378.93 377.43 378.032 377.961 377.105 377.961L377.095 377.952Z"
                fill="#08142D" />
            <path
                d="M393.937 348.485C393.937 348.485 352.464 334.076 360.226 310.973C363.125 302.357 370.434 294.793 376.983 296.101C387.635 298.226 399.214 310.589 410.872 311.838"
                fill="#08142D" />
            <path
                d="M393.941 350.943C393.675 350.943 393.399 350.904 393.133 350.806C392.699 350.658 382.333 347.019 372.776 340.409C359.48 331.233 354.342 320.777 357.902 310.185C361.058 300.782 369.255 292.038 377.48 293.68C382.855 294.752 388.329 298.156 393.636 301.441C399.445 305.05 405.461 308.778 411.152 309.388C412.503 309.535 413.489 310.745 413.342 312.093C413.194 313.44 412 314.434 410.629 314.276C403.814 313.548 397.314 309.516 391.032 305.621C385.883 302.424 381.021 299.405 376.514 298.51C371.789 297.565 365.26 303.752 362.577 311.758C355.683 332.285 394.375 346.035 394.76 346.173C396.042 346.625 396.723 348.022 396.279 349.301C395.924 350.314 394.967 350.953 393.951 350.953L393.941 350.943Z"
                fill="#08142D" />
            <path
                d="M345.082 303.665C347.114 309.153 360.241 310.972 364.561 321.418C366.347 325.726 365.015 333.299 360.103 340.214C351.187 352.754 334.776 346.489 326.52 336.683C323.67 333.289 321.283 329.788 319.902 325.932"
                fill="#08142D" />
            <path
                d="M346.909 349.675C339.176 349.675 330.517 345.269 324.629 338.266C321.147 334.125 318.898 330.476 317.577 326.758C317.123 325.479 317.784 324.073 319.066 323.611C320.348 323.158 321.758 323.817 322.222 325.096C323.346 328.243 325.319 331.42 328.406 335.089C333.485 341.108 341.188 345.013 347.52 344.728C351.85 344.551 355.411 342.554 358.093 338.777C362.65 332.364 363.656 325.656 362.285 322.342C360.115 317.09 355.213 314.237 350.903 311.719C347.165 309.546 343.94 307.657 342.776 304.5C342.303 303.221 342.964 301.815 344.236 301.343C345.508 300.871 346.928 301.53 347.402 302.799C347.954 304.303 350.597 305.838 353.389 307.47C358.133 310.234 364.041 313.687 366.842 320.463C369.11 325.952 367.207 334.449 362.117 341.62C358.557 346.626 353.576 349.4 347.727 349.636C347.461 349.645 347.185 349.655 346.919 349.655L346.909 349.675Z"
                fill="#08142D" />
            <path
                d="M135.297 412.514C135.297 412.514 140.199 407.842 150.407 412.681C158.149 416.35 164.58 428.792 153.77 447.293C143.167 465.439 132.377 476.141 121.015 462.154C118.352 458.879 111.409 449.968 121.735 432.343"
                fill="#08142D" />
            <path
                d="M131.723 471.016C127.294 471.016 123.053 468.558 119.098 463.699C108.298 450.401 116.81 435.874 119.601 431.094C120.292 429.923 121.801 429.53 122.974 430.209C124.148 430.897 124.543 432.402 123.862 433.572C114.275 449.939 120.568 457.679 122.935 460.601C126.121 464.525 129.168 466.315 132.275 466.079C137.68 465.666 144.022 459.115 151.646 446.054C157.919 435.313 157.603 427.769 156.222 423.324C155.029 419.468 152.524 416.399 149.348 414.894C140.915 410.891 137.039 414.245 136.999 414.285C136.013 415.219 134.455 415.19 133.508 414.206C132.571 413.222 132.601 411.668 133.587 410.724C133.833 410.488 139.85 404.941 151.458 410.449C155.877 412.544 159.329 416.704 160.927 421.868C162.594 427.248 163.077 436.238 155.897 448.522C147.148 463.492 139.978 470.416 132.64 470.977C132.334 470.997 132.019 471.016 131.713 471.016H131.723Z"
                fill="#08142D" />
            <path
                d="M59.4812 400.869C58.7218 404.616 59.4812 419.045 73.9698 425.409C76.761 426.638 81.7713 427.189 84.7203 426.481C91.1509 446.88 108.204 447.126 125.434 428.664C147.941 404.538 142.102 395.066 136.619 389.745C128.521 381.876 119.26 387.886 119.26 387.886C123.945 380.775 122.456 368.982 112.79 363.877C101.645 357.996 94.4845 365.982 94.4845 365.982C95.9541 354.986 94.0407 346.055 81.6529 341.944C59.4812 334.587 44.7461 354.297 44.7461 354.297L68.989 378.798C68.989 378.798 60.6746 394.978 59.4812 400.869Z"
                fill="#08142D" />
            <path
                d="M101.718 444.618C100.377 444.618 99.065 444.48 97.7927 444.185C93.1276 443.132 86.914 439.651 83.0477 429.195C79.7831 429.431 75.69 428.851 72.9777 427.651C56.6251 420.471 56.2701 404.311 57.0689 400.377C58.0947 395.292 63.8349 383.558 65.9948 379.27L42.9946 356.028C42.1366 355.163 42.0478 353.806 42.7776 352.832C42.9355 352.625 58.8541 331.784 82.4461 339.613C95.041 343.793 97.5264 352.861 97.3785 360.946C101.422 359.028 107.261 358.182 113.948 361.713C118.85 364.3 122.302 368.647 123.673 373.969C124.492 377.145 124.501 380.48 123.762 383.568C128.062 382.742 133.536 383.312 138.349 387.994C148.656 398.007 145.233 411.068 127.243 430.346C118.534 439.68 109.628 444.627 101.728 444.627L101.718 444.618ZM84.7146 424.022C85.7699 424.022 86.7364 424.701 87.0619 425.743C89.5079 433.484 93.5911 438.205 98.8678 439.395C105.782 440.949 114.806 436.434 123.614 426.992C146.338 402.629 138.309 394.84 134.887 391.515C128.279 385.093 120.901 389.755 120.596 389.961C119.619 390.601 118.327 390.463 117.499 389.637C116.67 388.81 116.542 387.522 117.183 386.548C119.254 383.401 119.886 379.162 118.87 375.198C117.854 371.244 115.28 367.998 111.62 366.071C102.29 361.143 96.3725 367.575 96.3133 367.634C95.5933 368.441 94.4295 368.677 93.4432 368.234C92.4569 367.782 91.8849 366.749 92.0328 365.677C93.6405 353.658 90.4054 347.462 80.868 344.294C64.1012 338.728 51.9994 349.842 48.0641 354.179L70.7389 377.086C71.4885 377.844 71.666 378.995 71.1827 379.939C68.9142 384.355 62.819 396.826 61.9017 401.37C61.31 404.292 61.7637 417.373 74.9701 423.176C77.3371 424.219 81.805 424.671 84.1524 424.101C84.3496 424.051 84.537 424.032 84.7343 424.032L84.7146 424.022Z"
                fill="#08142D" />
            <path
                d="M119.251 387.886C119.251 387.886 99.1798 419.596 84.7109 426.481L119.251 387.886Z"
                fill="#08142D" />
            <path
                d="M84.7225 428.94C83.8052 428.94 82.9176 428.419 82.4934 427.544C81.9115 426.314 82.4244 424.849 83.6573 424.269C97.3272 417.767 116.974 386.893 117.171 386.588C117.901 385.438 119.42 385.093 120.574 385.821C121.728 386.549 122.073 388.064 121.343 389.214C120.505 390.532 100.72 421.603 85.7876 428.714C85.4424 428.881 85.0874 428.95 84.7323 428.95L84.7225 428.94Z"
                fill="#08142D" />
            <path
                d="M94.4752 365.982C94.4752 365.982 75.2524 409.121 52.5481 399.345C44.0759 395.696 43.8096 385.27 45.6836 378.798C48.741 368.264 59.4718 365.923 61.7206 354.308"
                fill="#08142D" />
            <path
                d="M59.3288 403.23C56.3896 403.23 53.7858 402.551 51.5667 401.597C42.3646 397.633 40.8359 386.637 43.3115 378.11C44.929 372.533 48.3711 369.1 51.6949 365.786C55.068 362.412 58.2537 359.235 59.309 353.835C59.5655 352.498 60.8575 351.632 62.1989 351.888C63.5402 352.144 64.4081 353.432 64.1517 354.77C62.8202 361.645 58.7666 365.697 55.1864 369.268C52.1683 372.277 49.318 375.12 48.0555 379.487C46.6944 384.178 46.0829 393.896 53.5195 397.092C73.7187 405.797 92.034 365.392 92.2214 364.989C92.7738 363.75 94.2335 363.189 95.4762 363.74C96.7189 364.291 97.2811 365.746 96.7288 366.986C96.5315 367.438 91.7086 378.169 83.9564 387.867C74.488 399.709 66.0355 403.24 59.3288 403.24V403.23Z"
                fill="#08142D" />
        </g>
        <path
            d="M467.439 362.049L281.81 547.165L70.5966 336.536L68.3281 334.205C148.395 249.648 243.67 258.126 243.67 258.126L383.545 302.436C383.545 302.436 393.142 312.192 426.044 332.228L467.439 362.039V362.049Z"
            fill="white" />
        <path
            d="M281.809 549.623C281.158 549.623 280.526 549.367 280.063 548.905L68.8495 338.276L66.5613 335.915C65.6441 334.971 65.6342 333.476 66.5416 332.512C108.311 288.399 154.242 269.849 185.429 262.069C219.268 253.611 242.9 255.588 243.896 255.676C244.073 255.696 244.251 255.725 244.418 255.784L384.294 300.094C384.678 300.212 385.023 300.428 385.309 300.713C385.398 300.802 395.231 310.579 427.325 330.132C427.384 330.161 427.434 330.201 427.483 330.24L468.878 360.052C469.459 360.475 469.834 361.134 469.893 361.852C469.953 362.57 469.686 363.278 469.183 363.789L283.554 548.905C283.091 549.367 282.469 549.623 281.809 549.623ZM71.7492 334.194L72.3607 334.823L281.799 543.682L463.64 362.343L424.672 334.273C395.419 316.45 384.511 306.743 382.242 304.599L243.195 260.545C240.542 260.358 217.651 259.05 186.415 266.879C156.333 274.423 112.197 292.225 71.7492 334.174V334.194Z"
            fill="#08142D" />
        <path
            d="M150.586 422.017C150.33 422.017 150.073 421.977 149.817 421.889C148.525 421.466 147.825 420.069 148.249 418.781C153.654 402.454 164.7 382.537 181.082 359.59C193.243 342.545 203.984 330.093 204.092 329.975C204.98 328.952 206.538 328.834 207.574 329.72C208.6 330.605 208.718 332.159 207.83 333.192C207.406 333.683 165.479 382.448 152.934 420.335C152.588 421.368 151.632 422.027 150.596 422.027L150.586 422.017Z"
            fill="#08142D" />
        <path
            d="M263.188 222.994C266.976 215.332 278.21 212.027 308.311 217.151C338.403 222.276 387.086 239.93 392.885 258.608C398.684 277.286 372.479 281.938 383.555 302.436C383.17 320.415 293.852 320.809 243.68 258.126C247.329 250.651 260.003 249.481 263.169 244.248C265.763 239.98 259.569 230.311 263.179 222.994H263.188Z"
            fill="white" />
        <path
            d="M355.873 315.388C343.574 315.388 329.095 313.106 314.952 308.71C294.339 302.307 264.908 288.596 241.75 259.66C241.158 258.922 241.04 257.899 241.464 257.053C243.87 252.126 249.177 249.677 253.862 247.523C256.899 246.116 260.046 244.67 261.071 242.979C261.742 241.877 261.17 239.074 260.618 236.369C259.73 232.051 258.625 226.681 260.982 221.911C265.874 212.016 280.156 209.862 308.729 214.731C335.644 219.314 388.657 236.674 395.246 257.889C398.303 267.745 393.47 274.256 389.2 280C384.357 286.521 380.53 291.665 385.728 301.284C385.935 301.658 386.034 302.081 386.024 302.504C385.955 305.592 384.111 309.871 375.668 312.713C370.322 314.513 363.527 315.398 355.883 315.398L355.873 315.388ZM246.691 257.929C286.024 305.779 350.301 316.057 374.08 308.051C378.114 306.694 380.599 304.845 381.023 302.927C374.908 290.967 380.382 283.59 385.225 277.069C389.308 271.571 392.839 266.82 390.521 259.345C385.304 242.536 338.879 224.862 307.89 219.59C274.613 213.924 267.699 219.452 265.401 224.094C263.793 227.35 264.632 231.442 265.441 235.386C266.22 239.182 266.959 242.772 265.283 245.526C263.478 248.506 259.809 250.198 255.923 251.988C252.353 253.64 248.674 255.332 246.681 257.939L246.691 257.929Z"
            fill="#08142D" />
        <path
            d="M321.76 280.334C321.543 280.334 321.316 280.305 321.099 280.246C272.031 266.624 261.379 246.205 260.955 245.339C260.354 244.12 260.847 242.644 262.07 242.044C263.283 241.444 264.762 241.936 265.364 243.136C265.413 243.235 267.968 248.034 276.154 254.368C283.798 260.27 298.02 268.728 322.421 275.505C323.732 275.869 324.502 277.226 324.137 278.535C323.831 279.626 322.845 280.334 321.76 280.334Z"
            fill="#08142D" />
        <path
            d="M297.575 220.032C286.095 218.458 269.801 222.963 288.56 236.339C309.726 251.437 363.923 272.19 377.859 264.469C387.199 259.286 381.192 250.414 363.656 240.677C346.11 230.93 321.867 223.356 297.585 220.032H297.575Z"
            fill="#08142D" />
        <path
            d="M369.169 268.571C358.477 268.571 344.176 264.371 335.112 261.283C316.708 255.018 297.87 246.008 287.11 238.337C279.348 232.799 276.27 227.822 277.977 223.554C280.383 217.505 291.213 216.679 297.9 217.593C322.557 220.967 346.957 228.589 364.839 238.523C378.016 245.841 384.693 252.569 384.693 258.519C384.693 260.781 383.716 264.027 379.041 266.614C376.526 268.011 373.094 268.571 369.169 268.571ZM293.067 222.177C287.632 222.177 283.243 223.642 282.553 225.373C282.03 226.691 283.658 229.829 289.97 234.333C310.82 249.205 364.079 269.27 376.635 262.316C379.751 260.595 379.752 259.031 379.752 258.519C379.752 257.093 378.509 251.742 362.432 242.812C345.074 233.173 321.304 225.747 297.229 222.462C295.809 222.265 294.408 222.177 293.067 222.177Z"
            fill="#08142D" />
        <path
            d="M339.075 400.328H332.023C330.938 400.328 329.873 400.515 328.847 400.879L328.512 400.997V418.386L328.847 418.504C329.863 418.868 330.938 419.055 332.023 419.055H339.075L332.605 409.682L339.075 400.309V400.328Z"
            fill="#08142D" />
        <path
            d="M322.098 409.702C322.098 412.535 323.37 415.18 325.599 416.98L326.418 417.639V401.755L325.599 402.414C323.38 404.214 322.098 406.86 322.098 409.692V409.702Z"
            fill="#08142D" />
        <path
            d="M341.461 400.171L334.883 409.692L341.461 419.213L360.704 409.692L341.461 400.171ZM342.576 414.935L338.956 409.702L342.576 404.47L349.283 407.784V411.62L342.576 414.935Z"
            fill="#08142D" />
        <path
            d="M339.464 378.022L307.695 409.702L339.464 441.383L371.232 409.702L339.464 378.022ZM313.712 409.702L339.464 384.022L365.216 409.702L339.464 435.383L313.712 409.702Z"
            fill="#08142D" />
        <path
            d="M288.798 106.933C287.013 105.998 285.1 105.231 283.078 104.661C267.514 100.304 251.359 109.352 246.999 124.873C242.63 140.394 251.704 156.504 267.268 160.852C269.289 161.422 271.321 161.756 273.343 161.884C272.732 152.442 273.678 142.725 276.391 133.096C279.103 123.466 283.354 114.683 288.808 106.933H288.798Z"
            fill="white" />
        <path
            d="M273.328 164.343C273.278 164.343 273.219 164.343 273.17 164.343C270.941 164.206 268.731 163.822 266.591 163.232C258.435 160.95 251.649 155.629 247.497 148.262C243.344 140.895 242.319 132.358 244.607 124.214C246.895 116.07 252.231 109.313 259.618 105.172C267.005 101.032 275.566 100.009 283.733 102.291C285.873 102.891 287.954 103.717 289.937 104.749C290.568 105.074 291.021 105.664 291.189 106.343C291.357 107.021 291.219 107.759 290.814 108.33C285.38 116.051 281.326 124.598 278.752 133.745C276.178 142.892 275.182 152.295 275.793 161.707C275.843 162.416 275.576 163.104 275.073 163.606C274.61 164.068 273.978 164.324 273.328 164.324V164.343ZM275.123 106.028C270.586 106.028 266.098 107.189 262.044 109.461C255.801 112.952 251.304 118.667 249.371 125.542C247.437 132.417 248.305 139.626 251.807 145.852C255.308 152.078 261.038 156.563 267.933 158.491C268.85 158.747 269.787 158.953 270.734 159.111C270.448 150.121 271.552 141.161 274.008 132.427C276.464 123.693 280.202 115.47 285.133 107.946C284.246 107.592 283.328 107.287 282.411 107.021C280.005 106.353 277.559 106.018 275.132 106.018L275.123 106.028Z"
            fill="#08142D" />
        <path
            d="M359.417 242.33C407.046 242.33 445.658 203.825 445.658 156.327C445.658 108.83 407.046 70.325 359.417 70.325C311.787 70.325 273.176 108.83 273.176 156.327C273.176 203.825 311.787 242.33 359.417 242.33Z"
            fill="white" />
        <path
            d="M359.382 244.799C351.472 244.799 343.434 243.736 335.445 241.504C312.632 235.12 293.676 220.259 282.077 199.653C270.478 179.048 267.608 155.177 274.009 132.427C280.41 109.677 295.313 90.7732 315.976 79.2065C336.638 67.6399 360.575 64.7777 383.388 71.161C406.201 77.5443 425.158 92.4059 436.756 113.011C448.355 133.617 451.225 157.488 444.824 180.238C433.847 219.236 398.153 244.809 359.392 244.809L359.382 244.799ZM359.441 72.774C322.83 72.774 289.119 96.9204 278.753 133.755C272.707 155.236 275.41 177.789 286.367 197.244C297.325 216.698 315.226 230.734 336.776 236.763C381.248 249.215 427.584 223.249 440.07 178.9C446.116 157.419 443.414 134.866 432.456 115.411C421.498 95.9565 403.597 81.9212 382.047 75.8919C374.512 73.7773 366.907 72.774 359.441 72.774Z"
            fill="#08142D" />
        <path
            d="M359.716 190.093C378.585 190.093 393.881 174.839 393.881 156.022C393.881 137.206 378.585 121.952 359.716 121.952C340.847 121.952 325.551 137.206 325.551 156.022C325.551 174.839 340.847 190.093 359.716 190.093Z"
            fill="white" />
        <path
            d="M359.77 192.582C356.446 192.582 353.102 192.129 349.818 191.205C340.399 188.569 332.568 182.431 327.775 173.924C322.981 165.416 321.798 155.56 324.441 146.158C327.084 136.755 333.239 128.955 341.77 124.175C350.301 119.395 360.184 118.215 369.613 120.851C379.032 123.487 386.863 129.624 391.656 138.132C396.45 146.64 397.633 156.505 394.99 165.898C392.347 175.291 386.192 183.1 377.661 187.88C372.108 190.988 365.973 192.582 359.78 192.582H359.77ZM359.661 124.401C354.296 124.401 348.99 125.768 344.186 128.463C336.799 132.594 331.473 139.351 329.185 147.485C326.897 155.619 327.922 164.147 332.065 171.514C336.217 178.881 342.983 184.192 351.14 186.474C359.286 188.756 367.847 187.733 375.235 183.602C382.622 179.461 387.948 172.714 390.236 164.58C392.524 156.446 391.498 147.918 387.356 140.551C383.214 133.184 376.438 127.873 368.281 125.591C365.441 124.795 362.541 124.401 359.671 124.401H359.661Z"
            fill="#08142D" />
        <path
            d="M442.797 215.813C439.473 215.813 436.13 215.361 432.845 214.436C423.426 211.8 415.595 205.663 410.802 197.155C406.009 188.647 404.825 178.792 407.468 169.389C412.922 149.993 433.191 138.643 452.64 144.082C462.059 146.718 469.89 152.855 474.684 161.363C479.477 169.871 480.661 179.736 478.017 189.129C475.374 198.522 469.22 206.331 460.688 211.112C455.135 214.22 449.001 215.813 442.807 215.813H442.797ZM442.748 147.642C428.89 147.642 416.138 156.78 412.212 170.717C409.924 178.851 410.95 187.378 415.092 194.745C419.244 202.112 426.01 207.423 434.167 209.705C442.314 211.987 450.875 210.964 458.262 206.833C465.649 202.692 470.975 195.945 473.263 187.811C475.552 179.677 474.526 171.15 470.383 163.783C466.241 156.416 459.465 151.105 451.309 148.823C448.458 148.026 445.578 147.642 442.758 147.642H442.748Z"
            fill="#08142D" />
        <path
            d="M402.815 205.603C410.925 205.603 417.501 199.047 417.501 190.958C417.501 182.87 410.925 176.313 402.815 176.313C394.704 176.313 388.129 182.87 388.129 190.958C388.129 199.047 394.704 205.603 402.815 205.603Z"
            fill="white" />
        <path
            d="M402.836 208.063C401.277 208.063 399.709 207.846 398.17 207.424C393.762 206.194 390.093 203.312 387.854 199.329C385.615 195.345 385.053 190.733 386.296 186.336C388.85 177.258 398.328 171.937 407.441 174.494C411.85 175.723 415.519 178.605 417.758 182.589C419.997 186.572 420.559 191.185 419.316 195.591C418.083 199.988 415.194 203.647 411.199 205.879C408.595 207.335 405.725 208.083 402.826 208.083L402.836 208.063ZM402.786 178.763C400.715 178.763 398.673 179.294 396.819 180.326C393.979 181.92 391.917 184.526 391.04 187.664C390.162 190.801 390.556 194.086 392.154 196.919C393.752 199.752 396.365 201.807 399.512 202.683C402.648 203.558 405.952 203.175 408.793 201.571C411.633 199.978 413.695 197.372 414.572 194.244C415.45 191.106 415.065 187.821 413.458 184.979C411.86 182.146 409.246 180.09 406.11 179.215C405.015 178.91 403.901 178.753 402.786 178.753V178.763Z"
            fill="#08142D" />
        <path
            d="M435.683 415.338C438.553 424.986 447.42 428.468 452.529 434.881C466.327 452.221 441.916 462.942 428.651 456.155C411.726 447.49 391.833 410.902 391.833 410.902C381.733 405.994 345.862 375.425 378.399 350.551L380.757 348.338C377.995 340.646 379.05 331.656 387.759 319.755C405.226 295.884 435.16 299.622 452.637 305.405L470.933 315.054C470.933 315.054 502.346 329.896 489.524 356.019C483.547 368.196 471.061 373.517 459.492 372.956C459.492 372.956 470.627 379.723 465.488 391.781C461.03 402.237 447.824 405.974 441.078 400.584C441.078 400.584 443.159 406.259 435.683 415.328C430.623 421.465 414.902 423.629 400.423 406.633C386.221 389.962 390.195 378.336 405.226 372.071"
            fill="white" />
        <path
            d="M437.84 460.641C434.18 460.641 430.571 459.903 427.523 458.339C411.21 449.979 392.924 417.944 390.034 412.741C382.874 408.876 364.509 394.044 362.724 376.34C361.678 365.963 366.413 356.659 376.808 348.672L377.942 347.61C375.348 338.64 377.923 329.03 385.773 318.3C406.347 290.19 442.751 299.533 453.423 303.064C453.551 303.104 453.679 303.163 453.798 303.222L472.054 312.851C473.257 313.431 488.673 321.054 493.594 335.079C496.07 342.141 495.449 349.547 491.75 357.091C485.98 368.845 475.309 373.999 465.564 375.179C468.72 379.202 470.939 385.29 467.763 392.736C465.209 398.735 459.834 403.279 453.403 404.892C449.951 405.758 446.578 405.679 443.659 404.715C443.254 407.479 441.933 411.266 438.441 415.81C440.266 420.649 443.905 423.698 447.742 426.904C450.079 428.862 452.506 430.888 454.458 433.347C460.031 440.35 460.593 447.559 455.997 453.146C452.062 457.926 444.852 460.641 437.84 460.641ZM427.237 303.379C405.677 303.379 394.295 315.005 389.748 321.201C382.371 331.273 380.26 339.633 383.081 347.512C383.406 348.436 383.16 349.459 382.45 350.128L380.092 352.341C380.033 352.4 379.974 352.449 379.905 352.498C370.89 359.393 366.758 367.242 367.626 375.848C369.174 391.231 386.109 405.384 392.914 408.689C393.378 408.915 393.753 409.279 393.999 409.722C394.196 410.086 413.725 445.74 429.772 453.962C436.715 457.513 447.604 455.605 452.18 450.028C456.066 445.307 453.462 440.015 450.592 436.406C448.945 434.34 446.825 432.56 444.566 430.671C441.025 427.711 437.09 424.416 434.654 419.459C431.922 421.229 428.361 422.252 424.525 422.282H424.347C419.1 422.282 408.931 420.413 398.546 408.217C390.932 399.286 387.924 391.211 389.6 384.238C391.08 378.1 396.011 373.241 404.276 369.799C405.529 369.278 406.979 369.868 407.501 371.117C408.024 372.366 407.432 373.812 406.18 374.333C399.453 377.136 395.488 380.854 394.394 385.379C393.102 390.749 395.765 397.358 402.304 405.03C411.417 415.721 419.968 417.364 424.347 417.364H424.495C428.401 417.334 431.951 415.957 433.766 413.774C433.776 413.754 433.796 413.744 433.806 413.725C440.098 406.073 438.767 401.401 438.747 401.352C438.372 400.319 438.737 399.188 439.635 398.539C440.532 397.889 441.765 397.958 442.623 398.647C444.931 400.496 448.511 401.037 452.2 400.112C457.141 398.873 461.264 395.391 463.227 390.798C467.448 380.903 458.591 375.268 458.206 375.031C457.25 374.441 456.816 373.281 457.151 372.209C457.486 371.137 458.522 370.419 459.617 370.478C469.075 370.91 481.335 367.084 487.312 354.918C490.409 348.603 490.951 342.485 488.939 336.712C484.619 324.368 470.032 317.326 469.884 317.247C469.854 317.238 469.815 317.218 469.785 317.198L451.667 307.648C442.367 304.589 434.259 303.35 427.237 303.35V303.379Z"
            fill="#08142D" />
        <path
            d="M441.075 400.595C441.075 400.595 398.684 381.12 406.091 360.16C409.287 351.122 419.692 343.942 423.667 343.578"
            fill="white" />
        <path
            d="M441.07 403.053C440.725 403.053 440.37 402.984 440.044 402.827C438.23 401.991 395.711 382.162 403.769 359.344C405.86 353.413 410.446 348.908 412.991 346.744C416.788 343.518 420.792 341.374 423.445 341.128C424.796 341 426 342.004 426.128 343.351C426.256 344.708 425.25 345.898 423.899 346.026C421.196 346.272 411.422 352.478 408.424 360.976C405.09 370.409 414.115 379.92 422.262 386.244C431.592 393.483 442.007 398.303 442.106 398.352C443.339 398.922 443.881 400.378 443.309 401.617C442.895 402.522 441.997 403.053 441.07 403.053Z"
            fill="#08142D" />
        <path
            d="M458.846 372.12C458.846 372.12 415.124 356.924 423.3 332.571C426.348 323.483 434.07 315.507 440.974 316.884C452.198 319.126 464.408 332.158 476.707 333.476"
            fill="white" />
        <path
            d="M458.844 374.579C458.578 374.579 458.301 374.54 458.035 374.442C457.572 374.284 446.673 370.448 436.603 363.504C422.647 353.866 417.233 342.899 420.971 331.794C424.284 321.929 432.865 312.763 441.466 314.484C447.107 315.615 452.877 319.185 458.449 322.647C464.594 326.464 470.946 330.398 476.972 331.047C478.323 331.195 479.309 332.404 479.161 333.752C479.014 335.099 477.81 336.083 476.449 335.935C469.299 335.168 462.454 330.929 455.846 326.828C450.401 323.454 445.263 320.267 440.499 319.313C435.449 318.29 428.506 324.87 425.655 333.368C418.337 355.134 459.258 369.671 459.672 369.819C460.955 370.271 461.635 371.668 461.191 372.947C460.836 373.96 459.88 374.599 458.864 374.599L458.844 374.579Z"
            fill="#08142D" />
        <path
            d="M407.319 324.86C409.459 330.654 423.296 332.562 427.853 343.577C429.727 348.122 428.336 356.108 423.148 363.396C413.739 376.615 396.45 370.016 387.741 359.678C384.733 356.108 382.218 352.41 380.758 348.348"
            fill="white" />
        <path
            d="M409.238 373.233C401.13 373.233 392.037 368.6 385.853 361.253C382.194 356.905 379.836 353.06 378.436 349.165C377.982 347.886 378.643 346.48 379.925 346.017C381.198 345.565 382.618 346.224 383.081 347.503C384.275 350.837 386.356 354.191 389.63 358.086C395.006 364.469 403.133 368.57 409.889 368.295C414.495 368.108 418.282 365.974 421.142 361.961C425.985 355.155 427.03 348.034 425.58 344.503C423.273 338.926 418.095 335.906 413.518 333.231C409.603 330.949 406.22 328.972 405.007 325.687C404.533 324.418 405.194 323.002 406.466 322.53C407.739 322.058 409.159 322.707 409.632 323.986C410.234 325.618 413.035 327.251 416.004 328.982C420.994 331.893 427.198 335.513 430.137 342.624C432.514 348.368 430.512 357.279 425.166 364.794C421.438 370.036 416.221 372.937 410.096 373.193C409.81 373.203 409.534 373.213 409.248 373.213L409.238 373.233Z"
            fill="#08142D" />
        <path
            d="M586.934 174.582C584.754 172.851 576.331 166.153 574.152 164.422C554.002 148.409 515.645 162.976 488.483 196.958C461.321 230.94 455.63 271.472 475.78 287.495C477.959 289.226 486.382 295.924 488.562 297.655C508.712 313.667 547.068 299.101 574.231 265.119C601.393 231.137 607.084 190.604 586.934 174.582Z"
            fill="white" />
        <path
            d="M508.744 306.635C500.341 306.635 492.934 304.265 487.026 299.573L474.244 289.413C463.789 281.102 459.42 266.614 461.945 248.615C464.401 231.088 473.139 212.194 486.553 195.414C499.966 178.635 516.486 165.927 533.066 159.632C550.099 153.17 565.229 154.183 575.683 162.494L588.466 172.655C598.92 180.966 603.289 195.454 600.765 213.453C598.309 230.98 589.57 249.874 576.157 266.653C562.743 283.433 546.223 296.141 529.643 302.435C522.246 305.248 515.204 306.645 508.744 306.645V306.635ZM553.857 160.311C534.427 160.311 509.592 174.474 490.409 198.473C464.134 231.344 458.266 270.411 477.311 285.557L490.093 295.718C499.128 302.898 512.551 303.645 527.878 297.822C543.649 291.833 559.429 279.666 572.29 263.565C585.161 247.464 593.535 229.426 595.873 212.754C598.151 196.555 594.423 183.67 585.388 176.491L572.606 166.33C567.468 162.249 561.027 160.311 553.847 160.311H553.857Z"
            fill="#08142D" />
        <path
            d="M464.55 329.128L489.266 298.205L475.064 286.914L448.809 319.765C448.809 319.765 459.727 326.345 464.55 329.128Z"
            fill="white" />
        <path
            d="M464.547 331.587C464.123 331.587 463.699 331.479 463.314 331.253C458.53 328.489 447.642 321.938 447.533 321.869C446.922 321.506 446.508 320.896 446.379 320.197C446.251 319.499 446.439 318.781 446.882 318.23L473.137 285.379C473.986 284.317 475.534 284.14 476.599 284.986L490.802 296.277C491.867 297.123 492.044 298.667 491.196 299.729L466.48 330.653C465.997 331.253 465.277 331.577 464.547 331.577V331.587ZM452.485 319.106C455.424 320.866 460.424 323.866 463.945 325.932L485.791 298.598L475.445 290.376L452.475 319.106H452.485Z"
            fill="#08142D" />
        <path
            d="M508.751 306.636C500.348 306.636 492.941 304.265 487.033 299.574C476.578 291.262 472.209 276.775 474.734 258.785C477.19 241.258 485.928 222.364 499.342 205.585C512.755 188.805 529.275 176.097 545.855 169.803C562.888 163.341 578.018 164.354 588.472 172.665C598.927 180.976 603.296 195.464 600.771 213.463C598.315 230.99 589.577 249.884 576.163 266.664C562.75 283.443 546.23 296.151 529.65 302.446C522.253 305.259 515.211 306.655 508.751 306.655V306.636ZM566.646 170.481C547.216 170.481 522.381 184.645 503.198 208.643C490.327 224.744 481.953 242.783 479.616 259.454C477.338 275.653 481.066 288.538 490.1 295.718C499.134 302.898 512.558 303.646 527.885 297.823C543.655 291.833 559.436 279.666 572.297 263.565C585.168 247.465 593.542 229.426 595.879 212.755C598.158 196.556 594.43 183.671 585.395 176.491C580.257 172.409 573.816 170.472 566.636 170.472L566.646 170.481Z"
            fill="#08142D" />
        <path
            d="M566.444 258.936C589.984 229.488 596.219 195.401 580.37 182.802C564.52 170.203 532.589 183.862 509.049 213.311C485.509 242.759 479.274 276.846 495.123 289.445C510.973 302.044 542.904 288.385 566.444 258.936Z"
            fill="white" />
        <path
            d="M509.813 296.603C503.501 296.603 497.978 294.852 493.589 291.361C485.176 284.672 482.089 272.565 484.89 257.251C487.592 242.478 495.492 226.328 507.121 211.771C518.749 197.214 532.784 185.943 546.622 180.022C560.962 173.884 573.498 174.189 581.911 180.867C590.324 187.556 593.411 199.663 590.61 214.977C587.908 229.75 580.017 245.9 568.379 260.457C556.741 275.014 542.716 286.285 528.878 292.206C522.024 295.137 515.593 296.603 509.823 296.603H509.813ZM565.657 180.543C560.568 180.543 554.798 181.871 548.565 184.536C535.457 190.142 522.112 200.903 510.977 214.83C499.842 228.757 492.297 244.14 489.742 258.126C487.287 271.571 489.742 282.007 496.666 287.515C503.59 293.013 514.34 293.082 526.935 287.692C540.033 282.086 553.387 271.325 564.523 257.398C575.658 243.471 583.203 228.088 585.757 214.102C588.213 200.657 585.757 190.221 578.834 184.713C575.332 181.93 570.855 180.543 565.657 180.543Z"
            fill="#08142D" />
        <path
            d="M507.407 276.528C506.865 276.528 506.322 276.351 505.868 275.997C500.523 271.748 499.112 263.516 501.894 252.795C504.497 242.753 510.514 231.491 518.828 221.085C519.676 220.023 521.225 219.846 522.29 220.692C523.355 221.537 523.533 223.082 522.685 224.144C514.794 234.019 509.103 244.631 506.667 254.015C504.438 262.611 505.267 269.22 508.936 272.132C510.001 272.978 510.178 274.522 509.33 275.584C508.847 276.194 508.127 276.509 507.397 276.509L507.407 276.528Z"
            fill="#08142D" />
        <path
            d="M554.727 252.077C554.185 252.077 553.642 251.9 553.189 251.546C552.123 250.7 551.946 249.156 552.794 248.094C560.684 238.219 566.375 227.606 568.811 218.223C571.04 209.627 570.212 203.017 566.543 200.106C565.478 199.26 565.3 197.716 566.148 196.654C566.997 195.592 568.545 195.414 569.61 196.26C574.956 200.509 576.366 208.742 573.585 219.463C570.981 229.505 564.965 240.766 556.65 251.172C556.167 251.782 555.447 252.097 554.717 252.097L554.727 252.077Z"
            fill="#08142D" />
        <path
            d="M201.16 434.33C201.16 434.33 206.062 429.659 216.27 434.498C224.012 438.166 230.443 450.608 219.633 469.109C209.031 487.256 198.241 497.957 186.879 483.971C184.216 480.695 177.272 471.784 187.599 454.159"
            fill="white" />
        <path
            d="M197.582 492.833C193.154 492.833 188.913 490.374 184.958 485.515C174.158 472.217 182.669 457.69 185.461 452.91C186.151 451.74 187.66 451.346 188.834 452.025C190.007 452.713 190.402 454.218 189.721 455.389C180.135 471.755 186.427 479.496 188.794 482.417C191.98 486.341 195.028 488.141 198.134 487.895C203.539 487.482 209.881 480.932 217.505 467.87C223.778 457.13 223.462 449.586 222.081 445.14C220.888 441.284 218.383 438.216 215.207 436.711C206.843 432.747 202.987 435.993 202.819 436.131C201.833 437.065 200.294 437.016 199.348 436.032C198.411 435.049 198.46 433.475 199.446 432.541C199.693 432.305 205.709 426.757 217.318 432.265C221.736 434.36 225.188 438.521 226.786 443.684C228.453 449.064 228.936 458.054 221.756 470.339C213.008 485.309 205.837 492.233 198.499 492.794C198.194 492.813 197.878 492.833 197.572 492.833H197.582Z"
            fill="#08142D" />
        <path
            d="M125.348 422.684C124.589 426.432 125.348 440.861 139.837 447.224C142.628 448.454 147.638 449.005 150.587 448.296C157.018 468.695 174.071 468.941 191.301 450.48C213.808 426.353 207.97 416.881 202.486 411.56C194.388 403.692 185.127 409.701 185.127 409.701C189.812 402.59 188.323 390.797 178.657 385.693C167.512 379.811 160.352 387.798 160.352 387.798C161.821 376.801 159.908 367.871 147.52 363.759C125.348 356.402 110.613 376.113 110.613 376.113L134.856 400.613C134.856 400.613 126.542 416.793 125.348 422.684Z"
            fill="white" />
        <path
            d="M167.593 466.433C166.252 466.433 164.94 466.296 163.668 466.001C159.003 464.948 152.789 461.466 148.923 451.011C145.648 451.247 141.565 450.667 138.853 449.467C122.51 442.287 122.145 426.127 122.944 422.193C123.97 417.108 129.71 405.374 131.87 401.086L108.87 377.844C108.012 376.979 107.923 375.621 108.653 374.648C108.81 374.441 124.729 353.59 148.321 361.429C160.916 365.609 163.401 374.677 163.253 382.762C167.297 380.844 173.136 379.998 179.823 383.529C184.725 386.116 188.177 390.463 189.548 395.784C190.366 398.961 190.376 402.295 189.637 405.384C193.937 404.558 199.411 405.128 204.224 409.81C214.531 419.823 211.108 432.884 193.118 452.162C184.409 461.496 175.503 466.443 167.603 466.443L167.593 466.433ZM150.59 445.838C151.645 445.838 152.611 446.516 152.937 447.559C155.383 455.3 159.466 460.021 164.743 461.211C171.657 462.765 180.681 458.25 189.489 448.808C212.213 424.445 204.184 416.655 200.762 413.331C194.154 406.908 186.776 411.57 186.471 411.777C185.494 412.416 184.202 412.279 183.374 411.452C182.555 410.626 182.417 409.338 183.058 408.364C185.129 405.217 185.761 400.978 184.745 397.014C183.729 393.06 181.155 389.814 177.495 387.886C168.165 382.959 162.247 389.391 162.188 389.45C161.468 390.257 160.304 390.493 159.318 390.05C158.332 389.598 157.76 388.565 157.908 387.493C159.515 375.474 156.28 369.277 146.743 366.11C129.976 360.543 117.874 371.658 113.939 375.995L136.614 398.902C137.363 399.66 137.541 400.81 137.058 401.755C134.789 406.171 128.694 418.642 127.777 423.186C127.185 426.107 127.639 439.189 140.845 444.992C143.212 446.034 147.68 446.487 150.027 445.916C150.225 445.867 150.412 445.848 150.609 445.848L150.59 445.838Z"
            fill="#08142D" />
        <path d="M185.126 409.701C185.126 409.701 165.055 441.411 150.586 448.296L185.126 409.701Z"
            fill="white" />
        <path
            d="M150.586 450.756C149.668 450.756 148.781 450.235 148.357 449.359C147.775 448.13 148.288 446.664 149.521 446.084C163.19 439.583 182.837 408.709 183.035 408.404C183.764 407.253 185.283 406.909 186.437 407.637C187.591 408.364 187.936 409.879 187.207 411.03C186.368 412.348 166.583 443.418 151.651 450.53C151.306 450.697 150.951 450.766 150.596 450.766L150.586 450.756Z"
            fill="#08142D" />
        <path
            d="M160.35 387.798C160.35 387.798 141.127 430.937 118.423 421.161C109.951 417.512 109.685 407.086 111.559 400.614C114.616 390.08 125.347 387.739 127.596 376.124"
            fill="white" />
        <path
            d="M125.208 425.046C122.269 425.046 119.665 424.368 117.446 423.414C108.244 419.45 106.715 408.454 109.19 399.926C110.808 394.349 114.25 390.917 117.574 387.602C120.947 384.229 124.133 381.052 125.188 375.652C125.444 374.324 126.736 373.449 128.078 373.705C129.419 373.96 130.287 375.249 130.031 376.586C128.699 383.461 124.645 387.514 121.065 391.084C118.047 394.094 115.197 396.936 113.934 401.303C112.573 405.995 111.962 415.712 119.398 418.909C127.664 422.469 136.609 418.339 145.969 406.614C153.327 397.408 158.051 386.904 158.09 386.796C158.643 385.556 160.103 384.996 161.345 385.547C162.588 386.097 163.15 387.553 162.598 388.792C162.401 389.245 157.578 399.975 149.825 409.673C140.367 421.515 131.905 425.046 125.198 425.046H125.208Z"
            fill="#08142D" />
        <path d="M624.996 241.937H537.828V328.864H624.996V241.937Z"
            fill="url(#paint1_linear_1355_1493)" />
        <path
            d="M508.751 306.636C500.348 306.636 492.941 304.265 487.033 299.574C476.578 291.262 472.209 276.775 474.734 258.785C477.19 241.258 485.928 222.364 499.342 205.585C512.755 188.805 529.275 176.097 545.855 169.803C562.888 163.341 578.018 164.354 588.472 172.665C598.927 180.976 603.296 195.464 600.771 213.463C598.315 230.99 589.577 249.884 576.163 266.664C562.75 283.443 546.23 296.151 529.65 302.446C522.253 305.259 515.211 306.655 508.751 306.655V306.636ZM566.646 170.481C547.216 170.481 522.381 184.645 503.198 208.643C490.327 224.744 481.953 242.783 479.616 259.454C477.338 275.653 481.066 288.538 490.1 295.718C499.134 302.898 512.558 303.646 527.885 297.823C543.655 291.833 559.436 279.666 572.297 263.565C585.168 247.465 593.542 229.426 595.879 212.755C598.158 196.556 594.43 183.671 585.395 176.491C580.257 172.409 573.816 170.472 566.636 170.472L566.646 170.481Z"
            fill="#08142D" />
        <path
            d="M509.813 296.603C503.501 296.603 497.978 294.852 493.589 291.361C485.176 284.672 482.089 272.565 484.89 257.251C487.592 242.478 495.492 226.328 507.121 211.771C518.749 197.214 532.784 185.943 546.622 180.022C560.962 173.884 573.498 174.189 581.911 180.867C590.324 187.556 593.411 199.663 590.61 214.977C587.908 229.75 580.017 245.9 568.379 260.457C556.741 275.014 542.716 286.285 528.878 292.206C522.024 295.137 515.593 296.603 509.823 296.603H509.813ZM565.657 180.543C560.568 180.543 554.798 181.871 548.565 184.536C535.457 190.142 522.112 200.903 510.977 214.83C499.842 228.757 492.297 244.14 489.742 258.126C487.287 271.571 489.742 282.007 496.666 287.515C503.59 293.013 514.34 293.082 526.935 287.692C540.033 282.086 553.387 271.325 564.523 257.398C575.658 243.471 583.203 228.088 585.757 214.102C588.213 200.657 585.757 190.221 578.834 184.713C575.332 181.93 570.855 180.543 565.657 180.543Z"
            fill="#08142D" />
        <path
            d="M507.407 276.528C506.865 276.528 506.322 276.351 505.868 275.997C500.523 271.748 499.112 263.516 501.894 252.795C504.497 242.753 510.514 231.491 518.828 221.085C519.676 220.023 521.225 219.846 522.29 220.692C523.355 221.537 523.533 223.082 522.685 224.144C514.794 234.019 509.103 244.631 506.667 254.015C504.438 262.611 505.267 269.22 508.936 272.132C510.001 272.978 510.178 274.522 509.33 275.584C508.847 276.194 508.127 276.509 507.397 276.509L507.407 276.528Z"
            fill="#08142D" />
        <path
            d="M554.727 252.077C554.185 252.077 553.642 251.9 553.189 251.546C552.123 250.7 551.946 249.156 552.794 248.094C560.684 238.219 566.375 227.606 568.811 218.223C571.04 209.627 570.212 203.017 566.543 200.106C565.478 199.26 565.3 197.716 566.148 196.654C566.997 195.592 568.545 195.414 569.61 196.26C574.956 200.509 576.366 208.742 573.585 219.463C570.981 229.505 564.965 240.766 556.65 251.172C556.167 251.782 555.447 252.097 554.717 252.097L554.727 252.077Z"
            fill="#08142D" />
    </g>
    <defs>
        <linearGradient id="paint0_linear_1355_1493" x1="158.604" y1="161.746" x2="23.554"
            y2="153.11" gradientUnits="userSpaceOnUse">
            <stop stop-color="#00FFE6" />
            <stop offset="1" stop-color="#00FFE6" stop-opacity="0" />
        </linearGradient>
        <linearGradient id="paint1_linear_1355_1493" x1="537.055" y1="241.835" x2="624.995"
            y2="328.205" gradientUnits="userSpaceOnUse">
            <stop stop-color="#FE00AE" />
            <stop offset="1" stop-color="#FE00AE" stop-opacity="0" />
        </linearGradient>
        <clipPath id="clip0_1355_1493">
            <rect width="625" height="549.623" fill="white" />
        </clipPath>
    </defs>
</svg>