<svg width="350" height="276" viewBox="0 0 350 276" fill="none" xmlns="http://www.w3.org/2000/svg">
<g clip-path="url(#clip0_34_511)">
<path d="M45.2025 195.51C70.1574 195.51 90.3875 175.28 90.3875 150.325C90.3875 125.37 70.1574 105.14 45.2025 105.14C20.2475 105.14 0.0174561 125.37 0.0174561 150.325C0.0174561 175.28 20.2475 195.51 45.2025 195.51Z" fill="#FE00AE"/>
<path d="M45.2025 190.015C67.1227 190.015 84.8925 172.245 84.8925 150.325C84.8925 128.405 67.1227 110.635 45.2025 110.635C23.2823 110.635 5.51248 128.405 5.51248 150.325C5.51248 172.245 23.2823 190.015 45.2025 190.015Z" fill="#D3029D"/>
<path d="M45.2025 190.015C67.1227 190.015 84.8925 172.245 84.8925 150.325C84.8925 128.405 67.1227 110.635 45.2025 110.635C23.2823 110.635 5.51248 128.405 5.51248 150.325C5.51248 172.245 23.2823 190.015 45.2025 190.015Z" fill="#BF0097"/>
<path d="M304.797 151.55C329.752 151.55 349.982 131.32 349.982 106.365C349.982 81.4099 329.752 61.1799 304.797 61.1799C279.842 61.1799 259.612 81.4099 259.612 106.365C259.612 131.32 279.842 151.55 304.797 151.55Z" fill="#FE00AE"/>
<path d="M304.797 146.055C326.718 146.055 344.487 128.285 344.487 106.365C344.487 84.4447 326.718 66.6749 304.797 66.6749C282.877 66.6749 265.107 84.4447 265.107 106.365C265.107 128.285 282.877 146.055 304.797 146.055Z" fill="#BF0097"/>
<path d="M178.027 275.083C253.985 275.083 315.56 213.507 315.56 137.55C315.56 61.593 253.985 0.0175781 178.027 0.0175781C102.07 0.0175781 40.495 61.593 40.495 137.55C40.495 213.507 102.07 275.083 178.027 275.083Z" fill="#FE00AE"/>
<g style="mix-blend-mode:multiply" opacity="0.15">
<path d="M71.12 154.56C59.5525 86.2926 100.45 21.2626 164.517 0.682617C161.367 0.997617 158.217 1.41762 155.067 1.94262C80.185 14.6301 29.75 85.6276 42.4375 160.528C55.125 235.41 126.122 285.845 201.005 273.158C207.62 272.038 214.025 270.463 220.237 268.468C148.925 275.573 83.2825 226.293 71.12 154.578V154.56Z" fill="#08142D"/>
</g>
<g style="mix-blend-mode:multiply" opacity="0.15">
<path d="M105.052 199.08C137.266 199.08 163.38 172.966 163.38 140.752C163.38 108.539 137.266 82.4249 105.052 82.4249C72.8391 82.4249 46.725 108.539 46.725 140.752C46.725 172.966 72.8391 199.08 105.052 199.08Z" stroke="#08142D" stroke-width="5.72642" stroke-miterlimit="10"/>
</g>
<g style="mix-blend-mode:multiply" opacity="0.15">
<path d="M243.18 175.683C275.393 175.683 301.507 149.568 301.507 117.355C301.507 85.1417 275.393 59.0276 243.18 59.0276C210.967 59.0276 184.852 85.1417 184.852 117.355C184.852 149.568 210.967 175.683 243.18 175.683Z" stroke="#08142D" stroke-width="5.72642" stroke-miterlimit="10"/>
</g>
<path d="M107.135 194.408C139.348 194.408 165.462 168.293 165.462 136.08C165.462 103.867 139.348 77.7526 107.135 77.7526C74.9216 77.7526 48.8075 103.867 48.8075 136.08C48.8075 168.293 74.9216 194.408 107.135 194.408Z" stroke="#E4F9FE" stroke-width="5.72642" stroke-miterlimit="10"/>
<path d="M245.28 171.01C277.493 171.01 303.608 144.896 303.608 112.683C303.608 80.4692 277.493 54.3551 245.28 54.3551C213.067 54.3551 186.953 80.4692 186.953 112.683C186.953 144.896 213.067 171.01 245.28 171.01Z" stroke="#E4F9FE" stroke-width="5.72642" stroke-miterlimit="10"/>
<g style="mix-blend-mode:multiply" opacity="0.15">
<path d="M181.702 205.555C197.872 205.555 210.98 192.447 210.98 176.278C210.98 160.108 197.872 147 181.702 147C165.533 147 152.425 160.108 152.425 176.278C152.425 192.447 165.533 205.555 181.702 205.555Z" fill="#08142D"/>
</g>
<path d="M183.68 200.165C199.849 200.165 212.957 187.057 212.957 170.888C212.957 154.718 199.849 141.61 183.68 141.61C167.51 141.61 154.402 154.718 154.402 170.888C154.402 187.057 167.51 200.165 183.68 200.165Z" fill="#FE00AE"/>
</g>
<defs>
<clipPath id="clip0_34_511">
<rect width="350" height="275.118" fill="white"/>
</clipPath>
</defs>
</svg>
