<svg width="1728" height="256" viewBox="0 0 1728 256" fill="none" xmlns="http://www.w3.org/2000/svg">
<path d="M-28 104.387C-19.2313 105.556 -10.6789 108.67 -2 110.387C32.4586 117.203 68.5922 117.406 103.556 115.831C136.423 114.351 179.838 114.735 210.222 99.9422C224.248 93.114 232.453 70.6903 231.556 55.9422C230.148 32.822 223.223 5.74704 197.333 2.60888C187.755 1.44793 171.426 1.40017 163.111 7.49777C154.608 13.7333 150.953 30.2568 152.889 40.1644C156.554 58.9214 168.461 73.5504 183 85.2756C198.236 97.5623 219.848 102.418 238.444 106.831C273.344 115.112 308.316 121.003 344.222 122.831C400.129 125.678 455.939 130.387 512 130.387C562.084 130.387 611.888 126.387 662 126.387C751.991 126.387 839.921 104.387 930 104.387C974.435 104.387 1018.36 100.163 1062.78 103.387C1109.81 106.8 1163.97 106.781 1207.56 127.276C1239.3 142.204 1260.72 171.683 1272.67 204.164C1279.88 223.794 1277.77 254.164 1251 254.164C1230.47 254.164 1211.58 240.819 1194.89 230.387C1182.06 222.366 1173.38 207.84 1175.22 192.387C1180.03 152.036 1236.27 131.42 1268.44 118.831C1296.4 107.892 1324.84 98.5353 1353.78 90.4978C1382.64 82.4809 1412.42 69.441 1442 64.8311C1498.09 56.0891 1554.84 50.6433 1611.44 45.2756C1640.51 42.5196 1671.54 43.4516 1699.56 34.8311C1703.4 33.6478 1708.25 32.7171 1712.22 32.2756C1726.49 30.6907 1742.51 28.8838 1756 24.3867" stroke="#2A34FF" stroke-width="3" stroke-linecap="round"/>
</svg>
