<svg width="32" height="32" viewBox="0 0 32 32" fill="none" xmlns="http://www.w3.org/2000/svg">
<path fill-rule="evenodd" clip-rule="evenodd" d="M30.6203 15.8101C30.6203 23.9901 23.9895 30.6203 15.8101 30.6203C7.63079 30.6203 1 23.9901 1 15.8101C1 7.63079 7.63079 1 15.8101 1C23.9895 1 30.6203 7.63079 30.6203 15.8101Z" stroke="#2A34FF" stroke-width="2"/>
<mask id="mask0_341_9" style="mask-type:luminance" maskUnits="userSpaceOnUse" x="1" y="1" width="30" height="30">
<path fill-rule="evenodd" clip-rule="evenodd" d="M1 31H31V1H1V31Z" fill="white"/>
</mask>
<g mask="url(#mask0_341_9)">
<path fill-rule="evenodd" clip-rule="evenodd" d="M10.1599 22.1521H12.8454V13.9526H10.1599V22.1521ZM11.5203 10C10.6014 10 10 10.6127 10 11.4163C10 12.2044 10.5838 12.8338 11.485 12.8338H11.5027C12.4392 12.8338 13.0224 12.2044 13.0224 11.4163C13.0042 10.6127 12.4392 10 11.5203 10ZM22.5316 17.4499V22.1517H19.8449V17.7649C19.8449 16.663 19.4575 15.9107 18.4845 15.9107C17.7426 15.9107 17.3011 16.4178 17.1065 16.9076C17.036 17.083 17.0177 17.3264 17.0177 17.5728V22.1517H14.331C14.331 22.1517 14.3669 14.7211 14.331 13.9521H17.0177V15.1143C17.0125 15.1232 17.0048 15.1328 17.0001 15.1411H17.0177V15.1143C17.3752 14.5571 18.0119 13.76 19.4387 13.76C21.2065 13.76 22.5316 14.9317 22.5316 17.4499Z" fill="#2A34FF"/>
</g>
</svg>
