<svg width="238" height="55" viewBox="0 0 238 55" fill="none" xmlns="http://www.w3.org/2000/svg">
<g clip-path="url(#clip0_629_738)">
<path d="M27.2558 19.3687H21.2801C20.3591 19.3687 19.4552 19.5311 18.5918 19.8491L18.3108 19.9528V35.0464L18.5918 35.1501C19.4552 35.4681 20.3591 35.6306 21.2801 35.6306H27.2558L21.7676 27.4979L27.2558 19.3652V19.3687Z" fill="white"/>
<path d="M12.863 27.4978C12.863 29.9517 13.9431 32.2536 15.8289 33.8159L16.523 34.3931V20.6094L15.8289 21.1866C13.9431 22.7454 12.863 25.0473 12.863 27.5047V27.4978Z" fill="white"/>
<path d="M29.2803 19.2305L23.7007 27.4979L29.2803 35.7654L45.5961 27.4979L29.2803 19.2305ZM30.225 32.0395L27.1609 27.4979L30.225 22.9564L35.9096 25.8354V29.1604L30.225 32.0395Z" fill="white"/>
<path d="M27.5808 0L0.644043 27.4983L27.5808 54.9965L54.5175 27.4983L27.5808 0ZM5.7497 27.4983L27.5808 5.21209L49.4153 27.5017L27.5808 49.7914L5.7497 27.4983Z" fill="white"/>
<path d="M68.9746 45.4681C66.7638 45.4681 64.9863 47.2239 64.9863 49.4394C64.9863 51.6548 66.7638 53.4245 68.9746 53.4245C70.0513 53.4245 71.1009 52.9682 71.8694 52.2251L72.5533 52.9821C71.5884 53.9118 70.2747 54.4959 68.9171 54.4959C66.09 54.4959 63.8521 52.2666 63.8521 49.4394C63.8521 46.6121 66.1171 44.4277 68.9577 44.4277C70.3018 44.4277 71.602 44.9842 72.5398 45.8828L71.8694 46.7123C71.1144 45.9416 70.0513 45.4715 68.9746 45.4715V45.4681Z" fill="white"/>
<path d="M84.4743 54.4502L82.4192 51.2497C82.2228 51.2635 82.0129 51.2774 81.7895 51.2774H79.1859V54.4468H78.0652V44.4512H81.7861C84.234 44.4512 85.6458 45.6782 85.6458 47.8072C85.6458 49.449 84.8468 50.5792 83.4349 51.0354L85.744 54.4468H84.471L84.4743 54.4502ZM81.7895 50.2232C83.567 50.2232 84.5725 49.4075 84.5725 47.8383C84.5725 46.2692 83.567 45.5123 81.7895 45.5123H79.1859V50.2232H81.7895Z" fill="white"/>
<path d="M98.3254 44.4551V45.5127H92.7999V48.8688H97.7363V49.9126H92.7999V53.3965H98.5082V54.4541H91.6826V44.4585H98.3288L98.3254 44.4551Z" fill="white"/>
<path d="M110.467 51.893H105.137L104.047 54.4507H102.859L107.25 44.4551H108.411L112.789 54.4507H111.574L110.47 51.893H110.467ZM110.02 50.8354L107.795 45.6959L105.598 50.8354H110.02Z" fill="white"/>
<path d="M123.099 44.4551V45.5127H119.896V54.4507H118.775V45.5127H115.586V44.4551H123.099Z" fill="white"/>
<path d="M129.338 44.4551V54.4507H128.218V44.4551H129.338Z" fill="white"/>
<path d="M135.605 44.4551L138.978 53.1649L142.363 44.4551H143.538L139.536 54.4507H138.375L134.404 44.4551H135.605Z" fill="white"/>
<path d="M155.246 44.4551V45.5127H149.721V48.8688H154.657V49.9126H149.721V53.3965H155.429V54.4541H148.603V44.4585H155.249L155.246 44.4551Z" fill="white"/>
<path d="M171.379 45.527C170.119 45.527 169.293 46.042 169.293 46.8991C169.293 49.4983 174.805 48.1399 174.792 51.7691C174.792 53.4246 173.349 54.4961 171.254 54.4961C169.828 54.4961 168.427 53.867 167.506 52.9684L168.01 51.9833C168.921 52.8682 170.163 53.3831 171.271 53.3831C172.682 53.3831 173.566 52.799 173.566 51.8278C173.58 49.1561 168.068 50.5697 168.068 46.9855C168.068 45.4164 169.425 44.4141 171.453 44.4141C172.588 44.4141 173.749 44.7839 174.558 45.3438L174.084 46.3565C173.204 45.7724 172.168 45.527 171.386 45.527H171.379Z" fill="white"/>
<path d="M186.767 44.4551V45.5127H183.564V54.4507H182.444V45.5127H179.254V44.4551H186.767Z" fill="white"/>
<path d="M195.79 53.4518C197.652 53.4518 198.769 52.3078 198.769 50.3377V44.4551H199.89V50.3377C199.89 52.9506 198.353 54.4922 195.79 54.4922C193.227 54.4922 191.663 52.9506 191.663 50.3377V44.4551H192.784V50.3377C192.784 52.3078 193.931 53.4518 195.79 53.4518Z" fill="white"/>
<path d="M215.122 49.4529C215.122 52.294 212.925 54.4507 210.044 54.4507H206.126V44.4551H210.084C212.939 44.4551 215.119 46.6118 215.119 49.4529H215.122ZM213.988 49.4667C213.988 47.2097 212.255 45.5127 210.057 45.5127H207.247V53.3965H210.101C212.285 53.3965 213.991 51.7098 213.991 49.4702L213.988 49.4667Z" fill="white"/>
<path d="M221.782 44.4551V54.4507H220.661V44.4551H221.782Z" fill="white"/>
<path d="M237.576 49.4532C237.576 52.2666 235.311 54.4925 232.457 54.4925C229.603 54.4925 227.324 52.2632 227.324 49.4532C227.324 46.6432 229.589 44.4277 232.457 44.4277C235.325 44.4277 237.576 46.6398 237.576 49.4532ZM228.455 49.4532C228.455 51.6652 230.273 53.4521 232.457 53.4521C234.641 53.4521 236.429 51.6687 236.429 49.4532C236.429 47.2377 234.638 45.4819 232.457 45.4819C230.277 45.4819 228.455 47.2377 228.455 49.4532Z" fill="white"/>
<path d="M69.0422 14.6338C69.0422 16.1339 67.9046 17.1465 66.3878 17.1465C64.871 17.1465 63.7334 16.1339 63.7334 14.6338C63.7334 13.1338 64.871 12.1211 66.3878 12.1211C67.9046 12.1211 69.0422 13.1338 69.0422 14.6338ZM64.2954 35.9177V19.5141H68.4768V35.9177H64.2954Z" fill="white"/>
<path d="M83.3196 19.5185V23.5382H77.9804V31.9024H83.3196V35.9221H73.799V23.5382H71.0261V19.5185H73.799V15.9102H77.9804V19.5185H83.3196Z" fill="white"/>
<path d="M90.6499 22.9259V25.7013H98.8365V35.9216H86.4685V32.5137H94.6552V29.3581H86.4685V19.5215H98.8365V22.9328H90.6499V22.9259Z" fill="white"/>
<path d="M109.329 19.1445C111.614 19.1445 113.344 20.2436 114.421 21.8785V19.5144H118.602V35.9179H114.421V33.6264C113.354 35.2198 111.638 36.2877 109.352 36.2877C105.174 36.2877 101.961 32.752 101.961 27.7161C101.961 22.6803 105.235 19.1445 109.329 19.1445ZM106.187 27.7196C106.187 30.419 107.988 32.2266 110.307 32.2266C112.647 32.2266 114.424 30.4259 114.424 27.7196C114.424 25.0341 112.64 23.2091 110.307 23.2126C107.974 23.2091 106.187 25.0271 106.19 27.7161L106.187 27.7196Z" fill="white"/>
<path d="M132.832 35.9172V23.5886H126.616V35.9172H122.435V19.5137H137.017V35.9172H132.836H132.832Z" fill="white"/>
<path d="M147.513 19.1445C149.798 19.1445 151.528 20.2436 152.605 21.8785V19.5144H156.786V35.9179H152.605V33.6264C151.538 35.2198 149.822 36.2877 147.537 36.2877C143.359 36.2877 140.146 32.752 140.146 27.7161C140.146 22.6803 143.419 19.1445 147.513 19.1445ZM144.371 27.7196C144.371 30.419 146.172 32.2266 148.491 32.2266C150.831 32.2266 152.608 30.4259 152.608 27.7196C152.608 25.0341 150.824 23.2091 148.491 23.2126C146.159 23.2091 144.371 25.0271 144.374 27.7161L144.371 27.7196Z" fill="white"/>
<path d="M164.8 22.9259V25.7013H172.987V35.9216H160.619V32.5137H168.806V29.3581H160.619V19.5215H172.987V22.9328H164.8V22.9259Z" fill="white"/>
<path d="M191.561 19.5166V35.9202H187.38V23.5916H180.988V35.9202H176.806V12.9531H180.988V19.5132H191.564L191.561 19.5166Z" fill="white"/>
<path d="M211.435 27.72C211.435 32.6556 207.745 36.2917 203.066 36.2917C198.387 36.2917 194.693 32.6349 194.693 27.72C194.693 22.8052 198.444 19.1484 203.066 19.1484C207.687 19.1484 211.435 22.781 211.435 27.7235V27.72ZM198.918 27.72C198.918 30.4194 200.747 32.227 203.066 32.227C205.405 32.227 207.21 30.4263 207.21 27.72C207.21 25.0345 205.398 23.2096 203.066 23.213C200.733 23.2096 198.918 25.0276 198.922 27.7166L198.918 27.72Z" fill="white"/>
<path d="M228.33 35.9168L226.844 30.3936L225.615 23.7403H225.334L224.105 30.3902L222.618 35.9133H217.716L213.304 19.5098H217.445L218.796 24.6735L220.214 31.0054L221.633 24.6735L222.984 19.5098H227.958L229.308 24.6735L230.727 31.0054L232.149 24.6735L233.5 19.5098H237.641L233.229 35.9133H228.327L228.33 35.9168Z" fill="white"/>
</g>
<defs>
<clipPath id="clip0_629_738">
<rect width="237" height="55" fill="white" transform="translate(0.644043)"/>
</clipPath>
</defs>
</svg>
