<svg id="Layer_1" data-name="Layer 1" 
	xmlns="http://www.w3.org/2000/svg" viewBox="0 0 199 47.01">
	<defs>
		<style>.cls-1{fill:#ffffff;}</style>
	</defs>
	<title>logo_lily</title>
	<path class="cls-1" d="M22.73,16.85h-5a6.62,6.62,0,0,0-2.25.39l-.23.09V29.68l.23.09a6.62,6.62,0,0,0,2.25.39h5l-4.58-6.65Z"/>
	<path class="cls-1" d="M10.71,23.51a6.6,6.6,0,0,0,2.48,5.16l.58.48V17.86l-.58.48A6.61,6.61,0,0,0,10.71,23.51Z"/>
	<path class="cls-1" d="M24.42,16.74l-4.66,6.77,4.66,6.76,13.64-6.76Zm.79,10.48-2.56-3.71,2.56-3.72L30,22.14v2.73Z"/>
	<path class="cls-1" d="M23,1,.5,23.51,23,46l22.5-22.5ZM4.76,23.51,23,5.26,41.25,23.51,23,41.75Z"/>
	<path class="cls-1" d="M57.59,38.21a3.26,3.26,0,1,0,0,6.51,3.57,3.57,0,0,0,2.42-1l.57.62a4.51,4.51,0,0,1-3,1.24,4.12,4.12,0,1,1,0-8.24,4.42,4.42,0,0,1,3,1.19l-.56.68A3.5,3.5,0,0,0,57.59,38.21Z"/>
	<path class="cls-1" d="M70.54,45.56l-1.72-2.62a4.45,4.45,0,0,1-.53,0H66.12v2.59h-.94V37.38h3.11c2,0,3.23,1,3.23,2.75a2.57,2.57,0,0,1-1.85,2.64l1.93,2.79ZM68.29,42.1c1.49,0,2.33-.66,2.33-2s-.84-1.9-2.33-1.9H66.12V42.1Z"/>
	<path class="cls-1" d="M82.11,37.38v.87H77.49V41h4.13v.85H77.49V44.7h4.77v.86h-5.7V37.38Z"/>
	<path class="cls-1" d="M92.25,43.47H87.8l-.91,2.09h-1l3.67-8.18h1l3.66,8.18h-1Zm-.37-.87L90,38.4l-1.84,4.2Z"/>
	<path class="cls-1" d="M102.8,37.38v.87h-2.67v7.31h-.94V38.25H96.53v-.87Z"/>
	<path class="cls-1" d="M108,37.38v8.18h-.94V37.38Z"/>
	<path class="cls-1" d="M113.25,37.38l2.82,7.13,2.83-7.13h1l-3.34,8.18h-1l-3.32-8.18Z"/>
	<path class="cls-1" d="M129.66,37.38v.87h-4.61V41h4.12v.85h-4.12V44.7h4.76v.86h-5.7V37.38Z"/>
	<path class="cls-1" d="M143.14,38.26c-1,0-1.74.42-1.74,1.12,0,2.13,4.6,1,4.59,4,0,1.36-1.2,2.24-3,2.24a4.7,4.7,0,0,1-3.13-1.25l.42-.81A4.13,4.13,0,0,0,143,44.68c1.18,0,1.92-.47,1.92-1.27,0-2.18-4.59-1-4.59-4,0-1.29,1.13-2.1,2.83-2.1a4.81,4.81,0,0,1,2.59.76l-.4.83A4.28,4.28,0,0,0,143.14,38.26Z"/>
	<path class="cls-1" d="M156,37.38v.87h-2.67v7.31h-.94V38.25h-2.66v-.87Z"/>
	<path class="cls-1" d="M163.53,44.74A2.3,2.3,0,0,0,166,42.2V37.38H167V42.2a3.44,3.44,0,0,1-6.88,0V37.38H161V42.2A2.32,2.32,0,0,0,163.53,44.74Z"/>
	<path class="cls-1" d="M179.68,41.47a4.08,4.08,0,0,1-4.24,4.09h-3.27V37.38h3.31A4.07,4.07,0,0,1,179.68,41.47Zm-.94,0a3.21,3.21,0,0,0-3.29-3.23H173.1V44.7h2.39A3.18,3.18,0,0,0,178.74,41.48Z"/>
	<path class="cls-1" d="M185.25,37.38v8.18h-.94V37.38Z"/>
	<path class="cls-1" d="M198.44,41.47a4.28,4.28,0,1,1-4.28-4.11A4.18,4.18,0,0,1,198.44,41.47Zm-7.62,0a3.33,3.33,0,0,0,6.66,0,3.33,3.33,0,0,0-6.66,0Z"/>
	<path class="cls-1" d="M57.64,13a2.22,2.22,0,1,1-2.22-2.06A2.06,2.06,0,0,1,57.64,13Zm-4,17.42V17h3.49V30.4Z"/>
	<path class="cls-1" d="M69.57,17v3.29H65.11v6.85h4.46V30.4H61.62V20.26H59.3V17h2.32V14h3.49V17Z"/>
	<path class="cls-1" d="M75.7,19.76V22h6.84V30.4H72.2V27.6H79V25H72.2V17H82.54v2.79Z"/>
	<path class="cls-1" d="M91.3,16.67a4.94,4.94,0,0,1,4.25,2.24V17h3.5V30.4h-3.5V28.52a4.92,4.92,0,0,1-4.23,2.18c-3.49,0-6.17-2.89-6.17-7s2.73-7,6.15-7Zm-2.62,7a3.45,3.45,0,1,0,6.88,0,3.45,3.45,0,1,0-6.88,0Z"/>
	<path class="cls-1" d="M110.94,30.4V20.31h-5.2V30.4h-3.49V17h12.18V30.4Z"/>
	<path class="cls-1" d="M123.2,16.67a4.94,4.94,0,0,1,4.25,2.24V17H131V30.4h-3.5V28.52a4.92,4.92,0,0,1-4.23,2.18c-3.49,0-6.17-2.89-6.17-7s2.73-7,6.15-7Zm-2.62,7a3.45,3.45,0,1,0,6.88,0,3.45,3.45,0,1,0-6.88,0Z"/>
	<path class="cls-1" d="M137.64,19.76V22h6.84V30.4H134.15V27.6H141V25h-6.84V17h10.33v2.79Z"/>
	<path class="cls-1" d="M160,17V30.4h-3.49V20.31h-5.35V30.4h-3.49V11.6h3.49V17Z"/>
	<path class="cls-1" d="M176.6,23.69a7,7,0,1,1-14,0,7,7,0,1,1,14,0Zm-10.45,0a3.47,3.47,0,1,0,6.92,0,3.47,3.47,0,1,0-6.92,0Z"/>
	<path class="cls-1" d="M190.72,30.4l-1.24-4.52-1-5.45h-.24l-1,5.45L186,30.4h-4.1L178.16,17h3.46l1.13,4.23,1.19,5.18,1.18-5.18L186.25,17h4.16l1.13,4.23,1.19,5.18,1.18-5.18L195,17h3.46L194.81,30.4Z"/>
</svg>