<svg width="288" height="310" viewBox="0 0 288 310" fill="none" xmlns="http://www.w3.org/2000/svg">
<path d="M214.32 288.658C215.476 288.813 216.64 288.895 217.807 288.902C233.236 289.003 247.426 275.978 253.899 255.672C254.62 253.444 255.219 251.178 255.694 248.885C267.424 240.898 276.554 229.646 281.953 216.522C293.589 188.111 285.835 159.679 269.17 139.321L269.329 138.781C282.212 91.5766 256.802 64.7007 231.073 55.8274C228.063 54.7924 224.992 53.9458 221.876 53.2926C223.722 40.2157 220.729 26.0159 200.333 17.2889C196.942 15.7432 193.182 15.1891 189.489 15.6907C185.796 16.1924 182.321 17.7292 179.465 20.1234C175.182 23.5809 171.589 27.8155 168.877 32.6051C166.922 29.7964 164.502 27.3425 161.721 25.3493C153.256 19.3517 135.532 14.2971 102.906 33.3911C87.8337 10.4821 76.751 0.372253 67.2052 0.110669C61.7424 -0.0393989 56.8441 3.05539 52.4585 9.55625C45.6954 19.3822 43.4485 31.1722 45.5186 43.9956C28.4416 48.1266 19.0574 54.0449 16.9924 61.9562C15.3867 68.1033 18.0978 75.2097 25.4357 83.6225C24.5864 89.694 24.445 95.8435 25.0143 101.948C24.2366 103.552 23.4896 105.204 22.795 106.917C21.8503 109.249 21.0143 111.572 20.2741 113.908C6.69494 127.297 -1.23349 145.879 1.16845 162.636C2.36472 170.923 6.66401 182.755 20.3294 192.098C6.05462 215.365 6.4431 236.225 10.1871 250.975C11.5286 256.24 13.4443 261.341 15.9 266.188C31.6445 296.924 66.5685 315.183 95.4329 307.745C101.117 306.298 106.48 303.8 111.245 300.38C112.527 301.729 113.935 302.952 115.449 304.034C123.077 309.504 137.878 314.06 163.733 302.276C169.445 300.901 174.889 298.587 179.842 295.428C185.271 297.202 191.048 297.641 196.682 296.708C203.127 295.495 209.18 292.732 214.32 288.658ZM251.245 254.846C245.129 273.932 232.008 286.205 217.818 286.104C217.705 286.104 217.591 286.096 217.479 286.079C225.067 279.506 232.519 269.986 239.943 257.438C244.227 255.675 248.361 253.567 252.303 251.134C251.976 252.402 251.628 253.657 251.245 254.846ZM163.253 299.51C151.669 302.45 137.614 302.222 121.533 298.824C119.456 298.371 117.404 297.811 115.385 297.145C117.551 295.203 119.552 293.084 121.369 290.812C122.512 291.723 123.774 292.474 125.12 293.045C131.336 295.651 139.296 294.482 148.976 289.581C154.239 289.654 159.491 289.085 164.617 287.888C167.828 290.027 171.212 291.893 174.734 293.466C170.687 295.901 166.859 297.891 163.253 299.51ZM99.739 297.284C84.2571 299.603 72.3223 294.597 64.2612 282.387C62.6718 279.919 61.2938 277.32 60.1419 274.62C65.21 278.758 71.4985 280.994 81.5686 280.623C88.6837 286.733 96.5546 291.903 104.988 296.007C103.266 296.604 101.497 297.053 99.7 297.349L99.739 297.284ZM44.648 221.603C44.2303 220.832 43.827 220.046 43.4382 219.244L43.1468 218.096C43.708 212.945 44.6335 207.841 45.9165 202.822C46.0731 202.782 46.2867 202.894 46.4654 202.942C47.0371 203.371 47.6347 203.756 48.2194 204.163C47.51 207.094 47.0289 210.076 46.7804 213.082C45.8816 215.872 45.1692 218.718 44.648 221.603ZM91.1684 40.9064C88.3334 42.8665 85.3727 44.9881 82.33 47.2971C79.7325 45.2601 76.877 43.5757 73.8378 42.2876C80.4205 41.598 86.1291 41.1117 91.1684 40.9064ZM102.01 37.1548L102.706 38.2186C101.987 38.1602 101.239 38.1281 100.49 38.096L102.01 37.1548ZM131.317 60.7088C128.023 62.3224 124.935 64.0135 122.047 65.7649C118.804 59.5526 115.514 53.667 112.226 48.2253C110.842 45.9104 109.485 43.7 108.171 41.5894C119.407 43.4031 126.955 48.4116 136.722 58.1519C134.926 58.9534 133.124 59.8057 131.317 60.7088ZM163.665 50.2206C165.146 46.0665 166.901 42.0151 168.918 38.0933C170.687 41.7018 171.919 45.5492 172.576 49.5139C169.594 49.5709 166.619 49.8069 163.665 50.2206ZM266.039 139.894C264.231 146.339 262.355 152.246 260.409 157.616C258.395 152.297 255.548 147.333 251.974 142.909L251.938 142.77C252.273 140.296 252.521 137.771 252.903 135.119C253.285 132.467 253.342 130.138 253.447 127.705C258.059 131.32 262.285 135.404 266.056 139.89L266.039 139.894ZM187.145 285.54C183.819 287.853 180.645 289.936 177.623 291.789C174.336 290.497 171.175 288.908 168.178 287.04C171.253 286.152 174.268 285.072 177.207 283.804C182.313 281.69 187.183 279.045 191.737 275.913C192.143 276.347 192.554 276.724 192.956 277.14C191.354 280.158 189.404 282.977 187.145 285.54ZM126.134 290.547C125.011 290.061 123.959 289.425 123.006 288.656C124.033 287.229 125.024 285.737 125.967 284.202C126.621 284.517 127.275 284.833 127.942 285.126C132.771 287.254 137.887 288.656 143.125 289.289C136.397 291.959 130.715 292.402 126.221 290.525L126.134 290.547ZM111.791 296.039C112.598 295.575 113.398 295.076 114.183 294.525C113.537 295.115 112.904 295.683 112.244 296.22C112.103 296.123 111.97 296.014 111.847 295.895L111.791 296.039ZM49.3247 213.769C50.0389 211.477 50.8835 209.115 51.8843 206.639C52.6606 207.072 53.4369 207.504 54.2392 207.893C52.6725 215.612 51.6505 223.431 51.181 231.294L50.062 229.948C49.1252 224.56 48.8962 219.073 49.3808 213.625L49.3247 213.769ZM40.1708 197.837C40.4897 198.145 40.8171 198.414 41.1533 198.717L40.186 198.407L40.1708 197.837ZM46.6585 199.764C48.2221 194.228 50.133 188.796 52.3799 183.5C53.0301 185.186 53.7286 186.99 54.4705 188.746L54.6944 189.263C52.3207 192.817 50.4482 196.682 49.1298 200.747C48.6028 200.64 48.0888 200.512 47.5573 200.387C47.0259 200.263 47.0334 199.928 46.7322 199.689L46.6585 199.764ZM57.9341 74.8921C61.2928 80.1003 65.0859 85.0151 69.2728 89.5841C67.0518 91.3541 64.9532 93.2724 62.9912 95.3258C59.1317 95.3252 55.2834 95.7433 51.514 96.5727C51.5821 88.8536 53.8335 81.3113 58.0078 74.8178L57.9341 74.8921ZM229.922 78.0592C235.869 85.8068 236.159 97.3788 230.79 112.479C229.984 112.221 229.182 111.98 228.367 111.761C229.316 97.3107 225.317 82.9678 217.027 71.094C219.559 71.3441 222.042 71.9612 224.397 72.9259C226.505 74.3261 228.371 76.0599 229.922 78.0592ZM236.502 224.115C236.32 217.824 235.754 211.549 234.806 205.327C237.201 201.998 239.535 198.573 241.72 195.074C242.545 194.334 243.354 193.512 244.149 192.607C246.983 197.73 249.268 203.139 250.966 208.742C251.187 215.74 249.74 221.125 246.533 223.661C244.137 225.602 240.743 225.723 236.502 224.115ZM59.9571 179.799C59.371 176.355 59.3348 172.84 59.85 169.384C60.889 170.269 61.9977 171.135 63.1847 172.019C63.3292 173.463 63.5344 174.855 63.77 176.221C63.1746 177.668 62.6487 179.098 62.0622 180.579L61.695 180.154C61.4889 179.906 61.2044 179.736 60.8884 179.671C60.5725 179.607 60.244 179.652 59.9571 179.799ZM55.0973 111.419C55.5609 110.838 56.0201 110.24 56.5144 109.708C61.6377 113.48 66.5001 117.319 71.1794 121.093C70.7873 122.174 70.4169 123.268 70.051 124.379C69.1511 127.107 68.3642 129.769 67.6251 132.4C62.1745 126.695 57.8373 120.023 54.8365 112.726L54.735 112.325L55.0973 111.419ZM102.006 79.7386L102.761 81.3985C96.2419 88.8298 92.723 96.7029 92.5682 104.481C90.2101 102.962 87.7505 101.607 85.2068 100.425L83.7533 99.2944C89.2544 89.5295 95.3158 83.0662 102.006 79.7386ZM116.831 72.495C117.376 72.8195 117.895 73.1876 118.41 73.5383C117.348 73.5856 116.282 73.6156 115.246 73.6933C115.846 73.282 116.353 72.8754 116.892 72.4426L116.831 72.495ZM119.353 70.7624C119.874 70.408 120.4 70.071 120.943 69.7295L122.626 73.0052C121.635 72.2384 120.562 71.511 119.423 70.7448L119.353 70.7624ZM192.023 76.0892C188.426 78.9876 185.26 82.3844 182.623 86.1771C179.71 83.8391 176.46 81.9549 172.984 80.5885C174.103 76.7454 174.927 72.8226 175.449 68.8542C181.342 70.3141 186.945 72.7602 192.023 76.0892ZM245.126 183.546C244.633 184.473 244.127 185.398 243.608 186.319C243.17 185.616 242.733 184.912 242.256 184.2C242.743 182.91 243.239 181.581 243.703 180.13L244.766 182.637L245.126 183.546ZM239.594 193.115C238.856 193.783 238.079 194.443 237.32 195.025C238.693 192.526 239.932 189.956 241.031 187.325L242.09 189.019C241.247 190.436 240.407 191.797 239.594 193.115ZM219.566 257.833C214.42 259.88 208.393 260.058 202.482 259.818L202.455 259.714C202.471 258.05 202.219 256.395 201.711 254.811C201.882 251.556 201.821 248.292 201.527 245.045C206.886 239.266 212.477 232.99 218.299 226.217C220.046 224.2 221.888 221.974 223.781 219.66C224.667 220.306 225.514 220.942 226.417 221.583C227.32 222.224 228.21 222.813 229.074 223.371C230.742 233.445 229.188 245.485 219.523 257.881L219.566 257.833ZM116.26 277.834C118.137 279.305 120.101 280.662 122.142 281.896C121.441 282.999 120.688 284.116 119.869 285.12C118.284 282.882 117.036 280.423 116.164 277.822L116.26 277.834ZM119.975 277.151C121.714 276.709 123.649 276.311 125.506 275.747C124.919 277.007 124.292 278.258 123.583 279.475C122.327 278.831 121.11 278.048 119.927 277.181L119.975 277.151ZM117.033 274.824L116.679 274.525C120.471 273.563 124.019 272.514 127.323 271.379L126.93 272.46C123.662 273.441 120.344 274.247 116.99 274.872L117.033 274.824ZM114.69 272.16C113.63 266.815 113.051 261.385 112.961 255.936C116.901 255.269 120.407 254.565 123.212 253.945C124.931 255.354 127.09 256.116 129.313 256.099L131.061 257.878C130.434 261.303 129.599 264.687 128.56 268.01C124.139 269.558 119.569 270.959 114.647 272.208L114.69 272.16ZM60.323 194.37L61.3074 190.954C65.0519 196.414 70.0927 200.86 75.978 203.893C72.805 203.865 69.4487 203.699 65.8829 203.364C65.6742 203.417 65.4475 203.326 65.2167 203.292C63.5435 200.347 61.9123 197.373 60.323 194.37ZM61.6156 202.817C60.466 202.665 59.3383 202.525 58.2408 202.36C58.5453 201.079 58.8497 199.798 59.1193 198.526C60.0558 199.955 60.8969 201.445 61.7026 202.795L61.6156 202.817ZM62.2245 159.191C62.4441 158.525 62.7158 157.845 62.9658 157.152C62.9279 157.513 62.9248 157.866 62.9043 158.223L62.2245 159.191ZM110.798 77.2478C115.882 76.8694 120.986 77.6225 125.743 79.4529L125.957 79.6393L126.01 79.848C123.02 82.2876 120.194 84.9222 117.552 87.7345C114.983 89.1419 112.487 90.6776 110.073 92.3358C108.751 88.5859 107.399 85.0842 106.018 81.8307C107.559 80.2117 109.183 78.6746 110.885 77.2258L110.798 77.2478ZM104.772 79.1106L104.644 78.6062C105.01 78.5135 105.375 78.4207 105.735 78.2367C105.436 78.5163 105.05 78.818 104.859 79.0885L104.772 79.1106ZM153.683 78.7299L153.513 79.8099C147.664 79.2933 141.77 79.6475 136.024 80.8609C137.312 79.5157 138.666 78.2095 140.071 76.964C144.486 77.3615 149.019 77.9328 153.77 78.7078L153.683 78.7299ZM192.762 101.396C195.898 104.337 198.836 107.481 201.558 110.809C198.628 111.497 195.776 112.482 193.046 113.747C192.493 113.535 191.935 113.381 191.395 113.222C191.841 110.855 192.055 108.451 192.035 106.042C192.005 104.701 191.894 103.363 191.703 102.035C192.089 101.807 192.445 101.606 192.762 101.322L192.762 101.396ZM215.62 126.531C217.784 126.815 219.888 127.299 221.909 127.675C221.173 129.419 220.315 131.109 219.342 132.733C218.805 131.899 218.224 131.095 217.601 130.324C216.978 129.038 216.321 127.76 215.638 126.527L215.62 126.531ZM198.931 247.871L198.975 249.211L198.414 248.391L198.931 247.871ZM198.481 259.667L197.428 259.601C194.006 259.396 190.737 259.208 187.725 259.306C190.557 256.532 193.484 253.548 196.455 250.443C197.483 251.94 198.307 253.568 198.905 255.283C198.806 256.715 198.715 258.182 198.477 259.65L198.481 259.667ZM179.547 242.256C180.741 240.657 181.824 238.978 182.788 237.231C184.106 238.192 185.35 239.154 186.537 240.111C184.351 240.981 182.034 241.699 179.564 242.326L179.547 242.256ZM85.8223 201.246C85.4409 196.243 85.6683 191.211 86.4996 186.263L90.7774 188.528C90.9998 189.842 91.2569 191.146 91.5226 192.412C91.651 194.231 91.8316 196.036 92.0818 197.824C91.3566 199.49 90.701 201.137 90.1541 202.776C89.6497 202.904 89.1188 202.927 88.5967 202.986C87.7114 202.488 86.7692 201.913 85.84 201.316L85.8223 201.246ZM68.2891 151.209C67.5739 152.038 66.8809 152.955 66.166 153.858L66.3175 152.413C66.9909 152.075 67.6116 151.603 68.3068 151.278L68.2891 151.209ZM73.6853 136.509C76.8759 135.366 80.8445 133.932 84.9395 132.56L87.9344 135.095L86.4436 136.881C83.4617 138.022 80.6681 139.605 78.1561 141.576C78.1561 141.576 78.0518 141.603 77.9822 141.62C76.2671 140.334 74.5953 138.999 72.9754 137.578C73.2225 137.311 73.5172 136.94 73.703 136.578L73.6853 136.509ZM97.6822 111.718C98.551 112.442 99.3761 113.14 100.241 113.994L99.4337 115.847C98.5115 114.766 97.5806 113.725 96.6239 112.727C96.4649 112.101 96.306 111.475 96.0427 110.875C96.6185 111.248 97.1635 111.498 97.6999 111.788L97.6822 111.718ZM119.144 90.0704C122.013 88.4978 124.986 87.1245 128.043 85.9602C122.492 93.569 118.891 102.423 117.555 111.747C117.121 111.857 116.743 112.12 116.33 112.317C115.319 108.772 114.181 104.944 112.916 100.835L112.18 98.5217C114.34 95.5924 116.671 92.7936 119.162 90.14L119.144 90.0704ZM111.22 95.3218L111.149 95.0435L111.779 94.606L111.22 95.3218ZM125.403 84.0198C126.036 83.4517 126.679 82.9184 127.338 82.3807L127.698 83.1411C126.885 83.5139 126.125 83.7996 125.351 84.107L125.403 84.0198ZM153.253 82.505C152.816 85.6707 152.505 88.823 152.26 92.0142C148.178 88.8012 143.908 85.8357 139.471 83.1335C144.01 82.3918 148.623 82.2158 153.205 82.6096L153.253 82.505ZM156.479 79.2421L157.27 80.0967C156.994 80.0802 156.69 80.0465 156.356 79.9955L156.479 79.2421ZM166.39 90.2789C164.934 93.6204 163.288 96.8756 161.459 100.029C159.444 98.0715 157.233 96.0962 154.827 94.1028C155.074 90.3371 155.409 86.5493 155.9 82.7218C157.433 82.9251 158.909 83.1984 160.342 83.4457C162.399 85.8611 164.399 88.1737 166.343 90.3835L166.39 90.2789ZM165.3 84.9642C166.285 85.2697 167.309 85.5837 168.194 85.9331L167.56 87.5196L165.3 84.9642ZM179.408 91.3071C178.288 93.3132 177.246 95.4104 176.279 97.6554C174.129 95.0909 171.922 92.5222 169.623 89.8842C170.033 88.947 170.417 87.9794 170.744 87.0076C171.943 87.4995 173.111 88.0176 174.21 88.5533C176.006 89.3564 177.715 90.3295 179.408 91.3071ZM210.366 137.048C208.111 135.763 205.78 134.618 203.385 133.617C201.783 131.173 200.133 128.685 198.353 126.119C200.441 125.959 202.491 125.865 204.506 125.853C207.331 129.293 209.806 133.006 211.893 136.938C211.392 136.936 210.87 136.994 210.366 137.048ZM220.677 157.685C220.483 158.672 220.256 159.674 219.996 160.69C219.027 159.937 218.036 159.17 217.015 158.429C215.558 155.096 213.812 151.503 211.867 147.85C213.186 146.848 214.432 145.773 215.646 144.65C217.393 148.613 219.088 152.959 220.677 157.685ZM219.864 147.19L221.471 148.633C221.492 149.517 221.513 150.474 221.468 151.319C220.918 149.884 220.387 148.52 219.847 147.194L219.864 147.19ZM221.274 208.762C219.784 209.616 218.19 210.275 216.533 210.725L213.971 208.876C215.368 207.58 216.644 206.16 217.782 204.631C219.053 204.605 220.314 204.544 221.541 204.418C221.848 204.895 222.124 205.399 222.413 205.881C222.111 206.809 221.706 207.764 221.257 208.767L221.274 208.762ZM175.354 243.246C174.472 241.156 173.624 238.983 172.78 236.753C174.614 235.806 176.356 234.864 178.002 233.91C178.87 234.485 179.725 235.083 180.559 235.667C179.081 238.367 177.331 240.908 175.337 243.251L175.354 243.246ZM130.098 252.993L129.574 252.46L130.311 252.884L130.098 252.993ZM129.929 249.334C129.174 248.84 128.471 248.333 127.699 247.844C129.17 247.878 130.672 247.886 132.213 247.828L132.124 248.721L129.929 249.334ZM96.3892 199.841L96.3186 199.563C96.4655 199.535 96.6107 199.498 96.7534 199.453C96.6189 199.579 96.5284 199.806 96.3892 199.841ZM89.0736 178.315L89.5186 177.369L89.6012 178.57L89.0736 178.315ZM79.266 173.01C82.4402 171.488 85.753 170.276 89.159 169.388L89.2577 172.621L88.9286 173.075C85.9397 172.907 82.9415 173.047 79.9815 173.495L79.266 173.01ZM151.972 95.4754C151.763 98.9537 151.671 102.384 151.704 105.726C148.415 105.449 145.109 105.422 141.815 105.644C140.662 98.0295 137.825 90.7676 133.513 84.3867C134.139 84.2277 134.73 84.0776 135.252 83.9452C140.608 86.9961 145.707 90.4755 150.501 94.349L151.972 95.4754ZM160.024 102.689C159.21 104.006 158.384 105.271 157.544 106.484C156.546 106.349 155.619 106.195 154.556 106.095C154.512 103.366 154.519 100.55 154.648 97.7768C156.561 99.4021 158.351 100.984 160.002 102.602L160.024 102.689ZM186.073 156.007C183.99 154.315 181.834 152.702 179.606 151.169L179.679 150.947C186.537 152.54 193.674 152.492 200.509 150.807L201.211 151.239C196.418 153.543 191.309 155.121 186.051 155.921L186.073 156.007ZM210.777 211.538C211.155 211.275 211.55 211.008 211.906 210.733L212.84 211.496C212.144 211.45 211.443 211.461 210.777 211.538ZM206.48 211.092C205.44 210.879 204.414 210.608 203.404 210.28C204.209 208.726 204.908 207.12 205.498 205.472L209.64 208.809C208.622 209.6 207.559 210.333 206.458 211.005L206.48 211.092ZM113.817 231.521L113.96 230.114C115.922 226.308 118.154 222.648 120.641 219.161C124.117 220.019 127.636 220.755 131.207 221.33C132.409 228.877 132.844 236.527 132.504 244.162C128.925 243.701 125.232 243.157 121.373 242.47C119.837 240.88 118.43 239.169 117.168 237.354C115.877 235.48 114.748 233.5 113.795 231.434L113.817 231.521ZM99.5701 189.98C100.41 188.619 101.284 187.25 102.232 185.88C103.607 186.088 104.995 186.193 106.385 186.195C105.339 188.127 104.236 189.907 103.08 191.626L99.5701 189.98ZM93.2694 168.659C92.8006 169 92.3536 169.354 91.898 169.748L91.8818 168.882C92.3556 168.706 92.8166 168.626 93.2821 168.563L93.2694 168.659ZM97.3746 165.284C98.2466 162.082 99.2498 159.032 100.297 156.155C102.391 156.79 104.518 157.307 106.67 157.704C107.184 160.427 107.559 163.174 107.797 165.934C105.819 165.452 103.778 165.289 101.749 165.451C100.297 165.284 98.835 165.228 97.3746 165.284ZM106.088 142.355L107.133 140.053C108.882 140.413 110.594 140.933 112.249 141.606C113.919 145.281 115.343 149.064 116.511 152.928C112.79 151.342 109.324 149.215 106.225 146.615C105.883 145.851 105.537 145.142 105.16 144.46L106.088 142.355ZM97.1194 136.707C96.9537 136.638 96.8011 136.547 96.6398 136.496C96.4786 136.444 96.1518 136.323 95.9121 136.255C96.5212 133.767 97.2302 131.236 98.0044 128.67C100.153 128.09 102.353 127.718 104.573 127.558C105.514 129.004 106.424 130.476 107.287 131.979C106.838 133.373 106.314 134.742 105.717 136.08C104.624 136.246 103.558 136.424 102.52 136.614C100.72 136.524 98.9156 136.555 97.1194 136.707ZM119.858 119.142C120.726 119.255 121.58 119.334 122.418 119.381C128.198 119.728 133.995 119.618 139.757 119.053C139.693 120.55 139.59 122.113 139.434 123.689C133.794 127.082 127.333 128.869 120.751 128.858L120.168 126.562C119.92 124.114 119.821 121.654 119.872 119.194L119.858 119.142ZM182.836 128.521C182.751 128.799 182.632 129.065 182.482 129.314C181.755 129.295 181.033 129.293 180.297 129.313L180.267 129.192C181.119 128.975 181.993 128.698 182.836 128.521ZM172.456 144.375C171.882 144.52 171.308 144.666 170.717 144.816L170.727 141.648C171.099 140.85 171.466 140.109 171.851 139.363C173.197 139.405 174.537 139.561 175.857 139.827C174.789 141.357 173.655 142.873 172.456 144.375ZM178.194 145.751C178.078 146.317 177.941 146.871 177.808 147.367L177.834 147.472C176.806 147.214 175.843 146.922 174.715 146.634C175.88 146.338 177.011 146.051 178.194 145.751ZM176.028 152.244C175.569 153.327 175.052 154.385 174.481 155.414C173.923 155.232 173.378 155.012 172.851 154.754C172.191 154.417 171.579 153.993 171.031 153.494L170.883 151.013L171.967 149.739C173.254 150.578 174.688 151.418 176.041 152.296L176.028 152.244ZM171.423 159.634L171.201 157.08L171.506 157.261C171.929 157.469 172.395 157.628 172.849 157.809C172.398 158.442 171.935 159.096 171.437 159.686L171.423 159.634ZM169.434 165.582L169.699 166.625C169.259 166.57 168.815 166.498 168.362 166.465C168.692 166.233 169.083 165.949 169.447 165.634L169.434 165.582ZM195.738 201.377C194.506 202.356 193.286 203.314 192.057 204.163C187.895 201.114 184.087 197.609 180.704 193.714C178.782 191.005 176.764 188.432 174.652 185.993C172.08 182.354 169.774 178.534 167.751 174.562C169.235 175.519 170.845 176.684 172.586 178.001C177.567 191.789 185.964 198.248 195.751 201.429L195.738 201.377ZM177.069 181.658C181.007 184.843 185.346 188.518 189.882 192.384C192.458 194.582 195.108 196.853 197.863 199.171C193.313 197.982 189.085 195.793 185.488 192.764C181.891 189.734 179.015 185.94 177.069 181.658ZM204.737 197.223C204.603 198.343 204.409 199.455 204.157 200.554L203.852 200.521L202.866 199.697L204.39 197.459C204.507 197.411 204.616 197.328 204.737 197.223ZM186.488 215.555C186.197 214.299 185.81 213.066 185.33 211.869C186.125 211.5 186.981 211.079 187.685 210.642C188.084 211.411 188.439 212.302 188.803 213.005C188.027 213.887 187.26 214.73 186.488 215.555ZM138.02 244.521C138.134 243.511 138.252 242.518 138.344 241.495C139.079 237.606 139.711 233.242 140.272 228.305C142.357 233.253 145.197 237.847 148.691 241.923C145.21 243.081 141.633 243.927 138.002 244.452L138.02 244.521ZM116.305 212.875C116.999 209.144 117.788 205.66 118.67 202.425L120.632 203.371L127.765 206.818C125.489 208.931 123.361 211.197 121.395 213.601C119.653 213.302 117.942 213.052 116.287 212.805L116.305 212.875ZM112.759 216.922C112.338 219.64 111.948 222.479 111.619 225.487C110.776 222.422 110.304 219.265 110.214 216.087C111.029 216.306 111.879 216.59 112.742 216.853L112.759 216.922ZM121.073 186.948C120.343 185.996 119.557 185.089 118.717 184.232C119.701 182.442 121.012 180.853 122.583 179.548C123.129 180.242 123.68 180.954 124.201 181.692C123.142 183.362 122.178 185.091 121.312 186.869C121.226 186.866 121.141 186.869 121.055 186.878L121.073 186.948ZM111.096 182.871L111.437 182.025L112.117 182.445C111.784 182.604 111.443 182.746 111.096 182.871ZM108.315 180.596C108.321 181.131 108.328 181.666 108.304 182.228C108.279 182.789 107.937 183.043 107.738 183.427C106.488 183.49 105.234 183.436 103.994 183.266C104.817 182.132 105.675 180.988 106.563 179.893L108.315 180.596ZM112.345 179.332C112.996 177.2 113.06 174.933 112.531 172.768C112.903 172.34 113.315 171.921 113.71 171.506C115.333 172.494 116.861 173.631 118.275 174.902C117.733 177.167 116.535 179.223 114.831 180.812C114.064 180.254 113.256 179.754 112.415 179.314L112.345 179.332ZM121.38 154.822C122.635 153.557 123.375 151.871 123.456 150.092L123.836 150.569C124.266 151.534 124.723 152.529 125.192 153.502C123.985 154.045 122.734 154.486 121.454 154.821L121.38 154.822ZM139.033 127.142C138.707 129.576 138.246 132.063 137.663 134.655C133.552 134.08 129.395 133.895 125.248 134.103C124.134 134.164 123.042 134.238 121.967 134.307L121.305 131.698C127.496 131.633 133.578 130.07 139.033 127.142ZM168.204 134.549L168.073 136.878C166.048 137.199 164.143 138.046 162.55 139.336L162.207 139.663L161.787 139.103C163.659 137.235 165.824 135.685 168.195 134.514L168.204 134.549ZM164.407 141.475C165.471 140.628 166.713 140.034 168.039 139.738L168.017 140.669L168.109 141.035C167.711 141.915 167.365 142.819 167.075 143.741L165.78 143.089C165.209 142.691 164.675 142.245 164.182 141.754C164.224 141.652 164.273 141.553 164.329 141.457L164.407 141.475ZM160.765 220.344C155.82 217.638 150.64 214.953 145.311 212.27C147.617 210.575 149.593 208.474 151.143 206.068C151.872 204.884 152.518 203.65 153.075 202.375C155.386 205.575 158.267 208.321 161.574 210.475C162.351 213.536 163.364 216.796 164.417 220.288C163.19 220.34 162.001 220.327 160.765 220.344ZM128.685 209.714C129.06 211.192 129.44 212.688 129.828 214.219C128.116 214.243 126.404 214.152 124.704 213.946C126.009 212.448 127.327 211.003 128.685 209.714ZM131.958 211.012C131.737 210.142 131.517 209.273 131.305 208.438L135.111 210.304C135.267 211.357 135.367 212.48 135.502 213.593C134.578 213.788 133.644 213.932 132.704 214.026C132.431 213.021 132.21 212.004 131.958 211.012ZM120.443 177.536L120.572 177.17L120.721 177.317L120.443 177.536ZM121.418 174.085C122.042 170.6 122.119 167.039 121.646 163.53C123.546 161.752 125.494 160.017 127.512 158.338C128.172 160.799 128.671 163.301 129.005 165.827C129.083 168.543 128.794 171.257 128.147 173.896C126.362 174.224 124.642 174.842 123.057 175.724C122.502 175.143 121.96 174.614 121.436 174.081L121.418 174.085ZM118.996 166.072C119.1 167.94 119.042 169.813 118.824 171.67C117.815 170.842 116.761 170.071 115.665 169.362C116.769 168.267 117.886 167.169 119.013 166.068L118.996 166.072ZM124.82 156.707C123.593 157.778 122.382 158.844 121.193 159.923L120.772 157.827C122.151 157.567 123.505 157.193 124.82 156.707ZM149.048 142.744L149.489 144.484C146.041 152.15 144.033 160.385 143.566 168.778C143.201 168.871 142.8 168.824 142.404 168.869C141.664 168.951 140.928 169.07 140.199 169.226C137.576 167.884 135.37 165.852 133.819 163.347C132.58 161.384 131.411 159.403 130.338 157.436L129.951 156.349C135.98 151.36 142.363 146.813 149.048 142.744ZM150.821 150.459C149.612 153.132 148.558 155.872 147.664 158.666C148.434 155.392 149.43 152.176 150.646 149.041L150.821 150.459ZM153.653 168.254C153.605 168.259 153.558 168.271 153.514 168.29L153.67 168.25L153.653 168.254ZM160.336 206.179C158.003 204.206 155.963 201.913 154.274 199.367C154.541 198.596 154.787 197.812 155.006 196.997C155.999 196.929 156.996 196.911 157.991 196.943C158.671 199.671 159.47 202.72 160.388 206.092L160.336 206.179ZM139.178 198.682C139.687 194.214 140.559 189.794 141.785 185.467C141.888 185.071 142.022 184.722 142.147 184.339C141.454 188.903 140.917 193.501 140.416 198.09C140.003 198.287 139.586 198.467 139.178 198.682ZM136.664 170.252C135.058 170.943 133.533 171.809 132.117 172.832C132.208 170.384 132.112 167.933 131.829 165.5L131.78 165.308C133.091 167.242 134.746 168.918 136.664 170.252ZM135.485 173.995C136.853 173.193 138.32 172.572 139.848 172.147C140.729 172.526 141.633 172.847 142.555 173.108C141.621 173.808 140.71 174.521 139.772 175.203C138.796 174.858 137.759 174.566 136.844 174.317C136.439 174.179 135.969 174.076 135.485 173.995ZM145.052 183.823C145.892 187.704 147.155 191.482 148.818 195.087C146.972 195.54 145.157 196.112 143.384 196.8C143.856 192.459 144.415 188.095 145.043 183.789L145.052 183.823ZM138.823 209.029C138.713 206.691 138.736 204.348 138.894 202.013C139.28 201.785 139.68 201.609 140.071 201.399L139.294 209.28L138.823 209.029ZM141.985 210.615C142.32 207.123 142.656 203.557 142.986 199.974C145.264 198.972 147.634 198.197 150.064 197.659C150.414 198.311 150.787 198.975 151.168 199.601C150.518 201.328 149.699 202.988 148.722 204.554C147.114 207.079 144.972 209.222 142.447 210.831L141.985 210.615ZM151.654 194.515C149.786 190.655 148.42 186.572 147.589 182.365C149.852 183.946 151.984 185.709 153.962 187.634C153.739 189.881 153.378 192.112 152.881 194.315C152.45 194.369 152.046 194.453 151.654 194.515ZM146.94 178.568C146.741 177.785 146.768 176.945 146.692 176.131C147.428 175.303 148.24 174.545 149.116 173.868C150.294 173.842 151.469 173.747 152.636 173.585C152.932 173.51 153.228 173.435 153.523 173.36L154.164 173.623C154.382 177.063 154.405 180.513 154.232 183.956C151.973 181.938 149.532 180.134 146.94 178.568ZM148.002 168.893L147.845 168.933C148.859 164.344 150.188 159.831 151.822 155.426C152.386 158.523 152.876 161.546 153.252 164.487C151.569 165.951 149.763 167.446 148.002 168.893ZM127.226 176.98L127.162 177.237L126.959 177.752C126.573 178.201 126.21 178.664 125.837 179.166C125.522 178.727 125.194 178.311 124.871 177.912C125.625 177.528 126.414 177.217 127.226 176.98ZM128.214 181.747L128.051 182.344L128.015 182.205L128.214 181.747ZM131.761 176.755L132.09 176.449C133.47 176.518 134.841 176.716 136.184 177.04L136.824 177.229C134.918 178.546 132.982 179.815 131.019 181.054C131.342 179.635 131.59 178.2 131.761 176.755ZM140.35 178.426L141.352 178.875C140.349 180.74 139.558 182.71 138.993 184.751C137.551 189.862 136.586 195.096 136.111 200.386C135.989 200.417 135.868 200.448 135.777 200.6C134.397 195.33 132.385 190.246 129.786 185.458L129.85 185.275C133.481 183.021 137.011 180.81 140.437 178.404L140.35 178.426ZM128.444 188.854C130.554 193.145 132.2 197.649 133.354 202.289C132.256 203.068 131.149 203.886 130.047 204.795C128.82 201.106 127.292 197.525 125.477 194.087C126.638 192.401 127.654 190.62 128.514 188.762L128.444 188.854ZM124.001 191.407C123.659 190.864 123.353 190.313 123.003 189.809L123.4 188.968C124.317 188.494 125.207 187.99 126.115 187.482C125.524 188.806 124.841 190.087 124.07 191.315L124.001 191.407ZM126.398 203.111L121.845 200.786L120.328 200.06C121.096 199.365 121.816 198.627 122.562 197.845C122.9 197.5 123.268 197.055 123.65 196.588C124.702 198.68 125.642 200.827 126.467 203.019L126.398 203.111ZM134.013 205.251L134.455 206.99C133.923 206.718 133.374 206.45 132.829 206.2L134.013 205.251ZM141.064 219.754L141.603 214.581C141.933 214.497 142.224 214.257 142.519 214.108C146.744 216.164 150.782 218.287 154.759 220.388C152.156 220.345 149.492 220.28 146.737 220.147C144.878 219.971 143.006 219.816 141.134 219.662L141.064 219.754ZM164.69 209.258C164.411 209.106 164.158 208.911 163.892 208.738C162.934 204.964 161.806 201.029 160.947 197.137C161.252 197.17 161.557 197.204 161.849 197.26C164.647 201.432 166.837 205.982 168.352 210.772C167.11 210.342 165.908 209.805 164.76 209.166L164.69 209.258ZM157.315 194.134C156.78 194.14 156.245 194.146 155.696 194.174C155.953 192.924 156.201 191.639 156.379 190.298L156.562 190.511C156.853 191.585 157.119 192.776 157.385 194.042L157.315 194.134ZM156.296 167.435C156.177 166.966 156.215 166.456 156.147 165.973C157.384 164.863 158.586 163.762 159.778 162.626C160.11 163.931 160.593 165.252 161.09 166.626C159.499 166.741 157.919 166.981 156.366 167.344L156.296 167.435ZM166.415 151.574C164.781 153.377 163.072 155.181 161.299 156.945C160.314 152.915 160.528 148.685 161.912 144.774C163.333 145.413 164.741 146.074 166.124 146.778C165.908 148.354 166.031 149.958 166.484 151.482L166.415 151.574ZM159.336 143.669C157.639 147.562 157.498 152.911 158.904 159.256C157.838 160.305 156.766 161.336 155.656 162.358C155.107 158.665 154.462 154.885 153.643 151.002C154.907 148.255 156.439 145.64 158.216 143.194L159.336 143.669ZM155.492 142.164C154.503 143.606 153.598 145.103 152.779 146.648C152.62 146.022 152.465 145.413 152.302 144.769C152.786 143.684 153.322 142.659 153.831 141.53L155.492 142.164ZM135.697 148.133C137.156 145.855 138.254 143.366 138.952 140.752C139.227 139.794 139.472 138.862 139.712 137.912C142.602 138.383 145.466 139.003 148.293 139.77C144.067 142.305 139.847 145.08 135.766 148.041L135.697 148.133ZM140.364 135.154C141.08 131.959 141.632 128.729 142.017 125.477C142.608 125.105 143.181 124.738 143.767 124.348C145.097 128.491 146.343 132.6 147.441 136.635C145.141 135.96 142.771 135.45 140.433 135.063L140.364 135.154ZM122.378 137.239C123.34 137.161 124.306 137.101 125.289 137.037C129.151 136.837 133.024 137.001 136.855 137.526C136.658 138.354 136.422 139.173 136.194 140.027C135.053 144.755 132.264 148.922 128.328 151.78C126.793 147.522 124.927 143.39 122.747 139.422L122.378 137.239ZM120.721 147.194C120.775 150.106 120.36 152.192 119.279 152.966C118.35 149.794 117.249 146.674 115.981 143.621C116.614 143.997 117.225 144.36 117.831 144.78C118.896 145.473 119.908 146.243 120.86 147.085L120.721 147.194ZM115.664 155.717C113.394 155.802 111.122 155.684 108.873 155.367C108.533 154.028 108.206 152.741 107.893 151.506C110.304 153.269 112.972 154.653 115.803 155.608L115.664 155.717ZM116.166 158.496C116.696 158.473 117.24 158.427 117.762 158.369C118.111 159.743 118.286 161.087 118.486 162.388C116.547 164.231 114.709 166.105 112.914 168.005C112.338 167.707 111.75 167.43 111.17 167.189C110.982 167.107 110.782 167.046 110.577 166.969C110.318 163.832 109.95 160.926 109.458 158.255C111.732 158.495 114.023 158.539 116.304 158.387L116.166 158.496ZM122.108 194.017C121.619 194.641 121.09 195.256 120.544 195.876C120.875 194.922 121.216 194.002 121.548 193.122C121.888 193.369 122.068 193.564 122.243 193.89L122.108 194.017ZM122.442 216.631L123.936 216.825C126.04 217.061 128.158 217.142 130.274 217.068L130.592 218.32C127.844 217.851 125.095 217.309 122.421 216.692L122.442 216.631ZM133.094 216.945C133.955 216.837 134.773 216.704 135.586 216.553L135.757 219.194C134.99 219.092 134.228 219.008 133.479 218.902L133.094 216.945ZM135.889 222.049C136.081 228.355 135.928 234.667 135.43 240.957L135.199 242.016C135.344 235.249 134.92 228.482 133.934 221.786C134.721 221.753 135.375 221.846 136.023 221.922L135.889 222.049ZM140.888 222.631C142.781 222.799 144.666 222.931 146.547 223.046C151.231 223.264 155.68 223.357 159.954 223.346C162.108 224.54 164.262 225.733 166.308 226.936C166.854 228.649 167.4 230.361 167.98 232.065C162.762 235.761 157.113 238.806 151.156 241.131C146.425 235.738 142.958 229.356 141.009 222.452L140.888 222.631ZM168.612 224.999L168.022 223.112C168.753 223.075 169.506 223.051 170.198 223.005L170.238 223.161C170.245 224.066 170.209 225.02 170.13 225.873L168.612 224.999ZM167.189 220.343L164.872 212.526C166.234 213.146 167.648 213.642 169.099 214.008C169.578 216.052 169.907 218.128 170.083 220.219C169.256 220.096 168.281 220.121 167.311 220.164L167.189 220.343ZM171.419 211.623C170.112 206.936 168.187 202.444 165.695 198.264C169.011 199.169 172.111 200.728 174.815 202.85C177.519 204.971 179.771 207.612 181.439 210.616C178.257 211.699 174.858 211.983 171.54 211.444L171.419 211.623ZM163.455 194.834C162.085 192.855 160.601 190.956 159.012 189.148C158 184.766 157.568 180.269 157.728 175.774C163.265 179.159 168.233 183.397 172.449 188.33C174.371 191.05 176.437 193.665 178.641 196.163C181.414 200.065 183.943 204.135 186.214 208.349C185.471 208.778 184.755 209.164 184.012 209.519C181.96 205.66 179.059 202.316 175.529 199.739C171.998 197.162 167.929 195.419 163.628 194.642L163.455 194.834ZM188.537 206.852C188.112 206.053 187.644 205.227 187.214 204.485C187.961 205.091 188.698 205.663 189.501 206.2C189.236 206.249 189.015 206.472 188.711 206.66L188.537 206.852ZM189.856 209.35C190.521 208.904 191.194 208.418 191.866 207.932L192.665 208.452C191.967 209.277 191.239 210.128 190.602 210.827L189.856 209.35ZM194.371 206.13L194.788 205.802L194.48 206.195L194.371 206.13ZM195.09 209.91C196.405 210.648 197.76 211.312 199.149 211.897C198.308 213.207 197.392 214.466 196.403 215.668C195.377 215.928 194.386 216.328 193.312 216.619L191.97 213.664C193.179 212.302 194.149 211.019 195.263 209.718L195.09 209.91ZM196.892 207.601C198.101 206.091 199.292 204.511 200.497 202.983C201.146 203.133 201.808 203.261 202.448 203.377L203.125 203.927C202.471 205.851 201.649 207.714 200.668 209.494C199.433 208.879 198.233 208.194 197.074 207.444L196.892 207.601ZM166.284 177.897C163.941 175.93 161.421 174.183 158.757 172.68C158.915 172.409 159.126 172.173 159.377 171.986C160.284 171.403 161.7 171.581 163.548 172.371C164.438 174.2 165.302 176.073 166.284 177.897ZM165.695 170.326L165.195 169.157C166.87 169.193 168.541 169.325 170.201 169.553C170.559 170.962 170.908 172.336 171.239 173.64C169.478 172.395 167.625 171.287 165.695 170.326ZM162.138 160.324C164.11 158.367 166.07 156.364 168.018 154.314C168.053 154.453 168.228 154.557 168.333 154.679C168.508 157.337 168.717 159.913 169.043 162.293C167.524 163.741 165.87 165.041 164.104 166.175C163.345 164.261 162.689 162.308 162.138 160.324ZM171.072 133.377C171.42 133.289 171.785 133.196 172.133 133.108L170.961 135.127L171.072 133.377ZM157.393 139.663C156.818 139.439 156.243 139.215 155.654 139.012C156.354 138.631 157.075 138.263 157.779 137.899L158.234 138.672L157.393 139.663ZM151.859 137.772L150.456 137.351C149.224 132.498 147.666 127.598 146.064 122.673C148.198 121.014 150.214 119.209 152.098 117.272C152.098 117.272 152.098 117.272 152.238 117.236C152.341 118.154 152.436 119.038 152.569 119.929C153.117 124.371 154.115 128.745 155.55 132.984C154.702 134.311 153.88 135.667 153.101 137.05L151.859 137.772ZM142.448 121.85L142.543 120.327L142.848 121.527L142.448 121.85ZM145.092 119.865L144.643 118.535C145.443 118.332 146.305 118.298 147.14 118.16C146.494 118.75 145.804 119.314 145.092 119.865ZM155.354 113.761C156.507 112.394 157.655 110.936 158.781 109.392C161.507 109.773 164.107 110.169 166.629 110.621C162.986 111.805 159.225 112.889 155.389 113.752L155.354 113.761ZM154.471 110.282L154.449 108.807C154.815 108.862 155.141 108.908 155.503 108.946C155.291 109.426 154.962 109.88 154.606 110.303L154.471 110.282ZM151.867 113.368L150.614 114.705C148.3 115.144 145.951 115.518 143.606 115.836C143.315 114.688 142.836 113.606 142.41 112.436C142.335 111.048 142.226 109.669 142.073 108.338C145.253 108.145 148.444 108.183 151.618 108.451C151.886 110.161 151.879 111.81 152.002 113.39L151.867 113.368ZM116.881 134.765C115.293 134.927 113.7 135.072 112.173 135.256C111.531 134.037 110.869 132.816 110.189 131.594C110.318 131.01 110.409 130.418 110.461 129.822C111.76 130.283 113.091 130.651 114.443 130.921C115.409 132.25 116.232 133.522 117.016 134.786L116.881 134.765ZM109.014 135.28L109.215 135.637C109.093 135.667 108.972 135.698 108.867 135.725L109.014 135.28ZM113.48 137.85C115.113 137.67 116.775 137.507 118.466 137.362L119.806 139.724C119.886 140.038 119.965 140.351 120.045 140.664L120.375 143.061L119.389 142.311C117.732 141.15 115.966 140.154 114.116 139.336L113.48 137.85ZM103.838 148.369C104.669 150.416 105.346 152.521 105.863 154.669C104.321 154.356 102.735 153.944 101.136 153.48C101.891 151.567 102.633 149.749 103.449 148.005L103.838 148.369ZM106.264 169.526C106.911 169.843 107.508 170.253 108.036 170.743L108.153 173.027C107.165 174.167 106.264 175.358 105.319 176.45C102.034 175.336 98.6736 174.456 95.264 173.818C95.4985 172.481 95.7593 171.174 96.1203 169.898C97.7619 168.961 99.5794 168.374 101.459 168.173C103.185 168.353 104.864 168.843 106.417 169.617L106.264 169.526ZM92.429 173.371C92.2626 173.36 92.0969 173.34 91.9326 173.312C92.1319 173.076 92.3313 172.841 92.5525 172.618L92.429 173.371ZM94.8302 176.631C97.7446 177.169 100.62 177.898 103.438 178.816C102.481 180.077 101.506 181.343 100.693 182.586C98.568 182.086 96.4804 181.44 94.4442 180.654C94.6965 179.387 94.8482 178.015 95.035 176.709L94.8302 176.631ZM98.9518 185.064C98.1855 186.203 97.4626 187.294 96.7836 188.485L94.0671 187.119C94.0714 185.896 94.1237 184.716 94.1761 183.537C96.0718 184.222 97.6579 184.708 99.1566 185.142L98.9518 185.064ZM114.522 184.26L115.024 184.706C113.952 186.854 113.002 188.947 112.174 190.984L110.501 191.686C110.668 189.793 110.774 187.729 110.827 185.679C112.19 185.441 113.506 184.988 114.727 184.337L114.522 184.26ZM117.025 186.827C117.396 187.27 117.785 187.708 118.14 188.155C117.401 188.528 116.641 188.887 115.885 189.265C116.544 188.505 116.915 187.707 117.317 186.883L117.025 186.827ZM116.875 198.344L114.207 197.17C115.608 196.251 116.955 195.254 118.244 194.183C117.748 195.438 117.279 196.872 116.875 198.344ZM113.544 212.354L110.29 211.791C110.409 209.874 110.629 207.964 110.949 206.069C112.479 205.407 113.96 204.635 115.38 203.76C114.676 206.456 114.098 209.288 113.491 212.367L113.544 212.354ZM102.286 213.008L104.126 213.763C103.803 214.826 103.463 215.894 103.075 216.918C102.417 215.567 101.768 214.176 101.132 212.764L102.286 213.008ZM106.728 214.75L107.403 215.005C107.448 219.594 108.216 224.148 109.68 228.498C107.976 225.869 106.362 223.131 104.837 220.285C105.466 218.533 106.09 216.689 106.675 214.764L106.728 214.75ZM115.504 217.67C116.262 217.884 117.02 218.099 117.774 218.297C116.769 219.737 115.769 221.268 114.787 222.869C114.937 221.053 115.197 219.377 115.452 217.683L115.504 217.67ZM168.331 235.124C168.236 235.407 168.176 235.682 168.064 235.969C166.891 236.526 165.661 237.079 164.427 237.615C165.678 236.853 166.985 236.021 168.279 235.137L168.331 235.124ZM171.664 233.667L171.838 232.53C172.446 232.08 173.049 231.612 173.635 231.149L175.267 232.179C174.116 232.822 172.925 233.458 171.713 234.08L171.664 233.667ZM172.899 227.299C173.053 225.855 173.123 224.403 173.109 222.95L173.03 222.637C175.514 222.433 177.855 222.172 180.235 221.845C177.996 223.969 175.771 225.922 173.557 227.706L172.899 227.299ZM173.029 219.861C172.873 218.007 172.609 216.163 172.238 214.34C175.809 214.665 179.408 214.188 182.771 212.944C183.305 214.294 183.703 215.694 183.961 217.123L184.199 218.062L183.7 218.577C180.281 219.112 176.766 219.56 173.007 219.848L173.029 219.861ZM188.363 217.69C188.944 217.061 189.542 216.428 190.132 215.76L190.785 217.168C189.976 217.336 189.15 217.509 188.341 217.677L188.363 217.69ZM201.323 213.678C201.54 213.364 201.717 213.042 201.912 212.714L202.774 212.977C202.275 213.196 201.801 213.446 201.301 213.665L201.323 213.678ZM207.995 203.931C210.111 204.172 212.244 204.334 214.369 204.461C213.591 205.381 212.754 206.249 211.862 207.06L207.995 203.931ZM219.717 201.678L219.79 201.53L219.83 201.686C219.83 201.686 219.751 201.669 219.695 201.665L219.717 201.678ZM216.418 201.738C215.917 201.735 215.395 201.72 214.89 201.7C212.182 201.535 209.509 201.214 206.922 200.945C207.403 198.751 207.66 196.515 207.69 194.27C208.743 193.163 209.77 192.033 210.773 190.877C213.376 193.411 215.787 196.134 217.988 199.025C217.518 199.959 216.986 200.861 216.396 201.725L216.418 201.738ZM212.55 188.76C215.325 185.442 217.883 181.948 220.207 178.299C221.343 184.226 220.987 190.342 219.17 196.096C217.121 193.509 214.915 191.052 212.563 188.738L212.55 188.76ZM207.493 187.803L207.203 188.265C207.132 187.987 207.062 187.709 206.991 187.43L207.493 187.803ZM204.547 189.18C204.777 190.085 204.762 190.977 204.84 191.939L202.35 195.625C201.665 196.281 200.997 196.932 200.303 197.552L191.716 190.271C185.198 184.723 179.644 179.986 174.935 176.386C174.232 174.311 173.634 172.201 173.145 170.064C184.207 172.527 194.567 177.461 203.451 184.497C203.913 186.028 204.272 187.588 204.525 189.167L204.547 189.18ZM172.547 167.124C172.242 165.924 172.103 164.645 171.915 163.323C173.297 161.878 174.555 160.32 175.676 158.665C178.752 159.254 181.902 159.355 185.009 158.962C192.041 164.598 197.729 171.731 201.658 179.842C192.947 173.603 183.021 169.266 172.525 167.111L172.547 167.124ZM177.286 156.109C177.693 155.376 178.065 154.652 178.445 153.963C179.588 154.747 180.705 155.574 181.805 156.406C180.286 156.433 178.766 156.329 177.265 156.096L177.286 156.109ZM180.544 148.154C180.821 147.147 181.044 146.127 181.212 145.096C183.299 144.566 185.334 144.05 187.374 143.699C190.216 144.977 193.386 146.597 196.932 148.678C191.476 149.506 185.913 149.324 180.522 148.141L180.544 148.154ZM181.558 142.157L181.625 141.399L182.867 141.843C182.406 141.923 181.971 142.034 181.536 142.144L181.558 142.157ZM178.705 142.881C178.166 143.018 177.644 143.15 177.105 143.287C177.712 142.467 178.283 141.655 178.85 140.826C178.792 141.471 178.725 142.154 178.688 142.812L178.705 142.881ZM177.62 137.436C176.203 137.089 174.766 136.836 173.317 136.677C174.16 135.185 175.034 133.741 175.912 132.315C176.635 132.243 177.357 132.17 178.088 132.133C178.397 133.35 178.497 134.547 178.623 135.7C178.299 136.319 177.953 136.851 177.584 137.371L177.62 137.436ZM186.481 127.781C189.408 127.204 192.288 126.733 195.076 126.414C196.402 128.28 197.649 130.13 198.87 131.949C194.59 130.573 190.158 129.721 185.673 129.411C185.95 128.971 186.131 128.37 186.468 127.803L186.481 127.781ZM187.902 124.625C188.665 122.82 189.342 121.037 189.911 119.264C191.048 120.827 192.185 122.389 193.23 123.809C191.46 124.055 189.676 124.322 187.889 124.646L187.902 124.625ZM184.5 125.303C183.753 125.493 183.022 125.678 182.248 125.763C181.83 125.869 181.395 125.98 180.978 126.086C182.607 124.336 184.368 122.713 186.244 121.231C185.722 122.604 185.122 123.96 184.488 125.324L184.5 125.303ZM176.186 127.413C174.603 127.815 173.065 128.391 171.5 128.936C171.853 125.514 172.285 122.182 172.866 118.999L172.97 118.972C174.418 121.501 175.642 124.152 176.628 126.894C176.464 127.048 176.308 127.212 176.16 127.383L176.186 127.413ZM168.575 130.03C165.402 131.243 162.238 132.564 159.101 134.064L158.754 133.208C161.744 128.658 165.424 124.601 169.661 121.182C169.19 124.042 168.819 126.981 168.548 130L168.575 130.03ZM157.668 130.096C156.654 126.644 155.913 123.117 155.454 119.549L155.104 116.638C159.78 115.596 164.393 114.289 168.921 112.724C169.575 113.595 170.183 114.459 170.746 115.316C170.6 115.982 170.481 116.679 170.335 117.271C165.398 120.772 161.103 125.101 157.642 130.065L157.668 130.096ZM181.056 107.866C182.057 109.112 183.032 110.327 183.994 111.564C181.663 110.915 179.254 110.323 176.728 109.706C178.166 109.1 179.626 108.507 181.03 107.836L181.056 107.866ZM160.609 106.817C161.098 106.119 161.561 105.39 162.011 104.61C162.898 105.551 163.759 106.462 164.567 107.386C163.283 107.212 161.954 107.012 160.609 106.817ZM137.369 98.9968C136.127 95.9241 134.832 92.8647 133.511 89.8489C135.105 92.7591 136.398 95.8242 137.369 98.9968ZM137.321 106.1C131.586 106.862 125.974 108.361 120.624 110.56C122.018 102.578 125.151 95.0008 129.801 88.3651C132.582 94.2134 135.071 100.154 137.382 106.122L137.321 106.1ZM138.336 108.786L139.654 112.303C139.742 113.595 139.768 114.94 139.782 116.306C134.054 116.873 128.29 116.992 122.544 116.664C121.677 116.607 120.824 116.527 119.944 116.417C120.002 115.551 120.055 114.667 120.152 113.809C125.954 111.253 132.097 109.557 138.388 108.773L138.336 108.786ZM117.155 115.422L117.111 115.248C117.111 115.248 117.207 115.334 117.207 115.408L117.155 115.422ZM115.103 118.423C115.809 121.206 116.542 124.094 117.271 126.964L117.503 128.756C117.024 128.692 116.554 128.59 116.088 128.504C115.764 128.031 115.484 127.584 115.143 127.115C113.292 124.493 111.36 122.058 109.402 119.741C110.4 119.08 111.408 118.454 112.42 117.845C113.4 117.986 114.275 118.226 115.103 118.423ZM111.927 127.357C111.113 127.077 110.315 126.754 109.534 126.391C108.826 125.645 107.888 125.159 106.87 125.012C106.521 124.804 106.142 124.623 105.828 124.407L104.791 122.948C105.568 122.362 106.349 121.793 107.1 121.251C108.793 123.154 110.422 125.197 111.988 127.379L111.927 127.357ZM103.155 120.66L101.432 118.394L102.39 116.115C103.355 117.073 104.299 118.092 105.238 119.094C104.592 119.61 103.902 120.174 103.207 120.647L103.155 120.66ZM99.9476 123.196C99.8259 123.227 99.7176 123.384 99.5961 123.489C99.4747 123.594 99.6994 123.166 99.7511 123.005C99.8305 123.069 99.9136 123.128 99.9998 123.183L99.9476 123.196ZM89.7551 133.078L88.0439 131.661C89.5223 131.285 90.9566 130.736 92.3871 130.318C91.5457 131.161 90.6743 132.104 89.794 133.012L89.7551 133.078ZM93.9016 132.71L93.1077 135.856C92.6774 135.562 92.2676 135.239 91.8812 134.889C92.6011 134.151 93.2861 133.422 93.9538 132.697L93.9016 132.71ZM104.211 139.628L103.486 141.22L103.287 141.677C102.78 141.003 102.228 140.364 101.635 139.764C102.07 139.653 102.522 139.539 102.984 139.533C103.445 139.527 103.811 139.582 104.263 139.615L104.211 139.628ZM94.9593 141.181C97.277 143.018 99.2593 144.773 101.21 146.333C100.324 148.336 99.4394 150.467 98.5568 152.728C96.7527 152.112 94.9265 151.409 93.113 150.61C93.5662 147.533 94.1178 144.406 94.768 141.229L94.9593 141.181ZM97.5869 155.325C96.4189 158.528 95.3039 161.94 94.3333 165.556C93.5241 165.651 92.7063 165.784 91.8711 165.922C91.9611 161.9 92.2377 157.738 92.749 153.48C94.3963 154.061 96.0265 154.721 97.6302 155.277L97.5869 155.325ZM87.0978 175.928C86.8816 176.316 86.6916 176.735 86.4886 177.175L84.1512 175.917C85.1636 175.87 86.1487 175.86 87.1063 175.889L87.0978 175.928ZM94.2966 190.43L95.548 191.057C95.202 191.663 94.8342 192.256 94.5274 192.871L94.3729 192.262L94.2966 190.43ZM95.6908 196.871C96.421 195.371 97.2425 193.867 98.1163 192.349L101.43 194.026C101.019 194.593 100.577 195.113 100.139 195.65C98.6867 196.055 97.2171 196.465 95.7342 196.823L95.6908 196.871ZM105.622 192.962C106.526 191.659 107.348 190.302 108.088 188.892C108.015 190.281 107.893 191.626 107.777 192.989C107.376 193.09 107.003 193.296 106.612 193.433L105.622 192.962ZM110.382 195.012C110.574 194.964 110.765 194.915 110.956 194.866L110.741 195.55C110.625 195.488 110.506 195.432 110.384 195.382L110.382 195.012ZM114.511 193.261L115.058 193.011L114.407 193.509L114.511 193.261ZM115.042 200.68C113.923 201.436 112.753 202.117 111.542 202.716C111.803 201.631 112.095 200.52 112.404 199.405L115.042 200.68ZM104.855 210.801L103.108 210.411C101.888 209.906 100.698 209.375 99.5031 208.827C101.532 208.722 103.546 208.428 105.519 207.948C105.34 208.845 105.143 209.82 104.898 210.753L104.855 210.801ZM109.27 233.082L109.149 233.335C107.226 230.472 105.455 227.51 103.842 224.462C105.598 227.442 107.45 230.36 109.314 233.034L109.27 233.082ZM113.2 239.009L113.216 238.561L115.341 241.243L114.805 241.101C114.302 240.359 113.755 239.664 113.243 238.961L113.2 239.009ZM154.816 244.609C158.91 243.088 162.706 241.507 166.202 239.867C165.284 241.653 164.226 243.364 163.039 244.984C160.681 245.175 158.192 245.288 155.719 245.324C155.423 245.103 155.148 244.821 154.859 244.561L154.816 244.609ZM170.109 238.116C170.86 240.129 171.607 242.05 172.375 243.91C170.496 244.239 168.569 244.524 166.555 244.758C167.951 242.64 169.155 240.401 170.152 238.068L170.109 238.116ZM180.612 232.377C181.285 231.965 181.937 231.541 182.57 231.121C182.321 231.814 182.044 232.476 181.76 233.178L180.612 232.377ZM178.047 230.658L176.04 229.316C178.765 227.069 181.524 224.567 184.317 221.809C184.299 223.53 184.114 225.244 183.765 226.929C181.989 228.102 180.101 229.415 178.09 230.61L178.047 230.658ZM187.082 220.811C188.699 220.4 190.304 220.16 191.818 219.776L192.046 220.31C190.476 221.782 188.766 223.216 186.943 224.642C187.097 223.355 187.158 222.059 187.125 220.763L187.082 220.811ZM198.065 217.912C201.104 216.868 204.041 215.552 206.843 213.981C209.426 214.421 212.063 214.439 214.651 214.035C215.034 213.938 215.417 213.841 215.799 213.744L217.794 215.256C213.264 222.809 207.007 229.182 199.537 233.849C199.215 232.58 198.884 231.275 198.553 229.971C197.615 226.932 196.542 223.872 195.347 220.842C196.336 219.875 197.256 218.883 198.109 217.864L198.065 217.912ZM219.148 212.857C219.148 212.857 219.148 212.857 219.287 212.822L219.148 212.857ZM222.923 201.327C222.35 200.454 221.755 199.568 221.134 198.726C223.973 191.97 224.4 183.925 222.413 174.592C223.166 173.253 223.879 171.906 224.562 170.51C225.37 173.693 226.213 177.016 227.008 180.146C227.013 187.25 226.008 194.319 224.024 201.14C223.662 201.176 223.306 201.23 222.966 201.279L222.923 201.327ZM219.348 174.185C217.604 177.172 215.691 180.056 213.616 182.824C215.551 179.459 217.311 175.997 218.889 172.45C219.048 173.002 219.224 173.624 219.348 174.185ZM208.929 185.365C207.916 184.511 206.908 183.675 205.869 182.864C202.986 173.839 196.845 165.474 188.854 158.282C194.103 157.173 199.17 155.332 203.907 152.814C206.795 154.636 209.853 156.692 213.121 158.992L214.535 160.04C215.716 162.795 216.744 165.459 217.602 168.037C215.217 174.067 212.32 179.882 208.942 185.417L208.929 185.365ZM206.661 151.263C207.612 150.707 208.537 150.121 209.453 149.499C210.448 151.376 211.394 153.209 212.254 154.991C210.36 153.731 208.489 152.484 206.674 151.315L206.661 151.263ZM219.026 163.51L219.048 163.597C219.048 163.597 219.14 163.592 219.127 163.54L219.026 163.51ZM204 149.606L204.756 149.303C204.434 149.421 204.278 149.535 204.065 149.645L204 149.606ZM200.759 147.633C197.597 145.751 194.592 144.125 191.753 142.717C196.155 141.822 200.339 141.093 204.267 140.521C205.231 142.128 206.093 143.557 206.952 145.043C205.012 146.142 202.957 147.024 200.824 147.672L200.759 147.633ZM202.674 137.89C197.923 138.577 192.865 139.509 187.472 140.656C185.393 139.758 183.349 138.999 181.58 138.449C181.564 137.879 181.497 137.248 181.451 136.63C182.403 135.129 183.299 133.624 184.142 132.133C190.029 132.401 195.832 133.644 201.312 135.81L202.674 137.89ZM201.998 123.046C200.161 123.105 198.342 123.233 196.532 123.397C195.124 121.421 193.667 119.403 192.132 117.367C192.306 117.323 192.471 117.17 192.636 117.091C194.188 117.66 195.652 118.177 197.108 118.881C198.865 120.112 200.502 121.507 201.998 123.046ZM186.84 115.192L187.789 116.451L187.816 116.555C184.456 118.779 181.394 121.422 178.704 124.423C177.774 122.07 176.675 119.787 175.415 117.592C177.711 116.439 180.179 115.668 182.724 115.312C184.021 115.147 185.331 115.106 186.636 115.189L186.84 115.192ZM173.87 115.152L173.612 114.718C173.804 113.799 174.023 112.91 174.259 112.017C175.917 112.374 177.529 112.742 179.094 113.122C177.318 113.647 175.598 114.344 173.957 115.204L173.87 115.152ZM188.263 112.48C186.745 110.514 185.167 108.526 183.567 106.525C185.435 105.57 187.255 104.571 189.014 103.551C189.117 104.371 189.178 105.196 189.197 106.022C189.218 108.209 189.022 110.392 188.611 112.54C188.585 112.583 188.463 112.54 188.35 112.532L188.263 112.48ZM175.604 107.177C176.034 105.734 176.517 104.353 177.021 102.984C177.742 103.857 178.507 104.755 179.211 105.631C178.121 106.223 176.93 106.71 175.691 107.228L175.604 107.177ZM172.245 108.529L171.792 108.644C170.76 108.443 169.832 108.216 168.7 108.059C167.109 106.093 165.343 104.097 163.351 102.011C165.185 98.9961 166.862 95.8884 168.375 92.7004C170.7 95.3687 172.899 97.9766 175.054 100.559C174.065 103.081 173.175 105.75 172.384 108.568L172.245 108.529ZM110.295 101.889C111.167 104.741 112.471 109.001 113.89 113.936C113.303 114.252 112.704 114.589 112.122 114.922C109.474 114.16 106.879 113.223 104.356 112.116C106.097 108.546 108.065 105.091 110.247 101.771L110.295 101.889ZM108.921 116.753L107.649 117.575C107.032 116.899 106.408 116.261 105.783 115.624C106.807 115.938 107.849 116.321 108.899 116.666L108.921 116.753ZM94.28 114.507C95.1236 116.701 96.2709 118.766 97.6883 120.641L97.3781 121.534C96.8009 123.199 96.3628 124.828 95.7856 126.493C92.933 127.217 89.5854 128.252 85.5903 129.58L81.1329 125.806C84.5264 121.123 88.1686 116.627 92.0437 112.335C92.7902 112.941 93.5283 113.661 94.2579 114.42L94.28 114.507ZM82.4995 130.606C80.5607 131.283 78.4829 131.995 76.2573 132.783C77.3541 131.171 78.4365 129.6 79.5046 128.07L82.4995 130.606ZM84.3855 144.309C86.7721 143.499 89.2285 142.746 91.8113 142.054C91.3096 144.551 90.8789 147.012 90.5191 149.436C88.1188 148.262 85.7849 146.957 83.5281 145.526C83.7918 145.034 84.0732 144.61 84.3634 144.222L84.3855 144.309ZM90.1159 152.297C89.5112 157.033 89.1695 161.798 89.0923 166.572C84.6831 167.672 80.421 169.295 76.3964 171.405C74.5294 170.25 72.5879 168.947 70.6201 167.613C73.0105 162.553 75.6794 157.629 78.6146 152.865C79.6921 151.129 80.8002 149.44 81.9172 147.787C84.5619 149.415 87.2977 150.89 90.1112 152.205L90.1159 152.297ZM73.6122 172.982C72.8739 173.429 72.1444 173.91 71.3975 174.396C70.3767 173.729 69.3558 173.063 68.3915 172.4L69.4064 170.199C70.8679 171.142 72.2551 172.012 73.6075 172.891L73.6122 172.982ZM79.3917 176.495C81.5726 177.793 83.5349 178.813 85.4491 179.79C85.1776 180.544 84.8976 181.337 84.67 182.191C81.6114 180.499 78.7212 178.838 75.9995 177.208C77.1119 176.875 78.2412 176.601 79.3826 176.387L79.3917 176.495ZM87.943 181.009C88.5752 181.311 89.2292 181.626 89.8352 181.898L90.2823 185.191C89.2183 184.647 88.1544 184.102 87.16 183.54C87.3785 182.577 87.6365 181.697 87.9383 180.917L87.943 181.009ZM101.858 198.12C103.412 197.627 104.964 197.103 106.514 196.549L107.421 196.986L107.302 197.83C104.747 199.061 102.097 200.087 99.3788 200.897C100.224 199.923 101.043 198.993 101.854 198.029L101.858 198.12ZM106.874 201.105C106.666 202.398 106.453 203.674 106.227 204.972C103.712 205.703 101.114 206.108 98.4968 206.175L97.811 204.276C100.915 203.439 103.945 202.348 106.87 201.014L106.874 201.105ZM88.3841 209.224C88.021 211.443 87.8167 213.685 87.7729 215.933C87.3695 213.906 87.0316 211.918 86.7461 209.991C87.2933 209.667 87.8408 209.417 88.3795 209.132L88.3841 209.224ZM90.5697 216.667C90.5482 214.48 90.7445 212.297 91.1556 210.149C92.4628 210.558 93.8178 210.936 95.1597 211.336C96.5432 215.608 98.2548 219.766 100.279 223.774C99.0553 226.384 97.5927 228.875 95.9103 231.215C92.3798 227.164 90.4755 221.948 90.565 216.576L90.5697 216.667ZM101.887 226.754C103.694 230.058 105.676 233.263 107.824 236.356L106.918 238.549C103.646 237.257 100.611 235.431 97.9368 233.145C99.4062 231.102 100.717 228.95 101.857 226.706L101.887 226.754ZM109.77 239.065L110.339 239.846C110.073 239.747 109.812 239.665 109.563 239.562L109.77 239.065ZM120.699 247.4C121.647 248.436 122.608 249.451 123.547 250.379L124.067 250.895L123.806 250.962C122.505 249.884 121.29 248.707 120.172 247.441L120.124 247.249C120.316 247.296 120.511 247.333 120.707 247.36L120.699 247.4ZM137.288 250.391C139.914 249.724 142.457 248.875 144.892 248.109C148.457 248.296 151.857 248.341 155.125 248.307C156.138 249.161 157.177 249.971 158.229 250.759C155.568 253.367 152.67 255.721 149.571 257.789C145.189 256.717 140.921 255.22 136.828 253.322C136.999 252.242 137.117 251.249 137.279 250.282L137.288 250.391ZM159.115 248.053C159.668 248.043 160.217 248.015 160.765 247.986C160.552 248.244 160.297 248.476 160.084 248.733L159.115 248.053ZM164.581 247.703C167.244 247.471 169.767 247.127 172.22 246.726C170.221 248.746 168.108 250.648 165.89 252.425C164.7 251.746 163.527 251.062 162.401 250.348C163.195 249.536 163.862 248.589 164.581 247.703ZM174.485 248.355C176.038 251.849 177.63 255.055 179.229 258C178.545 257.785 177.848 257.592 177.216 257.363C174.275 256.361 171.401 255.174 168.611 253.808C170.652 252.105 172.596 250.289 174.433 248.368L174.485 248.355ZM184.168 234.788C185.077 232.827 185.798 230.784 186.322 228.687C188.728 226.971 191.025 225.108 193.201 223.109C194.185 225.673 195.086 228.277 195.893 230.942C196.285 232.49 196.774 233.977 197.054 235.517C194.616 236.891 192.092 238.106 189.498 239.156C187.934 237.591 186.04 236.183 184.107 234.767L184.168 234.788ZM197.786 238.33C198.168 240.27 198.47 242.192 198.678 244.102L196.752 246.146C195.273 244.377 193.675 242.71 191.969 241.158C193.959 240.246 195.923 239.377 197.725 238.308L197.786 238.33ZM200.336 236.85C208.461 231.938 215.271 225.127 220.181 217.001L221.56 218.058C219.619 220.402 217.82 222.581 216.221 224.449C211.02 230.509 205.994 236.166 201.144 241.421C200.887 239.968 200.607 238.355 200.275 236.828L200.336 236.85ZM221.526 214.568C222.248 213.255 222.883 211.964 223.466 210.687C223.866 210.437 224.287 210.201 224.678 209.916C225.103 210.79 225.493 211.672 225.871 212.576C224.991 213.706 224.138 214.867 223.263 215.867L221.526 214.568ZM225.563 205.526L226.032 204.166C226.123 203.94 226.174 203.705 226.247 203.482C227.013 203.288 227.778 203.094 228.543 202.9C227.641 203.896 226.681 204.838 225.668 205.722L225.563 205.526ZM227.198 200.297C228.108 196.902 228.777 193.447 229.202 189.958C229.853 193.032 230.42 195.999 230.905 198.782C229.701 199.363 228.463 199.868 227.198 200.297ZM229.832 179.967C229.832 177.708 229.75 175.414 229.589 173.104C233.069 176.702 236.265 180.564 239.15 184.655C237.561 188.749 235.614 192.695 233.329 196.445C232.362 191.248 231.198 185.785 229.832 179.967ZM221.402 170.535C221.186 169.682 220.96 168.795 220.618 167.957L221.497 165.512L223.139 166.947C222.573 168.145 222.011 169.362 221.402 170.535ZM223.609 157.348L223.898 155.423C224.432 157.528 224.962 159.615 225.301 161.751L225.15 162.178C224.604 160.539 224.085 158.93 223.557 157.361L223.609 157.348ZM220.362 143.898C219.637 143.304 218.899 142.732 218.162 142.16C218.526 141.771 218.864 141.352 219.224 140.946L220.362 143.898ZM209.536 143.553C208.892 142.402 208.218 141.278 207.517 140.122C208.248 139.937 208.988 139.934 209.71 139.862C210.56 140.368 211.411 140.874 212.253 141.42C211.32 142.193 210.426 142.902 209.484 143.567L209.536 143.553ZM217.187 136.057L216.866 136.472C216.265 136.513 215.661 136.537 215.043 136.583C213.102 132.823 210.847 129.233 208.301 125.852C208.614 125.773 208.941 125.894 209.259 125.906C211.31 127.455 213.182 129.228 214.84 131.191C215.625 132.825 216.41 134.458 217.143 136.105L217.187 136.057ZM210.202 123.13C206.787 120.657 203.119 118.553 199.259 116.854C198.442 116.287 197.593 115.767 196.716 115.296C198.952 114.427 201.258 113.749 203.608 113.269C206.041 116.437 208.304 119.731 210.389 123.138L210.202 123.13ZM188.605 100.044L188.769 100.688C186.614 101.975 184.39 103.206 182.053 104.355L178.403 99.9676C179.423 97.483 180.589 95.0605 181.894 92.7126C183.804 93.9679 185.698 95.3017 187.549 96.8314C187.959 97.8942 188.286 98.9874 188.527 100.101L188.605 100.044ZM180.913 88.8512C179.147 87.8 177.376 86.8053 175.563 85.9326C174.398 85.358 173.147 84.8054 171.844 84.266C171.978 83.9173 172.085 83.5383 172.201 83.194C175.449 84.4595 178.478 86.2271 181.177 88.4324C181.049 88.5803 180.935 88.7395 180.835 88.9081L180.913 88.8512ZM169.124 83.253C166.732 82.3825 164.291 81.6544 161.813 81.0727L160.743 79.9188C163.702 80.472 166.618 81.2353 169.469 82.2028C169.388 82.6122 169.289 82.9521 169.124 83.253ZM107.699 93.9939C103.306 97.2493 99.1572 100.821 95.2848 104.68C95.395 97.8205 98.3864 90.9329 103.946 84.1711C105.252 87.3204 106.513 90.6106 107.729 94.0417L107.699 93.9939ZM108.653 96.8065L109.111 98.1715C106.327 102.164 103.859 106.368 101.731 110.746L99.5941 109.622C98.6293 108.812 97.6733 108.036 96.7044 107.282C100.442 103.524 104.446 100.039 108.684 96.8543L108.653 96.8065ZM68.7526 102.269C72.005 101.812 75.3198 102.181 78.3927 103.34C76.0332 108.199 73.9357 113.181 72.1094 118.265C67.7312 114.729 63.1788 111.163 58.4177 107.651C61.2463 104.855 64.864 102.993 68.7833 102.317L68.7526 102.269ZM80.9775 104.405C84.1945 105.979 87.1899 107.97 89.8864 110.327C86.0021 114.651 82.3416 119.17 78.9193 123.868L74.4624 120.241C76.3412 114.858 78.5267 109.587 81.0081 104.453L80.9775 104.405ZM77.2388 126.146C75.8923 128.136 74.3896 130.239 72.9568 132.398C72.5586 133.018 72.1778 133.633 71.7752 134.235L71.3925 134.332C70.8881 134.46 70.4449 134.684 69.9712 134.86L69.7484 134.638C70.5773 131.558 71.5148 128.395 72.5869 125.179L73.3622 122.909L77.2388 126.146ZM68.6167 139.443L68.8393 138.424C68.9959 138.384 69.1698 138.34 69.3437 138.296L68.6167 139.443ZM71.4785 140.068C72.666 141.1 73.8403 142.079 75.132 143.01C72.6858 144.168 70.192 145.431 67.6729 146.885C68.9009 144.648 70.1419 142.389 71.548 140.051L71.4785 140.068ZM60.1915 156.652C59.8681 157.494 59.5795 158.326 59.3212 159.132C58.9502 158.837 58.5966 158.538 58.256 158.218C58.9504 157.671 59.597 157.155 60.2611 156.635L60.1915 156.652ZM65.6673 159.188C66.2778 158.31 66.9145 157.464 67.5209 156.643C69.9402 153.442 72.5977 150.428 75.4707 147.627C76.7178 147.07 77.9738 146.547 79.269 146.033L79.5089 146.176C78.3615 147.856 77.2578 149.562 76.1499 151.324C73.2432 156.046 70.5861 160.916 68.1897 165.916L67.4306 165.405L65.528 164.037C65.5961 162.409 65.6339 160.807 65.7368 159.17L65.6673 159.188ZM65.8285 167.7L67.0197 168.527L66.0001 170.637L65.7295 170.447C65.6477 169.468 65.6136 168.458 65.5795 167.449L65.8285 167.7ZM67.2212 174.938L68.8921 176.05C68.1759 176.584 67.4815 177.13 66.7959 177.712L66.5045 176.564L67.2212 174.938ZM67.5031 180.717C69.0745 179.762 70.726 178.947 72.4387 178.279C75.9982 180.486 79.8144 182.683 83.9007 184.923C82.9469 189.675 82.5741 194.526 82.7906 199.368C78.7824 196.631 74.9726 193.613 71.3897 190.339C69.7217 187.297 68.4394 184.058 67.5727 180.699L67.5031 180.717ZM65.9256 185.005L64.5622 183.5C64.779 183.259 65.0046 183.054 65.2257 182.831L65.9256 185.005ZM81.5584 206.476C82.1644 206.748 82.7703 207.02 83.4111 207.283L83.5095 208.035C79.0512 209.647 74.2847 210.224 69.5705 209.722C68.7627 208.582 67.9663 207.414 67.1815 206.218C71.9864 206.618 76.8125 206.698 81.628 206.458L81.5584 206.476ZM83.9249 210.985C84.9371 217.289 86.3523 223.522 88.1617 229.646C82.0418 224.683 76.5453 218.997 71.7923 212.713C75.933 212.897 80.0716 212.305 83.9945 210.967L83.9249 210.985ZM90.8528 228.796C91.7729 230.436 92.8812 231.963 94.1552 233.345C94.0426 233.485 93.8907 233.616 93.7607 233.76L91.9674 232.531L90.8528 228.796ZM96.1991 235.271L96.3606 235.396L96.1687 235.297L96.1991 235.271ZM110.166 244.852C110.059 247.86 110 250.763 110.023 253.479C108.417 253.72 106.738 253.961 105.016 254.176C105.715 250.741 106.643 247.357 107.795 244.047C108.571 244.331 109.382 244.681 110.166 244.852ZM112.932 245.687C113.786 245.914 114.675 246.133 115.564 246.352C116.381 247.311 117.216 248.265 118.142 249.215C119.068 250.165 119.715 250.889 120.47 251.605C118.27 252.052 115.712 252.553 112.885 253.012C112.816 250.697 112.872 248.22 112.919 245.634L112.932 245.687ZM134.879 261.981C135.683 262.814 136.487 263.647 137.356 264.444C136.226 264.953 135.018 265.445 133.827 265.933C134.236 264.625 134.606 263.31 134.879 261.981ZM135.664 258.801L136.216 256.014C139.48 257.506 142.853 258.748 146.305 259.729C144.316 260.937 142.2 262.085 139.98 263.186L135.664 258.801ZM153.225 258.546C155.791 256.662 158.202 254.577 160.437 252.31C161.436 252.963 162.461 253.647 163.477 254.222C161.255 255.897 158.762 257.53 156.291 259.101C155.342 258.935 154.31 258.734 153.295 258.529L153.225 258.546ZM166.133 255.714C169.351 257.432 172.704 258.885 176.159 260.057L176.56 260.177C171.213 260.433 165.854 260.271 160.533 259.691C162.547 258.365 164.453 257.048 166.203 255.697L166.133 255.714ZM183.076 259.153C180.669 254.939 178.497 250.595 176.57 246.141L176.739 245.931C180.929 245.057 185.045 243.858 189.048 242.344C191.128 244.162 193.051 246.151 194.797 248.29C190.995 252.273 187.304 255.969 183.752 259.407L183.076 259.153ZM227.963 219.358L225.467 217.548L226.979 215.627C227.423 216.866 227.806 218.157 228.142 219.479L227.963 219.358ZM226.874 208.211C228.603 206.753 230.195 205.141 231.631 203.393L231.818 204.568C230.445 206.453 229.059 208.286 227.664 210.084L226.874 208.211ZM234.067 200.516C234.458 200.306 234.827 200.083 235.196 199.859C234.876 200.348 234.533 200.824 234.209 201.295L234.067 200.516ZM240.348 181.5C236.993 176.932 233.262 172.652 229.195 168.705C228.93 166.421 228.63 164.146 228.213 161.845C228.743 160.359 229.294 158.811 229.65 157.296C234.477 163.221 238.603 169.685 241.945 176.559C241.386 178.293 240.913 179.931 240.348 181.5ZM227.07 156.247L226.376 153.516L227.447 154.67C227.288 155.211 227.198 155.733 227.07 156.247ZM224.763 147.89L224.011 145.656C223.747 143.403 223.233 141.186 222.481 139.046C224.94 139.032 227.269 139.089 229.441 139.26C229.436 143.172 229.057 147.075 228.308 150.915C228.344 151.055 228.222 151.233 228.205 151.386C227.087 150.189 225.938 149.018 224.763 147.89ZM213.92 123.482C211.754 119.778 209.375 116.203 206.796 112.775C212.464 112.101 218.204 112.364 223.786 113.553C224.238 114.531 224.677 115.53 225.059 116.526C224.613 119.417 223.903 122.262 222.94 125.025C219.969 124.321 216.956 123.805 213.92 123.482ZM204.785 110.175C201.847 106.488 198.646 103.019 195.207 99.7939C199.659 96.7932 203.738 93.2718 207.356 89.3044C210.457 92.7066 213.337 96.3045 215.978 100.076C218.353 103.378 220.474 106.857 222.322 110.481C216.532 109.418 210.608 109.315 204.785 110.175ZM218.352 98.4179C215.565 94.442 212.525 90.6498 209.25 87.0648C211.956 83.7837 214.048 80.0415 215.425 76.0179L215.933 74.4449C222.951 85.2421 226.373 97.983 225.709 110.844C223.618 106.498 221.156 102.341 218.352 98.4179ZM193.216 97.9296C192.045 96.8935 190.854 95.9185 189.632 94.9698C188.41 92.4059 186.759 90.0699 184.749 88.0627C187.437 84.1112 190.746 80.6203 194.549 77.7253C198.524 80.536 202.221 83.7203 205.59 87.2347C201.937 91.3112 197.778 94.9051 193.216 97.9296ZM170.413 79.6489C167.42 78.6333 164.358 77.8328 161.251 77.2533C160.062 77.0182 158.904 76.8308 157.723 76.6305C157.509 76.3702 157.282 76.1316 157.055 75.893C157.431 73.9462 157.871 71.8163 158.252 69.8128C161.192 69.2146 164.745 68.5533 168.734 67.9296C170.082 68.0164 171.425 68.1699 172.757 68.3895C172.238 72.1769 171.437 75.9202 170.36 79.5882L170.413 79.6489ZM155.355 70.5109C155.159 71.4865 154.945 72.4666 154.761 73.4204L153.712 72.2795L152.659 71.1212C153.359 70.814 154.25 70.6063 155.285 70.3806L155.355 70.5109ZM151.656 74.1715L153.247 75.9155C149.776 75.3709 146.427 74.9433 143.17 74.5851C144.88 73.2253 146.625 71.8568 148.475 70.6836L151.656 74.1715ZM136.449 76.7724C135.421 77.7554 134.415 78.7514 133.505 79.7601C132.995 79.5008 132.52 79.3066 132.014 79.0647C133.19 78.2292 134.38 77.4458 135.596 76.6928C135.774 76.5921 136.079 76.6258 136.379 76.6421L136.449 76.7724ZM129.036 77.7654C128.622 77.5928 128.195 77.442 127.786 77.2868L127.321 76.3309C128.474 76.3529 129.671 76.4008 130.851 76.4531C130.169 76.7559 129.574 77.1846 128.966 77.635L129.036 77.7654ZM60.6413 102.698C61.7957 101.144 63.0295 99.6509 64.3378 98.224C67.7824 98.3381 71.2052 98.816 74.5493 99.6496C72.5191 99.3566 70.4566 99.3684 68.43 99.6847C65.6391 100.092 62.9631 101.074 60.5712 102.568L60.6413 102.698ZM53.1639 115.983C56.5086 123.309 61.1358 129.978 66.8273 135.676L66.6083 136.491C57.1042 140.551 51.6146 145.036 49.9746 150.1C49.3104 149.38 48.6637 148.655 48.0343 147.926C47.5694 138.462 48.809 128.992 51.6941 119.966C52.0501 118.524 52.5503 117.212 53.0938 115.852L53.1639 115.983ZM65.7937 139.919C65.1896 142.572 64.7028 145.176 64.2897 147.707C63.9395 148.369 63.6286 149.041 63.3176 149.712C60.6253 151.432 57.9032 153.327 55.1816 155.369C54.1903 154.454 53.212 153.518 52.2903 152.585C52.7307 147.974 57.22 143.706 65.7236 139.789L65.7937 139.919ZM56.2828 160.218L58.6271 162.159L58.1293 164.137C57.1903 163.183 56.3143 162.168 55.5069 161.1C55.6403 160.677 55.896 160.372 56.2039 160.053L56.2828 160.218ZM62.0537 164.937L62.8741 165.543C62.882 166.523 62.9073 167.497 62.9629 168.446C62.2471 167.887 61.6053 167.328 60.9679 166.786L62.0537 164.937ZM69.3467 192.283C71.1298 195.402 73.3947 198.22 76.0577 200.633C70.4612 197.589 65.8215 193.049 62.6573 187.519L63.1484 186.099C65.0489 188.116 67.1237 190.163 69.2766 192.153L69.3467 192.283ZM57.4442 195.063C56.7954 197.394 56.2205 199.725 55.6631 202.051C55.1449 201.979 54.6571 201.881 54.1519 201.787C55.0663 199.481 56.1811 197.236 57.3741 194.933L57.4442 195.063ZM55.0245 204.787L54.956 205.1C54.6725 204.932 54.3933 204.78 54.0968 204.633L55.0245 204.787ZM57.7593 205.203C59.6434 205.478 61.5942 205.723 63.6115 205.94C64.2885 207.002 64.9829 208.06 65.6947 209.114C63.1683 208.545 60.7011 207.74 58.3261 206.707L57.5065 206.323L57.7593 205.203ZM57.2038 209.288C60.6578 210.806 64.2944 211.868 68.0222 212.448C74.0646 220.846 81.3842 228.246 89.7152 234.38L90.6217 237.149C88.9777 238.593 87.1675 239.835 85.2294 240.851C77.0359 245.041 67.3831 244.066 58.8093 238.152C57.0863 236.95 55.4643 235.609 53.9594 234.143C54.2785 225.754 55.254 217.404 56.8769 209.167L57.2038 209.288ZM93.8543 237.995C94.0191 237.842 94.1795 237.672 94.34 237.501C96.61 238.935 98.9569 240.243 101.37 241.419C102.597 242.021 103.892 242.6 105.254 243.155C103.945 246.905 102.909 250.744 102.153 254.643L101.053 254.756C98.225 249.456 95.8438 243.929 93.9335 238.234L93.8543 237.995ZM104.522 257.264C106.462 257.03 108.359 256.771 110.16 256.499C110.274 260.852 110.665 265.193 111.329 269.496C108.651 266.533 106.237 263.342 104.114 259.959C104.158 258.967 104.255 258.035 104.452 257.133L104.522 257.264ZM111.003 273.244C108.481 273.884 106.055 274.389 103.771 274.876C103.452 271.371 103.411 267.846 103.651 264.335C105.835 267.455 108.271 270.391 110.933 273.114L111.003 273.244ZM113.438 278.458C114.444 281.728 116 284.801 118.041 287.547C115.693 290.178 112.92 292.396 109.838 294.109C107.016 289.553 105.136 284.478 104.309 279.183C107.343 279.083 110.368 278.797 113.368 278.328L113.438 278.458ZM132.809 269.579C135.199 268.639 137.455 267.678 139.575 266.695L140.484 267.576C137.737 268.791 135.034 269.885 132.369 270.839L132.809 269.579ZM142.23 265.337C144.966 263.957 147.625 262.429 150.195 260.76C151.04 260.952 151.916 261.119 152.778 261.307C150.546 262.578 148.252 263.826 145.819 265.036C144.928 265.466 144.068 265.87 143.19 266.278L142.23 265.337ZM147.047 267.539C150.601 265.785 153.911 263.945 157.025 262.062C164.659 263.179 172.394 263.439 180.086 262.837C173.426 269.179 166.338 275.055 158.871 280.423C154.371 276.844 149.864 272.73 145.326 268.346C145.852 268.009 146.421 267.772 146.994 267.478L147.047 267.539ZM232.101 225.158C232.681 225.474 233.248 225.737 233.793 225.988C233.876 238.204 231.692 246.887 227.172 252.422C226.593 253.108 225.964 253.75 225.29 254.344C230.809 245.671 233.211 235.378 232.101 225.158ZM231.588 221.678C231.358 220.773 231.211 219.829 230.977 218.908C230.461 216.91 229.826 214.944 229.076 213.021C230.207 211.568 231.329 210.08 232.459 208.552C233.148 213.747 233.579 218.507 233.742 222.871C233.049 222.547 232.325 222.102 231.588 221.678ZM246.161 190.467C246.503 190.065 246.858 189.641 247.192 189.205C248.023 191.679 248.715 194.113 249.277 196.47C248.325 194.472 247.278 192.46 246.161 190.467ZM244.973 176.234C247.551 167.517 249.527 158.634 250.888 149.646C255.099 157.408 252.388 168.613 246.786 180.31C246.193 178.924 245.631 177.585 244.973 176.234ZM243.172 172.637C239.654 165.949 235.397 159.676 230.482 153.937C230.679 153.109 230.898 152.295 231.057 151.458C231.816 147.54 232.213 143.559 232.241 139.568C239.687 140.529 245.127 142.851 248.562 146.534C247.306 155.338 245.505 164.055 243.172 172.637ZM232.236 136.847C232.159 134.867 231.991 132.892 231.736 130.939C237.593 133.492 242.885 137.183 247.304 141.798C242.712 139.022 237.546 137.332 232.201 136.856L232.236 136.847ZM229.423 136.562C227.272 136.404 224.961 136.343 222.581 136.447C222.762 136.142 222.979 135.827 223.156 135.505C224.454 133.324 225.526 131.2 226.597 129.077C227.303 129.305 228.044 129.524 228.737 129.774C229.088 132.025 229.305 134.294 229.388 136.57L229.423 136.562ZM227.872 126.439L228.032 126.121C228.057 126.256 228.091 126.39 228.133 126.521L227.872 126.439ZM226.587 122.618L226.88 121.655L226.937 121.881L226.587 122.618ZM227.957 116.124L228.143 114.595L229.842 115.09C229.475 116.053 229.039 117.034 228.729 118.001C228.375 117.406 228.172 116.754 227.922 116.132L227.957 116.124ZM213.908 71.6449C213.481 72.8825 213.077 74.0591 212.728 75.1659C211.514 78.7436 209.695 82.0862 207.349 85.0478C204.134 81.7506 200.643 78.7345 196.915 76.0324C197.874 75.437 198.838 74.859 199.82 74.3506C203.977 72.2027 208.57 71.0367 213.248 70.9422L213.908 71.6449ZM211.053 68.2037C206.717 68.6082 202.498 69.8424 198.627 71.8392C197.203 72.577 195.822 73.3973 194.493 74.2958C189.396 70.8873 183.787 68.317 177.878 66.6824C188.372 65.5739 200.166 65.2833 210.293 67.3969L211.053 68.2037ZM168.21 65.0633C165.198 64.8327 162.172 64.8698 159.166 65.1742L159.407 64.2245C163.901 62.0454 168.553 60.2086 173.323 58.7295C173.33 60.5793 173.25 62.4511 173.1 64.3406C171.473 64.5684 169.846 64.7962 168.21 65.0633ZM134.75 73.7232C131.663 73.5254 128.673 73.4143 125.8 73.4029C124.976 71.7606 124.125 69.94 123.275 68.2674C126.145 66.5205 129.251 64.8989 132.51 63.2202C134.617 62.1855 136.702 61.2117 138.793 60.3294C141.095 62.6888 143.542 65.3262 146.198 68.2066C142.234 69.6773 138.418 71.52 134.802 73.7099L134.75 73.7232ZM114.17 70.9856C112.768 72.0266 111.445 73.0846 110.178 74.1468C107.672 74.4126 105.283 74.7781 103.035 75.1823C101.285 71.5718 99.4454 68.3359 97.7418 65.4172C100.744 65.9259 103.702 66.6735 106.585 67.6529C109.199 68.5583 111.736 69.6728 114.17 70.9856ZM81.4966 97.4788C78.7287 95.108 76.0386 92.6064 73.4741 89.9433C80.6404 84.9471 88.6788 81.3369 97.1737 79.299C91.5208 83.1408 86.3501 89.1744 81.5836 97.4568L81.4966 97.4788ZM77.2351 97.3201C73.8692 96.335 70.4124 95.6928 66.9173 95.403C68.288 94.0924 69.7458 92.8336 71.3169 91.5832C73.2304 93.5784 75.2003 95.5038 77.2351 97.3201ZM60.4683 98.1509C58.5592 100.434 56.8153 102.85 55.2497 105.382L54.7042 104.983L52.1209 103.121C51.9206 101.894 51.7855 100.633 51.6807 99.3446C54.5695 98.691 57.5099 98.2916 60.4683 98.1509ZM53.0281 107.279L53.7961 107.824L53.3421 108.661L53.0016 107.174L53.0281 107.279ZM45.0092 144.251C44.1347 143.139 43.295 142.02 42.4945 140.908C43.6407 136.251 45.0541 131.664 46.7278 127.17C45.5939 132.788 45.0356 138.506 45.0614 144.237L45.0092 144.251ZM45.0997 148.838C45.3281 153.309 45.8398 157.761 46.6319 162.168C43.278 165.074 40.159 167.958 37.3359 170.841C38.3414 161.978 39.8148 153.174 41.75 144.467C42.7738 145.947 43.9368 147.392 45.0649 148.846L45.0997 148.838ZM48.1894 152.33L49.3298 153.54C49.389 155.355 49.8409 157.135 50.6543 158.758C50.1769 159.139 49.7213 159.532 49.2613 159.908L49.1569 159.935C48.7909 157.399 48.4423 154.858 48.2416 152.317L48.1894 152.33ZM53.3375 162.984C54.5564 164.478 55.8839 165.879 57.309 167.178C55.7648 169.847 54.2733 172.651 52.8605 175.546C51.9357 172.56 51.1327 169.542 50.4559 166.511C51.3654 165.28 52.3448 164.106 53.3897 162.97L53.3375 162.984ZM56.6294 174.275C56.6058 177.819 57.1867 181.34 58.3469 184.688C57.779 185.295 57.2328 185.915 56.7562 186.518C55.7991 184.206 54.9159 181.894 54.1153 179.542C54.9749 177.75 55.8172 175.962 56.6816 174.262L56.6294 174.275ZM53.7683 242.727C53.7189 241.073 53.6997 239.393 53.7284 237.682C54.7994 238.624 55.9198 239.508 57.0849 240.33C66.5357 246.855 77.2072 247.904 86.387 243.223C88.1893 242.29 89.8916 241.176 91.4673 239.897C93.2511 245.054 95.4045 250.076 97.9107 254.924C83.7131 256.103 67.7507 255.507 57.565 249.15C56.5147 247.565 55.4945 245.88 54.4658 244.234C54.3289 243.695 54.027 243.235 53.8205 242.713L53.7683 242.727ZM60.8337 254.004C71.8184 258.622 86.4172 258.878 99.4222 257.669C99.9698 258.66 100.526 259.611 101.113 260.536C100.521 265.467 100.463 270.448 100.94 275.391C99.757 275.691 98.5737 275.844 97.408 276.066C87.0102 275.279 77.1217 271.248 69.1369 264.542C66.2111 261.166 63.4573 257.645 60.8859 253.991L60.8337 254.004ZM88.4946 277.347C86.3933 277.602 84.4527 277.762 82.6206 277.838C80.9963 276.399 79.3895 274.955 77.8174 273.503C81.2438 275.166 84.8415 276.451 88.5467 277.334L88.4946 277.347ZM97.5004 278.764C98.7673 278.868 100.065 278.946 101.371 278.985C102.133 284.052 103.765 288.949 106.193 293.461C98.8887 289.907 92.0215 285.518 85.7287 280.382C89.2968 280.142 93.1772 279.602 97.5703 278.82L97.5004 278.764ZM129.095 282.445C128.515 282.204 127.944 281.923 127.377 281.659C128.727 279.189 129.935 276.645 130.997 274.038C134.931 272.716 138.797 271.197 142.58 269.487C147.157 273.88 151.799 278.163 156.469 281.903C153.88 283.652 151.198 285.259 148.435 286.719C141.797 286.591 135.249 285.157 129.165 282.502L129.095 282.445ZM158.713 283.74L161.375 285.693C159.005 286.144 156.612 286.454 154.206 286.624C155.735 285.792 157.25 284.833 158.783 283.796L158.713 283.74ZM161.075 282.104C168.671 276.573 175.885 270.536 182.667 264.033C184.803 267.438 187.186 270.682 189.797 273.739C185.481 276.676 180.877 279.166 176.057 281.171C172.474 282.713 168.773 283.962 164.989 284.906C163.741 284.074 162.467 283.139 161.145 282.16L161.075 282.104ZM194.028 274.072C194.228 273.911 194.393 273.758 194.575 273.6L194.273 274.307L194.028 274.072ZM192.128 271.981C189.586 268.984 187.269 265.803 185.195 262.466C189.29 263.328 193.439 263.907 197.614 264.201C197.413 265.16 197.186 266.161 196.91 267.046C195.566 268.91 193.982 270.589 192.197 272.038L192.128 271.981ZM250.757 230.309C246.49 239.662 242.237 247.974 237.998 255.247C232.725 257.362 227.263 258.971 221.685 260.054C224.646 258.714 227.261 256.714 229.329 254.207C234.074 248.467 236.466 239.436 236.53 227.07C242.282 228.943 245.951 227.715 248.347 225.922C250.909 223.622 252.585 220.498 253.085 217.091C253.422 218.857 253.734 220.741 253.954 222.555C252.997 225.131 251.931 227.715 250.757 230.309ZM254.503 228.729C254.812 234.931 254.37 241.148 253.185 247.244C249.712 249.577 246.062 251.636 242.27 253.403C245.96 246.838 249.658 239.524 253.363 231.462L254.503 228.729ZM253.771 208.123C253.322 200.739 251.793 193.461 249.232 186.521C253.616 180.159 257.272 173.325 260.131 166.147C263.688 180.889 262.302 198.478 255.997 217.185C255.416 214.127 254.672 211.102 253.771 208.123ZM249.625 180.848C254.536 170.437 257.125 160.43 254.981 152.421C256.568 155.395 257.879 158.508 258.897 161.721C256.393 168.365 253.29 174.767 249.625 180.848ZM250.064 134.803L249.53 139.993C244.413 134.601 238.182 130.389 231.271 127.65C230.925 125.775 230.487 123.905 229.963 122.057C230.895 119.969 231.776 117.894 232.548 115.977C233.873 116.455 235.189 116.972 236.479 117.534C241.509 119.733 246.294 122.452 250.758 125.647C250.595 128.651 250.406 131.698 250.064 134.803ZM237.519 114.992C236.168 114.41 234.799 113.831 233.405 113.371C238.657 98.5406 238.684 86.8326 233.509 78.4076C240.56 84.3014 245.644 93.0271 248.364 103.742C249.858 109.815 250.637 116.042 250.685 122.296C246.535 119.455 242.127 117.01 237.519 114.992ZM211.668 64.7892C207.448 60.4531 202.469 56.9289 196.976 54.3921C204.221 53.9157 211.496 54.3 218.651 55.537C217.928 59.023 216.995 62.4623 215.859 65.8361C214.508 65.4754 213.101 65.1105 211.668 64.7892ZM206.598 63.8543C196.418 62.612 186.122 62.6564 175.954 63.9864C176.103 61.949 176.148 59.938 176.101 57.9317C180.917 56.5794 185.829 55.5927 190.793 54.9801C196.595 56.8684 201.966 59.8842 206.598 63.8543ZM175.996 55.1074C175.927 54.1806 175.867 53.2886 175.764 52.3706C178.535 52.4626 181.296 52.7581 184.023 53.2548C181.318 53.7564 178.644 54.3797 175.996 55.1074ZM173.287 55.8875C168.882 57.2043 164.572 58.8179 160.386 60.7173C161.074 58.173 161.8 55.6373 162.627 53.2057C166.061 52.6976 169.528 52.4364 173 52.4241C173.126 53.503 173.222 54.6822 173.287 55.8875ZM157.175 62.2174C154.299 63.651 151.532 65.2234 148.866 66.9C146.301 64.0889 143.798 61.5213 141.617 59.131C147.431 56.7651 153.457 54.9567 159.613 53.7301C158.635 56.5148 157.927 59.3421 157.175 62.2174ZM109.833 49.6658C113.243 55.2986 116.464 61.2019 119.71 67.2096C118.707 67.853 117.743 68.505 116.797 69.1525C113.835 67.4734 110.721 66.0756 107.498 64.9773C103.669 63.6838 99.7181 62.7823 95.7067 62.2864C92.5909 57.4407 88.8442 53.031 84.5652 49.1736C88.6844 46.0729 92.5916 43.3038 96.3345 40.8356C99.088 40.8081 101.841 40.9188 104.583 41.1671C106.273 43.8363 108.023 46.6692 109.833 49.6658ZM80.0645 49.0941C76.7282 51.6566 73.2839 54.4502 69.7316 57.4748C66.0043 60.5845 62.6082 64.071 59.5976 67.8787C58.9501 68.1727 58.3201 68.4622 57.677 68.7735C56.709 67.0752 55.8062 65.3419 54.9382 63.5997C52.2831 58.3623 50.2461 52.8339 48.8682 47.126C49.7324 46.5774 50.624 46.073 51.5394 45.6148C56.0888 44.7192 61.1115 43.9134 66.6074 43.1972C71.4857 44.0469 76.0818 46.0775 79.9949 49.1117L80.0645 49.0941ZM65.1736 65.6302C67.1754 63.5025 69.2986 61.4923 71.5325 59.6097C75.2512 56.4626 78.8489 53.5684 82.282 50.901C85.9583 54.161 89.2314 57.8489 92.0318 61.8862C82.8935 61.2964 73.7309 62.5764 65.104 65.6479L65.1736 65.6302ZM94.062 64.8516C96.2952 68.3617 98.3352 71.9911 100.173 75.7236C89.9663 77.7204 80.2882 81.8228 71.7558 87.7689C67.3324 82.9727 63.3514 77.7865 59.8615 72.2737C60.3334 71.58 60.8445 70.8948 61.3774 70.2226C71.5995 65.6355 82.8403 63.7904 93.9924 64.8692L94.062 64.8516ZM48.8219 97.1265C47.7261 97.4046 46.6129 97.6872 45.5395 98.1263C41.9083 95.3451 38.6473 92.6366 35.7565 90.0008C41.3076 82.9362 48.2204 77.0578 56.0852 72.7138C51.3461 79.974 48.8223 88.4565 48.8219 97.1265ZM48.9759 99.9941L49.0092 100.782L48.2498 100.197C48.5021 100.17 48.7456 100.108 48.9847 100.029L48.9759 99.9941ZM49.5542 104.68C50.0072 107.082 50.6443 109.445 51.4599 111.75C47.3941 117.614 43.6637 125.967 40.4856 137.808C34.9744 129.317 31.1007 119.87 29.0647 109.954C33.4547 106.646 38.2627 103.931 43.3637 101.882C43.9377 101.736 44.4634 101.473 45.059 101.266C46.4849 102.41 47.9862 103.559 49.563 104.714L49.5542 104.68ZM39.5023 141.52C37.0732 151.83 35.3053 162.284 34.2093 172.819L34.0794 174.204C32.4666 175.946 30.9322 177.706 29.5021 179.439C24.0831 169.768 20.6906 159.095 19.5315 148.07C18.3723 137.045 19.4708 125.9 22.76 115.313C23.9832 114.151 25.25 113.015 26.5518 111.944C28.9319 122.542 33.3287 132.583 39.5023 141.52ZM33.7 178.836C33.565 181.222 33.4863 183.538 33.5075 185.809C32.6413 184.585 31.8011 183.317 31.0131 182.036C31.9408 181.023 32.8203 179.893 33.7522 178.823L33.7 178.836ZM36.778 175.426C39.8953 172.098 43.3346 168.726 47.1875 165.378L47.3553 166.039C42.0508 173.472 38.7622 182.152 37.8098 191.234L36.4547 189.616C36.258 184.878 36.3835 180.133 36.8301 175.413L36.778 175.426ZM48.1389 169.709C48.9601 172.945 49.7901 176.215 50.9594 179.436C48.272 185.335 46.0046 191.417 44.1743 197.636C42.8471 196.491 41.5587 195.282 40.3268 194.002L40.3765 193.323C40.9414 184.913 43.6301 176.784 48.1911 169.696L48.1389 169.709ZM37.4579 195.027C37.4346 195.81 37.4549 196.62 37.4534 197.416L37.0699 197.291C36.9445 196.286 36.8146 195.264 36.715 194.215L37.4579 195.027ZM42.9543 202.093C42.2977 204.685 41.7021 207.298 41.2416 209.933C40.7501 207.079 40.433 204.198 40.2921 201.306C41.2114 201.572 42.109 201.826 43.0239 202.075L42.9543 202.093ZM43.9446 229.335C43.8393 235.076 45.6227 240.692 49.0205 245.32C49.7141 246.22 50.4736 247.067 51.2929 247.854C51.6267 252.911 52.3329 257.936 53.4057 262.888L51.6601 260.388C44.8303 250.476 42.2492 238.337 42.5691 225.667C43.0464 226.866 43.5281 228.083 44.0142 229.317L43.9446 229.335ZM54.1961 250.32C56.1537 253.85 58.439 257.187 61.0217 260.289C62.8223 262.405 64.779 264.384 66.8753 266.209C70.4392 270.322 74.242 274.222 78.2641 277.889C67.913 277.591 62.5168 274.202 57.7745 268.648C55.9585 262.674 54.7822 256.525 54.2657 250.302L54.1961 250.32ZM195.035 279.131L195.449 279.525L194.304 280.408L195.035 279.131ZM196.413 276.466C197.641 273.874 198.662 271.188 199.466 268.434C200.323 267.2 201.016 265.861 201.528 264.448C205.734 264.584 209.945 264.431 214.131 263.989C212.587 265.542 210.891 267.101 209.042 268.669C205.172 271.947 201.378 274.947 197.893 277.701C197.417 277.285 196.946 276.887 196.483 276.449L196.413 276.466ZM210.834 270.769C213.565 268.489 216.146 266.034 218.559 263.421C224.418 262.508 230.177 261.046 235.762 259.054C228.436 270.967 221.108 279.807 213.691 285.67C208.756 284.727 204.119 282.616 200.167 279.513C203.579 276.832 207.142 273.947 210.834 270.769ZM279.364 215.513C274.551 227.226 266.627 237.4 256.45 244.935C257.583 237.658 257.717 230.262 256.849 222.949C265.456 200.399 267.124 179.036 261.874 161.78C264.108 155.992 266.182 149.578 268.211 142.546C283.441 162.138 290.34 188.806 279.364 215.513ZM230.178 58.4986C239.349 61.4967 247.621 66.7499 254.234 73.7763C260.847 80.8027 265.59 89.3773 268.027 98.7134C270.72 109.324 270.775 121.937 266.95 136.627C262.902 132.045 258.387 127.898 253.478 124.253C253.654 101.825 246.176 83.5239 232.571 74.1282C230.408 72.6057 228.079 71.3335 225.629 70.3361C223.393 68.8829 221.007 67.6759 218.512 66.7362C219.683 63.2218 220.628 59.6364 221.342 56.0017C224.333 56.6626 227.283 57.4963 230.178 58.4986ZM181.157 22.3414C183.625 20.2596 186.634 18.9217 189.833 18.4833C193.033 18.0449 196.29 18.5241 199.228 19.8651C211.233 25.0012 216.734 32.0845 218.685 39.7725C219.681 44.0391 219.835 48.4592 219.137 52.7845C209.907 51.1985 200.494 50.9802 191.201 52.1365C186.075 50.5257 180.747 49.6467 175.375 49.5255C174.61 44.5042 172.966 39.657 170.518 35.2062C173.191 30.2651 176.806 25.8948 181.157 22.3414ZM160.111 27.6836C162.992 29.7465 165.445 32.3496 167.333 35.3483C164.689 40.2844 162.453 45.4279 160.646 50.7276C153.395 52.0634 146.309 54.1725 139.508 57.019C128.294 45.6648 119.944 40.1934 106.228 38.528C105.633 37.5683 105.024 36.6303 104.42 35.7098C135.574 17.4525 152.199 22.0453 160.102 27.6488L160.111 27.6836ZM66.684 40.2895C65.4353 40.1105 64.1753 40.0219 62.9139 40.0245C58.67 40.0188 54.4821 40.9931 50.6765 42.8715C49.8416 43.0835 49.0152 43.2562 48.1975 43.3897C46.3043 31.336 48.4799 20.2862 54.7318 11.1454C58.5894 5.48208 62.6274 2.79082 67.0674 2.92281C75.5336 3.16217 86.0632 13.1348 100.443 34.8493C98.8453 35.8474 97.1168 36.9156 95.3884 37.9838C88.7382 38.0426 80.9496 38.6495 71.4912 39.6803C69.9078 39.9341 68.2632 40.0923 66.684 40.2895ZM19.7064 62.6559C21.385 56.2127 29.4837 51.0651 43.833 47.2747C36.333 53.8797 30.8625 62.4784 28.0578 72.0705C27.226 74.6652 26.5552 77.3087 26.0494 79.9861C20.5322 73.2031 18.4441 67.4568 19.7064 62.6559ZM28.3789 82.6718C28.9033 79.337 29.6771 76.0461 30.6937 72.827C34.0854 62.2646 39.6959 53.8791 46.4406 48.6494C47.8165 54.2073 49.8051 59.5953 52.3699 64.7145C53.225 66.4785 54.1496 68.2248 55.1264 69.9579C46.8668 74.4628 39.6058 80.595 33.7819 87.984C31.7345 86.2635 29.9697 84.4897 28.401 82.7588L28.3789 82.6718ZM27.9 86.2555C29.1033 87.6411 30.4864 88.981 32.0492 90.2753C30.4239 92.4774 28.9294 94.7732 27.5736 97.1508C27.4283 93.5443 27.5447 89.9321 27.922 86.3425L27.9 86.2555ZM27.8623 102.373C29.6395 98.8128 31.7106 95.4074 34.0539 92.1918C36.4776 94.4463 39.3629 96.7688 42.4227 99.1951C42.3806 99.1982 42.3393 99.2087 42.3009 99.226C37.3924 101.189 32.7443 103.75 28.4616 106.849C28.252 105.44 28.1116 103.939 27.8799 102.442L27.8623 102.373ZM25.432 107.97L25.7427 107.224C25.8752 107.746 26.012 108.285 26.0401 108.834C25.5931 109.188 25.1461 109.542 24.7209 109.909C24.9101 109.269 25.1343 108.693 25.432 107.97ZM4.01767 162.191C1.9506 147.774 7.92593 131.928 18.7146 119.58C15.4844 132.956 15.5526 146.917 18.9133 160.261C20.8164 167.764 23.7653 174.962 27.6734 181.643C25.5546 184.31 23.6405 186.981 21.9177 189.603C9.14263 180.922 5.1163 169.947 4.01767 162.191ZM29.2497 184.28C30.6547 186.46 32.1855 188.552 33.7117 190.553C33.788 192.385 33.9865 194.334 34.2063 196.148C30.7774 194.799 27.4692 193.161 24.3174 191.253C25.7918 188.94 27.4316 186.623 29.2367 184.301L29.2497 184.28ZM94.8444 305.062C67.6628 312.054 33.4187 294.067 18.5069 264.933C12.2958 252.791 3.17981 225.63 22.8026 193.6C26.5522 195.877 30.51 197.792 34.6225 199.32C35.5684 205.949 37.4041 212.421 40.0801 218.559C38.5 234.216 40.8968 249.567 49.4416 261.932C51.4936 264.91 53.4095 267.571 55.3722 269.906C56.9051 274.866 59.1022 279.596 61.9035 283.967C70.5029 296.984 83.6974 302.504 100.136 300.09C103.03 299.648 105.854 298.832 108.537 297.661L109.195 297.92L109.492 298.289C105.066 301.438 100.095 303.742 94.8315 305.084L94.8444 305.062ZM117.213 301.791C116.445 301.24 115.708 300.648 115.004 300.019C116.962 300.653 118.951 301.186 120.964 301.616C130.934 303.871 141.167 304.744 151.375 304.21C133.754 309.627 123.095 306 117.213 301.791ZM196.324 293.985C191.851 294.734 187.271 294.548 182.873 293.437C185.041 291.805 187.057 289.98 188.895 287.984L189.246 287.543C192.033 285.613 194.876 283.54 197.828 281.31C201.607 284.341 205.954 286.587 210.613 287.914C206.325 290.937 201.442 293.01 196.289 293.994L196.324 293.985Z" fill="#6F27FA"/>
</svg>
