<svg id="icon" xmlns="http://www.w3.org/2000/svg" xmlns:xlink="http://www.w3.org/1999/xlink" viewBox="0 0 62 62"><defs><style>.cls-1{fill:none;clip-rule:evenodd;}.cls-2{fill:#e4f9fe;}.cls-3{clip-path:url(#clip-path);}</style><clipPath id="clip-path"><polygon class="cls-1" points="72.35 29.38 102.35 20.63 102.35 29.38 72.35 38.13 72.35 29.38"/></clipPath></defs><title>show</title><path class="cls-2" d="M30.64,22.13H24a8.77,8.77,0,0,0-3,.52l-.31.11V39.23l.31.12a9,9,0,0,0,3,.52h6.66L24.53,31Z"/><path class="cls-2" d="M14.61,31a8.83,8.83,0,0,0,3.3,6.89l.78.63v-15l-.78.63A8.83,8.83,0,0,0,14.61,31Z"/><path class="cls-2" d="M32.89,22l-6.21,9,6.21,9,18.17-9Zm1,14-3.41-5,3.41-5,6.33,3.14v3.63Z"/><path class="cls-2" d="M31,1,1,31,31,61,61,31ZM6.68,31,31,6.68,55.32,31,31,55.31Z"/></svg>