<svg width="32" height="32" viewBox="0 0 32 32" fill="none" xmlns="http://www.w3.org/2000/svg">
<path fill-rule="evenodd" clip-rule="evenodd" d="M31 16C31 24.2848 24.2842 31 16 31C7.7158 31 1 24.2848 1 16C1 7.7158 7.7158 1 16 1C24.2842 1 31 7.7158 31 16Z" stroke="#2A34FF" stroke-width="2"/>
<path fill-rule="evenodd" clip-rule="evenodd" d="M23.1308 11.5272C22.6072 11.7662 22.0441 11.9283 21.4541 12.0003C22.0569 11.6281 22.5193 11.0391 22.7377 10.3361C22.1733 10.6807 21.5485 10.931 20.884 11.0655C20.3511 10.4814 19.5923 10.1157 18.7519 10.1157C17.1399 10.1157 15.8325 11.4642 15.8325 13.1255C15.8325 13.362 15.8581 13.5914 15.9088 13.8117C13.4821 13.6862 11.3308 12.4885 9.8906 10.6663C9.63902 11.1112 9.49518 11.6281 9.49518 12.1799C9.49518 13.2239 10.0112 14.1455 10.7939 14.6853C10.3157 14.6697 9.86498 14.5346 9.4713 14.3082C9.4713 14.3208 9.4713 14.334 9.4713 14.346C9.4713 15.805 10.4782 17.0208 11.8136 17.2975C11.5684 17.3672 11.3104 17.4032 11.0443 17.4032C10.8556 17.4032 10.6733 17.3846 10.4951 17.3492C10.8667 18.5452 11.9446 19.4157 13.2223 19.4403C12.223 20.2472 10.9645 20.7282 9.59592 20.7282C9.36065 20.7282 9.12828 20.7143 8.89999 20.6861C10.1911 21.5405 11.7262 22.0388 13.3755 22.0388C18.7455 22.0388 21.6824 17.4518 21.6824 13.4743C21.6824 13.3434 21.6795 13.2143 21.6737 13.0852C22.245 12.6608 22.7394 12.1312 23.1308 11.5272Z" fill="#2A34FF"/>
</svg>
