<?xml version="1.0" encoding="UTF-8" standalone="no"?>
<svg xmlns:dc="http://purl.org/dc/elements/1.1/"
   xmlns:cc="http://creativecommons.org/ns#"
   xmlns:rdf="http://www.w3.org/1999/02/22-rdf-syntax-ns#"
   xmlns:svg="http://www.w3.org/2000/svg"
   xmlns="http://www.w3.org/2000/svg"
   xmlns:sodipodi="http://sodipodi.sourceforge.net/DTD/sodipodi-0.dtd"
   xmlns:inkscape="http://www.inkscape.org/namespaces/inkscape" width="128" height="128" viewBox="0 0 128 128" fill="none" version="1.1" id="svg84" sodipodi:docname="mouse view.svg" inkscape:version="1.0.1 (c497b03c, 2020-09-10)">
   <metadata id="metadata88">
      <rdf:RDF>
         <cc:Work rdf:about="">
            <dc:format>image/svg+xml</dc:format>
            <dc:type rdf:resource="http://purl.org/dc/dcmitype/StillImage" />
         </cc:Work>
      </rdf:RDF>
   </metadata>
   <sodipodi:namedview pagecolor="#ffffff" bordercolor="#666666" borderopacity="1" objecttolerance="10" gridtolerance="10" guidetolerance="10" inkscape:pageopacity="0" inkscape:pageshadow="2" inkscape:window-width="1517" inkscape:window-height="826" id="namedview86" showgrid="false" inkscape:zoom="1" inkscape:cx="-42.449153" inkscape:cy="91.088983" inkscape:window-x="2268" inkscape:window-y="218" inkscape:window-maximized="0" inkscape:current-layer="g63" />
   <g id="g63" transform="translate(-0.50000005,-0.50000005)">
      <g id="g92" transform="matrix(0.94814815,0,0,0.94814815,-6.137037,-4.2407407)">
         <circle cx="74.5" cy="72.5" r="67.5" fill="#ffffff" id="circle59" />
         <path d="M 54.274,68.2 49.976,78 H 48.59 l -4.312,-9.8 h 1.512 l 3.528,8.05 3.556,-8.05 z m 1.0674,2.38 h 1.344 V 78 h -1.344 z m 0.672,-1.428 c -0.2614,0 -0.4807,-0.084 -0.658,-0.252 -0.168,-0.168 -0.252,-0.3733 -0.252,-0.616 0,-0.2427 0.084,-0.448 0.252,-0.616 0.1773,-0.1773 0.3966,-0.266 0.658,-0.266 0.2613,0 0.476,0.084 0.644,0.252 0.1773,0.1587 0.266,0.3593 0.266,0.602 0,0.252 -0.0887,0.4667 -0.266,0.644 -0.168,0.168 -0.3827,0.252 -0.644,0.252 z m 9.9441,5.18 c 0,0.1027 -0.0093,0.238 -0.028,0.406 h -6.02 c 0.084,0.6533 0.3687,1.1807 0.854,1.582 0.4947,0.392 1.106,0.588 1.834,0.588 0.8867,0 1.6007,-0.2987 2.142,-0.896 l 0.742,0.868 c -0.336,0.392 -0.756,0.6907 -1.26,0.896 -0.4946,0.2053 -1.05,0.308 -1.666,0.308 -0.784,0 -1.4793,-0.1587 -2.086,-0.476 -0.6066,-0.3267 -1.078,-0.7793 -1.414,-1.358 -0.3266,-0.5787 -0.49,-1.232 -0.49,-1.96 0,-0.7187 0.1587,-1.3673 0.476,-1.946 0.3267,-0.5787 0.77,-1.0267 1.33,-1.344 0.5694,-0.3267 1.2087,-0.49 1.918,-0.49 0.7094,0 1.3394,0.1633 1.89,0.49 0.56,0.3173 0.994,0.7653 1.302,1.344 0.3174,0.5787 0.476,1.2413 0.476,1.988 z m -3.668,-2.688 c -0.644,0 -1.1853,0.196 -1.624,0.588 -0.4293,0.392 -0.6813,0.9053 -0.756,1.54 h 4.76 c -0.0746,-0.6253 -0.3313,-1.134 -0.77,-1.526 -0.4293,-0.4013 -0.966,-0.602 -1.61,-0.602 z M 78.9151,70.58 76.1431,78 h -1.288 l -2.142,-5.628 -2.17,5.628 h -1.288 l -2.758,-7.42 h 1.274 l 2.156,5.908 2.24,-5.908 h 1.134 l 2.198,5.936 2.212,-5.936 z m 14.4055,7.42 -0.014,-7.14 -3.542,5.95 h -0.644 l -3.542,-5.908 V 78 h -1.344 v -9.8 h 1.148 l 4.088,6.888 4.032,-6.888 h 1.148 l 0.014,9.8 z m 10.7954,-3.668 c 0,0.1027 -0.01,0.238 -0.028,0.406 h -6.0203 c 0.084,0.6533 0.3687,1.1807 0.854,1.582 0.4947,0.392 1.1063,0.588 1.8343,0.588 0.886,0 1.6,-0.2987 2.142,-0.896 l 0.742,0.868 c -0.336,0.392 -0.756,0.6907 -1.26,0.896 -0.495,0.2053 -1.05,0.308 -1.666,0.308 -0.7843,0 -1.4796,-0.1587 -2.0863,-0.476 -0.6066,-0.3267 -1.078,-0.7793 -1.414,-1.358 -0.3266,-0.5787 -0.49,-1.232 -0.49,-1.96 0,-0.7187 0.1587,-1.3673 0.476,-1.946 0.3267,-0.5787 0.77,-1.0267 1.33,-1.344 0.5694,-0.3267 1.2087,-0.49 1.9183,-0.49 0.709,0 1.339,0.1633 1.89,0.49 0.56,0.3173 0.994,0.7653 1.302,1.344 0.317,0.5787 0.476,1.2413 0.476,1.988 z m -3.668,-2.688 c -0.6443,0 -1.1856,0.196 -1.6243,0.588 -0.4293,0.392 -0.6813,0.9053 -0.756,1.54 h 4.7603 c -0.075,-0.6253 -0.332,-1.134 -0.77,-1.526 -0.43,-0.4013 -0.966,-0.602 -1.61,-0.602 z" fill="#2a34ff" id="path61" />
      </g>
   </g>
</svg>
