<svg xmlns="http://www.w3.org/2000/svg" viewBox="0 0 60 60"><defs><style>.cls-1{fill:#fe00ae;fill-rule:evenodd;}.cls-2{fill:none;stroke:#fe00ae;stroke-width:2px;}.cls-3{fill:#2a34ff;}.cls-4{fill:#e4f9fe;}</style></defs><title>GRAPHICS</title><g id="graphics"><path class="cls-1" d="M0,30,30,0,60,30,30,60ZM30,5.68,5.68,30,30,54.32,54.32,30Z"/><path class="cls-2" d="M18,24H41.32"/><path class="cls-3" d="M30.68,34.7v4.54H38L30.48,24,22.92,39.24h7V34.7Z"/><path class="cls-4" d="M18.65,25.09a1.51,1.51,0,1,0-1.52-1.51A1.51,1.51,0,0,0,18.65,25.09Z"/><path class="cls-4" d="M41.93,25.09a1.51,1.51,0,1,0-1.51-1.51A1.51,1.51,0,0,0,41.93,25.09Z"/></g></svg>